<svg xmlns="http://www.w3.org/2000/svg" width="332.128" height="73.889" viewBox="0 0 332.128 73.889">
  <g id="그룹_1004" data-name="그룹 1004" transform="translate(-1664.571 -1122.999)">
    <g id="그룹_1003" data-name="그룹 1003" transform="translate(1664.571 1122.999)">
      <path id="패스_1589" data-name="패스 1589" d="M1688.579,1147.888c2.295,5.913-1.177,12.135-7.711,14.67s-13.293.286-15.589-5.626,1.179-12.137,7.711-14.674S1686.283,1141.974,1688.579,1147.888Zm-5.914,2.294c-1.215-3.133-4.261-4.439-7.791-3.07s-4.9,4.389-3.681,7.524,4.261,4.439,7.79,3.07S1683.882,1153.315,1682.665,1150.182Zm-.961,34.547-4.4-11.342,24.362-9.456-.756-1.941-24.358,9.454-1.851-4.766,30.275-11.75,4.35,11.211-24.36,9.453.789,2.03,25.242-9.8,1.866,4.812Zm16.928-28.862-7.723-19.9,5.912-2.294,7.725,19.9Z" transform="translate(-1664.572 -1112.618)" fill="#a2875c"/>
      <path id="패스_1590" data-name="패스 1590" d="M1714.182,1150.92a24.159,24.159,0,0,1-12.961-4.6,26.865,26.865,0,0,1-9.359,11.935l-4.916-3.531c7.278-4.8,10.831-11.921,9.11-20.33l6.242-1.6a22.683,22.683,0,0,1,.357,8.075c3.673,3.261,8.574,4.253,13.652,4.417Zm14.735,8.639c1.529,5.964-2.949,11.563-10.659,13.539s-14.328-.773-15.859-6.737,2.949-11.562,10.659-13.539S1727.386,1153.593,1728.917,1159.559Zm-6.149,1.576c-.775-3.028-3.829-4.445-8.416-3.269s-6.581,3.89-5.8,6.919,3.829,4.445,8.416,3.267S1723.545,1164.163,1722.768,1161.135Zm-2.357-9.761-5.755-22.433,6.147-1.578,2.038,7.938,4.861-1.249,1.342,5.23-4.863,1.247,2.377,9.266Z" transform="translate(-1642.806 -1118.754)" fill="#a2875c"/>
      <path id="패스_1591" data-name="패스 1591" d="M1711.092,1151.422l-.673-4.879,41.271-5.7.673,4.876Zm17.25-27.376c8.019-1.109,14.749,1.6,15.506,7.084s-4.987,9.911-13.007,11.018-14.751-1.6-15.508-7.084S1720.321,1125.151,1728.342,1124.046Zm-10.408,45.788-1.464-10.6,26.453-3.652-.235-1.687-26.451,3.65-.633-4.6,32.736-4.518,1.45,10.505-26.451,3.652.239,1.734,27.436-3.786.641,4.642Zm3.685-35.638c.349,2.533,4.139,3.685,8.55,3.076s7.743-2.742,7.4-5.275-4.141-3.681-8.548-3.073S1721.27,1131.665,1721.619,1134.2Z" transform="translate(-1619.972 -1122.219)" fill="#a2875c"/>
      <path id="패스_1592" data-name="패스 1592" d="M1773.978,1165.426l.312-15.816-8.617-.172a13.178,13.178,0,0,1-10.028,4.068c-7.862-.156-13.519-6.283-13.352-14.76s6.061-14.376,13.922-14.22a13.16,13.16,0,0,1,10.46,5.181l8,.158.134-6.865,6.346.126-.836,42.425Zm-17.87-35.5c-4.356-.087-7.362,3.454-7.471,8.947s2.756,9.15,7.112,9.237,7.364-3.457,7.471-8.951S1760.464,1130.01,1756.108,1129.926Zm12.654,14.174,5.632.113.177-8.95-5.445-.106a16.667,16.667,0,0,1,.44,4.129A15.652,15.652,0,0,1,1768.762,1144.1Z" transform="translate(-1588.968 -1122.999)" fill="#a2875c"/>
      <path id="패스_1593" data-name="패스 1593" d="M1766.039,1132.732l.641-4.6,22.981,3.2-.641,4.6Zm20.7,10.963c-.594,4.269-4.94,6.626-11.083,5.772s-9.677-4.312-9.083-8.582,4.938-6.625,11.083-5.771S1787.339,1139.427,1786.744,1143.694Zm-14.54-15.745.639-4.6,12.663,1.763-.639,4.6Zm8.536,14.908c.235-1.687-1.02-2.963-3.695-3.334s-4.23.511-4.467,2.2,1.024,2.963,3.7,3.336S1780.505,1144.549,1780.74,1142.858Zm20.474,19.824c-.769,5.536-6.974,8.542-14.853,7.445s-13.024-5.685-12.253-11.219,6.974-8.544,14.853-7.445S1801.987,1157.149,1801.214,1162.682Zm-6.283-.874c.365-2.625-1.971-4.721-6.662-5.376s-7.51.724-7.877,3.35,1.971,4.721,6.662,5.374S1794.566,1164.434,1794.931,1161.808Zm-3.073-34.565,6.1.85-1.359,9.753,2.908.406,1.418-10.178,6.189.864-3.5,25.137-6.191-.864,1.34-9.614-2.908-.4-1.077,7.737-6.1-.85Z" transform="translate(-1565.865 -1122.655)" fill="#a2875c"/>
      <path id="패스_1594" data-name="패스 1594" d="M1811.692,1167.6a29.013,29.013,0,0,1-8.544-12.764,35.645,35.645,0,0,1-14,7.877l-2.888-5.41c8.211-2.2,14.336-6.709,17.769-14.569l-10.025-2.63,1.367-5.22,25.275,6.628-1.371,5.22-8.974-2.354a28.712,28.712,0,0,1-3.048,5.66,24.183,24.183,0,0,0,9.264,13.93Zm-10.095-34.457,1.371-5.22,14.7,3.857-1.369,5.218Zm14.013,16.35,7.646,2.007,4.457-16.986,6.135,1.608-10.761,41.024-6.137-1.608,4.938-18.821-7.646-2Z" transform="translate(-1546.199 -1118.205)" fill="#a2875c"/>
      <path id="패스_1595" data-name="패스 1595" d="M1845.835,1170.966l-5.8,14.861-30.253-11.811,5.8-14.863Zm-33.009-15.429,5.218-13.364,14.2,5.546,1.154-2.955-14.2-5.543,1.894-4.851,20.109,7.852-4.906,12.568-14.2-5.545-1.294,3.308,19.31,6.776-1.858,4.764Zm4.79,15.845,18.434,7.2,1.981-5.07-18.434-7.2Zm22.679-21.638,6.175,2.411,3.066-7.852,5.908,2.308-8.834,22.624-5.909-2.308,3.805-9.746-6.175-2.411Z" transform="translate(-1523.316 -1111.938)" fill="#a2875c"/>
    </g>
  </g>
</svg>
