<svg xmlns="http://www.w3.org/2000/svg" width="303.002" height="33.439" viewBox="0 0 303.002 33.439">
  <g id="그룹_724" data-name="그룹 724" transform="translate(-1080.941 -1152.293)">
    <path id="패스_480" data-name="패스 480" d="M1092.166,1157.073a9.467,9.467,0,0,1,6.156,2.006,6.619,6.619,0,0,1,2.471,5.415,10.429,10.429,0,0,1-1.511,5.388,10.718,10.718,0,0,1-4.011,3.962,11.256,11.256,0,0,1-5.63,1.409,9.092,9.092,0,0,1-6.35-2.131,7.126,7.126,0,0,1-2.349-5.535,10.018,10.018,0,0,1,1.477-5.274,10.54,10.54,0,0,1,4.038-3.841A11.7,11.7,0,0,1,1092.166,1157.073Zm-.167,3.547a3.639,3.639,0,0,0-2.254.833,6.749,6.749,0,0,0-1.9,2.807,10.432,10.432,0,0,0-.82,4.042,3.708,3.708,0,0,0,.739,2.511,2.432,2.432,0,0,0,1.917.843,3.792,3.792,0,0,0,2.309-.807,6.557,6.557,0,0,0,1.9-2.755,10.46,10.46,0,0,0,.82-4.1,3.738,3.738,0,0,0-.74-2.529A2.489,2.489,0,0,0,1092,1160.62Z" transform="translate(0 2.954)" fill="#fff"/>
    <path id="패스_481" data-name="패스 481" d="M1105.15,1157.206l-2.692,11.824a10.175,10.175,0,0,0-.251,1.332.78.78,0,0,0,.328.634,1.347,1.347,0,0,0,.843.254,3.314,3.314,0,0,0,2.024-.851,10.287,10.287,0,0,0,2.6-3.157,7.376,7.376,0,0,0,1.039-3.5,4.61,4.61,0,0,0-.123-1.13,8.873,8.873,0,0,0-.587-1.443,7.294,7.294,0,0,1-.409-.938,2.559,2.559,0,0,1-.089-.678,2.47,2.47,0,0,1,.89-1.885,3.1,3.1,0,0,1,2.17-.809,2.735,2.735,0,0,1,2.2,1.034,4.6,4.6,0,0,1,.864,3.016,14.076,14.076,0,0,1-1.136,5.242,16.769,16.769,0,0,1-3.134,5.021,13.5,13.5,0,0,1-4.074,3.216,9.853,9.853,0,0,1-4.338,1,4.974,4.974,0,0,1-3.241-1.008,3.6,3.6,0,0,1-1.488-2.886,10.919,10.919,0,0,1,.3-2.38l1.629-7.04h-3.766l.865-3.354a22.726,22.726,0,0,0,3.552-.409,37.729,37.729,0,0,0,4.216-1.1Z" transform="translate(8.506 2.821)" fill="#fff"/>
    <path id="패스_482" data-name="패스 482" d="M1122.36,1168.58l2.242,2.519a18.554,18.554,0,0,1-4.918,3.2,12.5,12.5,0,0,1-4.794.956,8.913,8.913,0,0,1-5.371-1.426,7.068,7.068,0,0,1-2.971-5.962,9.342,9.342,0,0,1,1.61-5.24,11.894,11.894,0,0,1,4.66-4,14.17,14.17,0,0,1,6.519-1.555,7.2,7.2,0,0,1,4.536,1.269,3.783,3.783,0,0,1,1.62,3.06,4.137,4.137,0,0,1-.569,2.191,6.138,6.138,0,0,1-2.108,2.085,13.309,13.309,0,0,1-4.118,1.4,29.893,29.893,0,0,1-5.854.583v.435a3.147,3.147,0,0,0,.953,2.364,3.391,3.391,0,0,0,2.464.921,6.763,6.763,0,0,0,2.739-.66A13.02,13.02,0,0,0,1122.36,1168.58Zm-8.84-3.98a19.429,19.429,0,0,0,4.313-.618,4.8,4.8,0,0,0,2.146-1.137,1.609,1.609,0,0,0,.48-1.131,1.185,1.185,0,0,0-.455-.939,1.805,1.805,0,0,0-1.2-.382,4.59,4.59,0,0,0-1.938.5,6.132,6.132,0,0,0-1.877,1.382A8.336,8.336,0,0,0,1113.52,1164.6Z" transform="translate(15.823 2.954)" fill="#fff"/>
    <path id="패스_483" data-name="패스 483" d="M1129.016,1157.073l-.907,3.912a10.96,10.96,0,0,1,1.962-2.286,7.235,7.235,0,0,1,2.035-1.208,5.862,5.862,0,0,1,2.115-.417,3.507,3.507,0,0,1,2.443.809,2.645,2.645,0,0,1,.9,2.06,3.105,3.105,0,0,1-.8,2.189,2.571,2.571,0,0,1-1.972.869,3.056,3.056,0,0,1-.872-.121,9.058,9.058,0,0,1-1.208-.626,2.441,2.441,0,0,0-1.136-.364,1.739,1.739,0,0,0-.712.157,4.569,4.569,0,0,0-1.228.946,10.067,10.067,0,0,0-1.456,2.078,18.076,18.076,0,0,0-1.288,3.223q-.7,2.2-1.165,4.163l-.587,2.382h-5.595l2.964-12.9h-2.75l.8-3.354a21.158,21.158,0,0,0,6.816-1.513Z" transform="translate(23.853 2.954)" fill="#fff"/>
    <path id="패스_484" data-name="패스 484" d="M1141.469,1157.073a12.865,12.865,0,0,1,4.2.644,6.076,6.076,0,0,1,2.623,1.511,2.687,2.687,0,0,1,.756,1.755,2.175,2.175,0,0,1-.629,1.607,2.215,2.215,0,0,1-1.644.636,3.5,3.5,0,0,1-.924-.121,2.831,2.831,0,0,1-.835-.384,6.3,6.3,0,0,1-.993-.833,8.379,8.379,0,0,0-1.013-.853,4.178,4.178,0,0,0-1.056-.406,5.32,5.32,0,0,0-1.306-.149,3.116,3.116,0,0,0-1.749.372,1.108,1.108,0,0,0-.523.93.971.971,0,0,0,.283.731,3.2,3.2,0,0,0,1.28.676,44.659,44.659,0,0,1,5.024,1.869,6.021,6.021,0,0,1,2.246,1.729,3.888,3.888,0,0,1,.754,2.4,4.97,4.97,0,0,1-1.031,2.988,7,7,0,0,1-2.99,2.242,12.608,12.608,0,0,1-4.927.835,13.21,13.21,0,0,1-6.918-1.582,3.415,3.415,0,0,1-1.976-2.833,2.189,2.189,0,0,1,.685-1.625,2.29,2.29,0,0,1,1.663-.67,2.568,2.568,0,0,1,.827.139,3.137,3.137,0,0,1,.882.487,7.118,7.118,0,0,1,.977.956,5.589,5.589,0,0,0,.836.8,5.763,5.763,0,0,0,1.556.817,6.265,6.265,0,0,0,1.823.225,4.67,4.67,0,0,0,2.118-.364q.888-.505.888-1.165a1.266,1.266,0,0,0-.658-1.078,21.231,21.231,0,0,0-3.255-1.217,10.75,10.75,0,0,1-4.448-2.382,4.278,4.278,0,0,1-1.225-3.024,4.607,4.607,0,0,1,.942-2.781,6.541,6.541,0,0,1,2.891-2.085A12.826,12.826,0,0,1,1141.469,1157.073Z" transform="translate(30.388 2.954)" fill="#fff"/>
    <path id="패스_485" data-name="패스 485" d="M1150.27,1153.668h4.027l-1.391,5.927h5.143l-.836,3.372h-5.135l-1.823,7.823a9.206,9.206,0,0,0-.252,1.547,1,1,0,0,0,.338.809,1.37,1.37,0,0,0,.909.285,3.565,3.565,0,0,0,1.691-.616,10.9,10.9,0,0,0,2.331-2.06l2.349,2a16.527,16.527,0,0,1-4.079,3.658,7.561,7.561,0,0,1-3.692.948,5.638,5.638,0,0,1-3.91-1.366,4.131,4.131,0,0,1-1.523-3.153,11.852,11.852,0,0,1,.358-2.5l1.7-7.373h-3.922l.809-2.9a8.557,8.557,0,0,0,5.181-3.33A11.469,11.469,0,0,0,1150.27,1153.668Z" transform="translate(38.072 0.85)" fill="#fff"/>
    <path id="패스_486" data-name="패스 486" d="M1168.788,1158.993l1.163-1.5h4.247l-2.969,11.644a9.1,9.1,0,0,0-.29,1.531.647.647,0,0,0,.228.511.833.833,0,0,0,.576.2,2.351,2.351,0,0,0,.971-.3,5.618,5.618,0,0,0,1.285-.92l2.011,2.294a11.2,11.2,0,0,1-3.147,2.147,7.949,7.949,0,0,1-3.129.652,5.08,5.08,0,0,1-2.031-.393,4.33,4.33,0,0,1-1.542-1.086,3.873,3.873,0,0,1-.879-1.581,8.7,8.7,0,0,1-1.877,1.668,8.544,8.544,0,0,1-2.116,1.06,7.359,7.359,0,0,1-2.268.332,6.416,6.416,0,0,1-3.37-.871,6.057,6.057,0,0,1-2.276-2.441,7.98,7.98,0,0,1-.828-3.762,10.64,10.64,0,0,1,3.317-7.814,10.493,10.493,0,0,1,7.6-3.292,8.3,8.3,0,0,1,2.76.424A9.25,9.25,0,0,1,1168.788,1158.993Zm-1.581,2.878a7.405,7.405,0,0,0-1.653-.991,3.807,3.807,0,0,0-1.388-.26,4.545,4.545,0,0,0-3.89,2.454,9.735,9.735,0,0,0-1.556,5.309,2.978,2.978,0,0,0,.623,1.959,1.88,1.88,0,0,0,1.5.757,3.246,3.246,0,0,0,1.922-.679,9.525,9.525,0,0,0,2.5-3.15A21.343,21.343,0,0,0,1167.207,1161.872Z" transform="translate(44.247 2.954)" fill="#fff"/>
    <path id="패스_487" data-name="패스 487" d="M1172.821,1161.888h-3.849l.927-3.32a30.887,30.887,0,0,0,7.674-1.495h1.985l-2.682,11.5a9.643,9.643,0,0,0-.291,1.626.774.774,0,0,0,.325.657,1.562,1.562,0,0,0,.937.238,2.746,2.746,0,0,0,1.634-.684,9.2,9.2,0,0,0,2.383-3.131,21.769,21.769,0,0,0,1.754-5.253l1.043-4.54h5.632l-3.856,16a11.452,11.452,0,0,1-4.142,6.847,14.062,14.062,0,0,1-8.5,2.438,9.874,9.874,0,0,1-5.391-1.183,3.318,3.318,0,0,1-1.791-2.728,2.359,2.359,0,0,1,.8-1.789,2.737,2.737,0,0,1,1.933-.748,3.069,3.069,0,0,1,1.33.312,5.426,5.426,0,0,1,1.257,1.165,4.553,4.553,0,0,0,1.385,1.147,3.516,3.516,0,0,0,1.53.312,5.335,5.335,0,0,0,2.078-.444,6.131,6.131,0,0,0,1.914-1.276,7.374,7.374,0,0,0,1.446-2.026,11.7,11.7,0,0,0,.94-3.068,9.007,9.007,0,0,1-1.744,1.634,6.755,6.755,0,0,1-1.828.861,7.359,7.359,0,0,1-2.142.3,5.143,5.143,0,0,1-2.448-.513,4.15,4.15,0,0,1-1.574-1.529,3.889,3.889,0,0,1-.621-2.043,12.274,12.274,0,0,1,.375-2.468Z" transform="translate(52.939 2.954)" fill="#fff"/>
    <path id="패스_488" data-name="패스 488" d="M1191.16,1157.073l-.833,3.543a13.468,13.468,0,0,1,2.265-2.144,7.981,7.981,0,0,1,2.064-1.043,6.757,6.757,0,0,1,2.136-.356,5.713,5.713,0,0,1,2.173.408,4.534,4.534,0,0,1,1.616,1.061,4.218,4.218,0,0,1,.929,1.748,8.858,8.858,0,0,1,4.1-2.859,7.469,7.469,0,0,1,2.3-.357,5.1,5.1,0,0,1,3.5,1.183,3.745,3.745,0,0,1,1.348,2.937,10.835,10.835,0,0,1-.053,1.1c-.026.173-.108.563-.252,1.165l-1.357,5.821a6.18,6.18,0,0,0-.215,1.252.888.888,0,0,0,.206.635.781.781,0,0,0,.589.217,1.484,1.484,0,0,0,.712-.226,6.8,6.8,0,0,0,1.425-.99l1.853,2.242a8.943,8.943,0,0,1-6.15,2.851,4.351,4.351,0,0,1-3.076-1.1,3.456,3.456,0,0,1-1.189-2.616,8.758,8.758,0,0,1,.249-1.946l1.349-5.857a7.306,7.306,0,0,0,.231-1.322,1.087,1.087,0,0,0-.343-.827,1.2,1.2,0,0,0-.846-.32,2.665,2.665,0,0,0-1.618.626,8.968,8.968,0,0,0-2.445,3.225,35.165,35.165,0,0,0-2.146,6.561l-.8,3.163h-5.918l2.634-10.759a11.093,11.093,0,0,0,.3-1.668,1.1,1.1,0,0,0-.338-.841,1.257,1.257,0,0,0-.9-.324,2.221,2.221,0,0,0-.715.123,4.046,4.046,0,0,0-1.052.591,7.242,7.242,0,0,0-1.241,1.328,16.418,16.418,0,0,0-1.458,2.348,14.009,14.009,0,0,0-1.061,2.511l-1.146,4.032-.641,2.66h-5.638l2.974-12.93h-2.759l.8-3.356a22.729,22.729,0,0,0,6.811-1.477Z" transform="translate(62.271 2.954)" fill="#fff"/>
    <path id="패스_489" data-name="패스 489" d="M1207.948,1161.888H1204.1l.927-3.32a30.89,30.89,0,0,0,7.674-1.495h1.985l-2.683,11.5a9.643,9.643,0,0,0-.291,1.626.774.774,0,0,0,.325.657,1.563,1.563,0,0,0,.937.238,2.746,2.746,0,0,0,1.634-.684,9.2,9.2,0,0,0,2.383-3.131,21.758,21.758,0,0,0,1.754-5.253l1.044-4.54h5.632l-3.855,16a11.451,11.451,0,0,1-4.142,6.847,14.063,14.063,0,0,1-8.5,2.438,9.874,9.874,0,0,1-5.391-1.183,3.318,3.318,0,0,1-1.791-2.728,2.36,2.36,0,0,1,.8-1.789,2.737,2.737,0,0,1,1.934-.748,3.068,3.068,0,0,1,1.33.312,5.466,5.466,0,0,1,1.257,1.165,4.548,4.548,0,0,0,1.385,1.147,3.518,3.518,0,0,0,1.531.312,5.334,5.334,0,0,0,2.077-.444,6.129,6.129,0,0,0,1.914-1.276,7.38,7.38,0,0,0,1.447-2.026,11.662,11.662,0,0,0,.938-3.068,8.952,8.952,0,0,1-1.742,1.634,6.778,6.778,0,0,1-1.828.861,7.358,7.358,0,0,1-2.142.3,5.141,5.141,0,0,1-2.448-.513,4.149,4.149,0,0,1-1.574-1.529,3.89,3.89,0,0,1-.621-2.043,12.265,12.265,0,0,1,.375-2.468Z" transform="translate(74.645 2.954)" fill="#fff"/>
    <path id="패스_490" data-name="패스 490" d="M1224.13,1153.668h4.025l-1.39,5.927h5.142l-.835,3.372h-5.135l-1.823,7.823a9.036,9.036,0,0,0-.252,1.547,1,1,0,0,0,.338.809,1.365,1.365,0,0,0,.908.285,3.559,3.559,0,0,0,1.691-.616,10.853,10.853,0,0,0,2.331-2.06l2.351,2a16.528,16.528,0,0,1-4.08,3.658,7.559,7.559,0,0,1-3.691.948,5.636,5.636,0,0,1-3.911-1.366,4.128,4.128,0,0,1-1.524-3.153,11.958,11.958,0,0,1,.358-2.5l1.7-7.373h-3.922l.809-2.9a8.545,8.545,0,0,0,5.181-3.33A11.477,11.477,0,0,0,1224.13,1153.668Z" transform="translate(83.711 0.85)" fill="#fff"/>
    <path id="패스_491" data-name="패스 491" d="M1235.179,1160.027h1.789l-3.043,12.118a9.947,9.947,0,0,0-.322,1.527.624.624,0,0,0,.193.477.712.712,0,0,0,.51.181,3.606,3.606,0,0,0,2.176-1.251l1.909,2.31a8.4,8.4,0,0,1-5.962,2.817,5.273,5.273,0,0,1-2.354-.477,3.826,3.826,0,0,1-1.547-1.4,3.346,3.346,0,0,1-.583-1.79,8.205,8.205,0,0,1,.115-1.076,17.2,17.2,0,0,1,.35-1.822l1.688-6.73h-3.624l.848-3.354A40.908,40.908,0,0,0,1235.179,1160.027Zm-.56-7.734a2.726,2.726,0,0,1,2.134.851,2.96,2.96,0,0,1,.765,2.052,3.368,3.368,0,0,1-.471,1.7,3.509,3.509,0,0,1-1.343,1.31,3.406,3.406,0,0,1-1.691.5,3.223,3.223,0,0,1-1.521-.4,2.881,2.881,0,0,1-1.157-1.078,2.823,2.823,0,0,1-.4-1.461,3.331,3.331,0,0,1,.508-1.72,3.5,3.5,0,0,1,1.323-1.3A3.769,3.769,0,0,1,1234.619,1152.293Z" transform="translate(89.928)" fill="#fff"/>
    <path id="패스_492" data-name="패스 492" d="M1244.746,1157.073l-.833,3.543a13.463,13.463,0,0,1,2.265-2.144,7.952,7.952,0,0,1,2.064-1.043,6.756,6.756,0,0,1,2.136-.356,5.715,5.715,0,0,1,2.173.408,4.539,4.539,0,0,1,1.616,1.061,4.22,4.22,0,0,1,.929,1.748,8.858,8.858,0,0,1,4.1-2.859,7.467,7.467,0,0,1,2.3-.357,5.1,5.1,0,0,1,3.5,1.183,3.746,3.746,0,0,1,1.348,2.937c0,.382-.02.747-.053,1.1-.026.173-.108.563-.252,1.165l-1.357,5.821a6.183,6.183,0,0,0-.215,1.252.889.889,0,0,0,.205.635.781.781,0,0,0,.589.217,1.483,1.483,0,0,0,.712-.226,6.8,6.8,0,0,0,1.426-.99l1.852,2.242a8.943,8.943,0,0,1-6.15,2.851,4.351,4.351,0,0,1-3.076-1.1,3.456,3.456,0,0,1-1.189-2.616,8.75,8.75,0,0,1,.249-1.946l1.349-5.857a7.3,7.3,0,0,0,.232-1.322,1.086,1.086,0,0,0-.343-.827,1.2,1.2,0,0,0-.846-.32,2.664,2.664,0,0,0-1.618.626,8.965,8.965,0,0,0-2.445,3.225,35.167,35.167,0,0,0-2.145,6.561l-.8,3.163h-5.918l2.634-10.759a11.093,11.093,0,0,0,.3-1.668,1.1,1.1,0,0,0-.338-.841,1.258,1.258,0,0,0-.9-.324,2.218,2.218,0,0,0-.715.123,4.02,4.02,0,0,0-1.052.591,7.233,7.233,0,0,0-1.241,1.328,16.418,16.418,0,0,0-1.458,2.348,13.869,13.869,0,0,0-1.061,2.511l-1.146,4.032-.641,2.66H1235.3l2.974-12.93h-2.759l.8-3.356a22.728,22.728,0,0,0,6.811-1.477Z" transform="translate(95.383 2.954)" fill="#fff"/>
    <path id="패스_493" data-name="패스 493" d="M1272.322,1168.58l2.242,2.519a18.556,18.556,0,0,1-4.918,3.2,12.5,12.5,0,0,1-4.794.956,8.914,8.914,0,0,1-5.372-1.426,7.068,7.068,0,0,1-2.97-5.962,9.34,9.34,0,0,1,1.61-5.24,11.891,11.891,0,0,1,4.66-4,14.168,14.168,0,0,1,6.518-1.555,7.2,7.2,0,0,1,4.537,1.269,3.783,3.783,0,0,1,1.62,3.06,4.135,4.135,0,0,1-.57,2.191,6.126,6.126,0,0,1-2.11,2.085,13.276,13.276,0,0,1-4.116,1.4,29.89,29.89,0,0,1-5.854.583v.435a3.146,3.146,0,0,0,.953,2.364,3.39,3.39,0,0,0,2.464.921,6.764,6.764,0,0,0,2.74-.66A13.015,13.015,0,0,0,1272.322,1168.58Zm-8.841-3.98a19.433,19.433,0,0,0,4.313-.618,4.806,4.806,0,0,0,2.146-1.137,1.606,1.606,0,0,0,.479-1.131,1.184,1.184,0,0,0-.453-.939,1.806,1.806,0,0,0-1.2-.382,4.592,4.592,0,0,0-1.938.5,6.135,6.135,0,0,0-1.877,1.382A8.344,8.344,0,0,0,1263.481,1164.6Z" transform="translate(108.488 2.954)" fill="#fff"/>
  </g>
</svg>
