<svg xmlns="http://www.w3.org/2000/svg" xmlns:xlink="http://www.w3.org/1999/xlink" width="365.049" height="245.885" viewBox="0 0 365.049 245.885">
  <defs>
    <clipPath id="clip-path">
      <path id="패스_1843" data-name="패스 1843" d="M327.685,75.4C287.948,56.93,239.212,50.856,193.973,58.742c-96.367,16.8-167.964,87.3-156.346,153.944,11.064,63.46,106.738,102.024,208.92,84.208C346.8,279.417,411.413,219.942,400.173,155.482,394.585,123.42,368.162,94.232,327.685,75.4ZM245.551,291.193c-99.09,17.278-191.7-19.132-202.219-79.5C32.25,148.137,101.692,80.707,194.967,64.444c44.1-7.69,91.585-1.78,130.274,16.212,38.737,18.013,63.972,45.65,69.23,75.819C405.134,217.635,342.5,274.29,245.551,291.193Zm-74.385-176.5-2.1.78-1.625-7.606ZM310.7,230.744a6.8,6.8,0,0,1,.583,1.274,1.242,1.242,0,0,1-.107,1.03,3.262,3.262,0,0,1-1.226,1.012l-.649.36L302.893,223l.619-.354a3.74,3.74,0,0,1,1.455-.545,1.138,1.138,0,0,1,.911.345,5.247,5.247,0,0,1,.789,1.11ZM192.53,260.58l1.414-7.332.863,7.419Zm-3.241-90.249a5.067,5.067,0,0,1,1.684,3.342l3.318,19.028a5.056,5.056,0,0,1-.455,3.714,4.3,4.3,0,0,1-3.018,1.693,4.35,4.35,0,0,1-3.4-.542,5.07,5.07,0,0,1-1.69-3.372l-3.315-19.028a5.069,5.069,0,0,1,.452-3.714,5.193,5.193,0,0,1,6.428-1.122Zm83.419,78.607a5.581,5.581,0,0,1,.259,1.021,1.6,1.6,0,0,1-.14.946,1.531,1.531,0,0,1-.911.67,1.492,1.492,0,0,1-1.119.065,1.526,1.526,0,0,1-.684-.649,5.835,5.835,0,0,1-.446-.955l-3.1-8.57a5.169,5.169,0,0,1-.259-1.03,1.546,1.546,0,0,1,.143-.934,1.435,1.435,0,0,1,.857-.661,1.541,1.541,0,0,1,1.134-.062,1.558,1.558,0,0,1,.705.628,5.064,5.064,0,0,1,.461.964ZM243.9,105.5a1.622,1.622,0,0,1-.393-.89,6.356,6.356,0,0,1-.06-1.1l.253-9.493a5.663,5.663,0,0,1,.134-1.107,1.625,1.625,0,0,1,.464-.851,1.364,1.364,0,0,1,1.024-.318,1.474,1.474,0,0,1,1.059.369,1.654,1.654,0,0,1,.42.878,5.864,5.864,0,0,1,.074,1.113l-.253,9.5a5.71,5.71,0,0,1-.134,1.092,1.649,1.649,0,0,1-.467.866,1.441,1.441,0,0,1-1.074.312A1.4,1.4,0,0,1,243.9,105.5Zm-33.211,146.18a3.124,3.124,0,0,1,.562,1.872,4.089,4.089,0,0,1-.179,1.443,1.739,1.739,0,0,1-.753.937,3.2,3.2,0,0,1-1.55.363l-1.327.045-.167-5.232,1.536-.048A2.183,2.183,0,0,1,210.692,251.679ZM195.961,70.146C104.605,86.073,38.839,152.217,49.034,210.7S153.2,301.421,244.557,285.491s154.408-69.54,144.213-128.022S287.32,54.219,195.961,70.146Zm108.7,42.635,1.44-3.181a3.658,3.658,0,0,0-.2-3.407l-1.8-2.988a.791.791,0,0,1,.765-1.193l3.47.387a3.662,3.662,0,0,0,3.178-1.244l2.288-2.637a.787.787,0,0,1,1.369.357l.705,3.419a3.668,3.668,0,0,0,2.163,2.64l3.217,1.36a.789.789,0,0,1,.08,1.414l-3.032,1.726a3.667,3.667,0,0,0-1.842,2.875l-.3,3.476a.791.791,0,0,1-1.321.518l-2.58-2.354a3.664,3.664,0,0,0-3.3-.863l-3.4.792A.79.79,0,0,1,304.663,112.781ZM287.469,93.5a11.33,11.33,0,0,1,4.1,1.437,3.941,3.941,0,0,1,1.747,2.39,8.675,8.675,0,0,1-.054,3.622l-1.336,7.035a8.872,8.872,0,0,1-1.289,3.437,3.974,3.974,0,0,1-2.494,1.625,11.01,11.01,0,0,1-4.306-.149l-5.3-1.006,3.684-19.388Zm-8.4-1.5-.4,2.946-4.773-.655-.664,4.851,3.637.5-.408,2.994-3.639-.5-.8,5.842,4.827.658-.4,2.922L267,110.272l2.675-19.551Zm-24.911,11.052,4.02-.208a8.4,8.4,0,0,0,.065,2.062,2.219,2.219,0,0,0,.524,1.17,1.464,1.464,0,0,0,.943.426.935.935,0,0,0,.988-.378,2.232,2.232,0,0,0,.307-.946,3.355,3.355,0,0,0-.44-2.107,9.54,9.54,0,0,0-1.539-1.839L257.341,99.6a9.674,9.674,0,0,1-1.821-2.327,5.157,5.157,0,0,1-.554-3.047,4.708,4.708,0,0,1,1.916-3.678,6.506,6.506,0,0,1,4.425-.943,5.885,5.885,0,0,1,2.663.771,3.916,3.916,0,0,1,1.434,1.536,5.6,5.6,0,0,1,.565,1.881,10.6,10.6,0,0,1,.057,1.851l-4.035.11a14.165,14.165,0,0,0,.018-1.53,2.007,2.007,0,0,0-.289-1.024,1.068,1.068,0,0,0-.851-.429,1.015,1.015,0,0,0-.991.426,2.011,2.011,0,0,0-.39.994,2.747,2.747,0,0,0,.4,1.827,10.435,10.435,0,0,0,1.339,1.58l1.613,1.586a11.249,11.249,0,0,1,2.1,2.675,5.919,5.919,0,0,1,.646,3.5,4.775,4.775,0,0,1-2.961,4.071,6.145,6.145,0,0,1-2.976.4,7.493,7.493,0,0,1-3.238-.946,4.336,4.336,0,0,1-1.818-2.2A8.909,8.909,0,0,1,254.157,103.059Zm-15.445-.768.2-7.33a9.011,9.011,0,0,1,.693-3.467,4.356,4.356,0,0,1,2.035-2.149,7.671,7.671,0,0,1,3.77-.67,7.841,7.841,0,0,1,3.767.869A4.376,4.376,0,0,1,251.11,91.8a9.068,9.068,0,0,1,.506,3.5l-.2,7.33a9.216,9.216,0,0,1-.69,3.467,4.435,4.435,0,0,1-2.05,2.184,7.8,7.8,0,0,1-3.812.678,7.64,7.64,0,0,1-3.729-.875,4.466,4.466,0,0,1-1.919-2.3A9.184,9.184,0,0,1,238.712,102.291Zm-11.781-13.13,4.66-.176.613,16.775,4.842-.176.11,2.946-9.5.345Zm-15.519,7.856a9.638,9.638,0,0,1,.182-3.562,4.412,4.412,0,0,1,1.7-2.482,7.6,7.6,0,0,1,3.678-1.217,7.685,7.685,0,0,1,3.714.307,4.06,4.06,0,0,1,2.074,1.788,7.588,7.588,0,0,1,.875,2.9l.19,1.693-4.532.506-.217-1.961a9.477,9.477,0,0,0-.19-1.1,1.6,1.6,0,0,0-.473-.842,1.377,1.377,0,0,0-1.1-.235,1.435,1.435,0,0,0-1.033.482,1.671,1.671,0,0,0-.339.961,6.96,6.96,0,0,0,.039,1.158l1.03,9.225a5.727,5.727,0,0,0,.25,1.187,1.648,1.648,0,0,0,.562.818,1.446,1.446,0,0,0,1.059.211,1.324,1.324,0,0,0,1-.467,1.685,1.685,0,0,0,.289-.949,8.326,8.326,0,0,0-.051-1.149l-.229-2.053,4.529-.509.188,1.7a7.974,7.974,0,0,1-.2,3.047,4.21,4.21,0,0,1-1.6,2.285,7.294,7.294,0,0,1-3.58,1.172,7.472,7.472,0,0,1-3.854-.39,4.435,4.435,0,0,1-2.208-2.053,9.505,9.505,0,0,1-.955-3.387Zm-31.127.949a13.711,13.711,0,0,1,3.666-.658,4.523,4.523,0,0,1,2.788.795,5.175,5.175,0,0,1,1.765,2.815,10.176,10.176,0,0,1,.429,2.134,3.907,3.907,0,0,1-.256,1.794,4.2,4.2,0,0,1-1.2,1.574l5.541,8.3-4.61,1.4-4.788-7.788-1.271.387,2.568,8.46-4.461,1.354-5.734-18.879Zm-17.192,5.9,4.985-1.848,10.549,17.132L174.6,120.64l-2.11-3.66-2.9,1.08.765,4.16-4.125,1.53Zm-12.552,5.121,1.25,2.7-4.369,2.03,2.062,4.44,3.33-1.547,1.271,2.741-3.33,1.547,2.485,5.348,4.416-2.053,1.241,2.672-8.645,4.017-8.309-17.9Zm-22.867,11.439,6.565,9.523-4.053-10.85,2.726-1.476,6.883,9.24-4.306-10.66,3.437-1.857,7.157,18.56-3.574,1.934-7.243-9.627,4.172,11.284-3.622,1.958-11.627-16.147ZM81.188,222.546q-7.508-4.928-9.826-18.215-4.428-25.39,20.269-29.7A41.4,41.4,0,0,1,103,174.143a26.579,26.579,0,0,1,8.216,1.878l2.744,15.751-15.117,2.637-.792-4.535a5.069,5.069,0,0,0-1.687-3.342,5.19,5.19,0,0,0-6.425,1.122,5.053,5.053,0,0,0-.455,3.714L92.8,210.4a5.06,5.06,0,0,0,1.687,3.339,5.195,5.195,0,0,0,6.425-1.119,5.072,5.072,0,0,0,.458-3.714l-.89-5.1,15.117-2.637,2.845,16.314a27.394,27.394,0,0,1-7.094,4.55,40.559,40.559,0,0,1-10.74,3.366Q88.7,227.466,81.188,222.546ZM125.3,245.689l-2.976,1.827a3.668,3.668,0,0,0-1.741,2.934l-.182,3.485a.791.791,0,0,1-1.3.562l-2.654-2.265a3.671,3.671,0,0,0-3.33-.753l-3.372.908a.792.792,0,0,1-.937-1.065l1.333-3.226a3.657,3.657,0,0,0-.315-3.4l-1.9-2.928a.791.791,0,0,1,.723-1.22l3.482.271a3.662,3.662,0,0,0,3.134-1.348l2.2-2.714a.79.79,0,0,1,1.384.312l.818,3.392a3.663,3.663,0,0,0,2.253,2.562l3.259,1.25A.791.791,0,0,1,125.3,245.689Zm-14.582-97.031-1.559,3.125a.789.789,0,0,1-1.417-.006l-1.533-3.137a3.664,3.664,0,0,0-2.753-2.018l-3.452-.515a.792.792,0,0,1-.434-1.351l2.512-2.428a3.666,3.666,0,0,0,1.065-3.241l-.574-3.443a.789.789,0,0,1,1.149-.827l3.083,1.637a3.672,3.672,0,0,0,3.413.015l3.1-1.613a.79.79,0,0,1,1.143.836l-.6,3.44a3.671,3.671,0,0,0,1.042,3.25l2.491,2.446a.792.792,0,0,1-.443,1.348l-3.458.488A3.661,3.661,0,0,0,110.721,148.658Zm12.124,61.3L126,209.41l-4.943-28.354-3.151.551-1.8-10.329,26.586-4.633,1.8,10.329-5.8,1.009,4.943,28.351,5.672-.988-1.012-5.8,12.537-2.184,2.812,16.129-39,6.8ZM158.2,263.413l.205-11.567-3.7,10.942-4.122-.738.765-19.078,3.964.708-.684,11.073,3.523-10.543,3.1.553-.25,11.055,3.2-10.555,3.91.7-5.848,18.171Zm21.132-13.305-4.868-.58-.557,4.663,3.711.44-.345,2.878-3.708-.443-.67,5.609,4.919.589-.333,2.8-9.627-1.146,2.238-18.784,9.576,1.14ZM200.1,267.356l-4.369-.158-.565-4.023-3.151-.119-.89,3.967-4.473-.167,4.755-18.751,5.4.2Zm-26.173-60.978q-7.325-4.959-9.639-18.248t2.9-20.435q5.214-7.142,16.742-9.151t18.852,2.943q7.325,4.955,9.639,18.251t-2.9,20.435q-5.214,7.138-16.745,9.148T173.925,206.378Zm41.713,46.656a9.494,9.494,0,0,1-.143,2.089,3.649,3.649,0,0,1-.732,1.6,4.217,4.217,0,0,1-1.592,1.164l3.235,9.053-4.9.158-2.631-8.395-1.351.045.274,8.472-4.741.152-.61-18.906,5.907-.19a14.865,14.865,0,0,1,3.77.3A4.6,4.6,0,0,1,214.649,250,4.725,4.725,0,0,1,215.637,253.033Zm12.082-3.455-4.871.542.512,4.663,3.714-.4.315,2.878-3.714.4.616,5.618,4.925-.539.307,2.809-9.636,1.056-2.065-18.8,9.588-1.05Zm-32.431-135.4-4.624-19.185,9.219-2.22.7,2.89L195.9,96.792l1.146,4.761,3.571-.86.708,2.937-3.571.86,1.381,5.732,4.738-1.143.69,2.869Zm55.675,144.293a4.091,4.091,0,0,1-1.357,2.393,7.858,7.858,0,0,1-3.47,1.6,8.051,8.051,0,0,1-3.931.146,4.4,4.4,0,0,1-2.461-1.669,8.7,8.7,0,0,1-1.345-3.095l-1.6-6.63a8.867,8.867,0,0,1-.223-3.416A4.324,4.324,0,0,1,238,245.2a10.186,10.186,0,0,1,7.344-1.857,4.01,4.01,0,0,1,2.294,1.428,6.9,6.9,0,0,1,1.208,2.64l.384,1.589-4.505,1.086-.443-1.839a8.46,8.46,0,0,0-.318-1.027,1.485,1.485,0,0,0-.574-.738,1.434,1.434,0,0,0-1.134-.074,1.524,1.524,0,0,0-.985.6,1.59,1.59,0,0,0-.235.958,6.514,6.514,0,0,0,.173,1.1l2.086,8.645a5.335,5.335,0,0,0,.39,1.1,1.383,1.383,0,0,0,1.753.765,1.385,1.385,0,0,0,.949-.577,1.562,1.562,0,0,0,.182-.943,7.323,7.323,0,0,0-.182-1.086l-.467-1.928,4.508-1.092.384,1.592A7.286,7.286,0,0,1,250.964,258.473ZM230.047,201.75a38.466,38.466,0,0,1-8.7-.917l-2.175-12.472,13.862-2.416a3.943,3.943,0,0,0,1.375,2.681,4.6,4.6,0,0,0,3.369.321,5.1,5.1,0,0,0,2.7-1.086,2.094,2.094,0,0,0,.536-1.946,2.281,2.281,0,0,0-1.122-1.592,9.7,9.7,0,0,0-3.092-.982l-5.746-.946q-7.459-1.428-11.136-4.485t-4.749-9.172q-1.295-7.432,2.913-12.159t15.608-6.714a46.968,46.968,0,0,1,10.493-.693,26.351,26.351,0,0,1,8.291,1.574l1.967,11.276-12.6,2.2q-.549-3.147-4.455-2.467a5.557,5.557,0,0,0-2.595.94,1.8,1.8,0,0,0-.5,1.8,2,2,0,0,0,1.208,1.544,12.936,12.936,0,0,0,3.223.8l5.812.934q7.075,1.1,10.761,4.193a14.434,14.434,0,0,1,4.708,8.948q1.393,8-3.276,13.034t-15.07,6.847A61.1,61.1,0,0,1,230.047,201.75Zm25.339,58.02-5.476-18.108,4.538-1.369,4.66,15.4,4.717-1.425.815,2.708Zm22.087-10.124a4.35,4.35,0,0,1-1.175,2.711,8.372,8.372,0,0,1-3.372,2.012,8.1,8.1,0,0,1-3.842.592,4.305,4.305,0,0,1-2.625-1.336,8.334,8.334,0,0,1-1.708-2.931l-2.39-6.609a8.17,8.17,0,0,1-.562-3.348,4.333,4.333,0,0,1,1.172-2.675,8.3,8.3,0,0,1,3.339-1.985,8.394,8.394,0,0,1,3.878-.619,4.275,4.275,0,0,1,2.622,1.3,8.3,8.3,0,0,1,1.711,2.931l2.39,6.609A8.428,8.428,0,0,1,277.473,249.647Zm13.927-5.258a4.77,4.77,0,0,1-1.113,2.345,6.5,6.5,0,0,1-2.491,1.747,7.928,7.928,0,0,1-3.342.75,4.293,4.293,0,0,1-2.643-.988,8.084,8.084,0,0,1-2.053-2.845l3.514-2.089a7.588,7.588,0,0,0,1.006,1.705,2.1,2.1,0,0,0,1.006.735,1.518,1.518,0,0,0,1.042-.089c.455-.193.693-.455.714-.789a2.072,2.072,0,0,0-.161-.949,3.082,3.082,0,0,0-1.36-1.559,9.268,9.268,0,0,0-2.223-.815l-2.265-.577a9.7,9.7,0,0,1-2.7-1.1,4.755,4.755,0,0,1-1.893-2.3,4.41,4.41,0,0,1,.036-4.017,6.959,6.959,0,0,1,3.541-2.9,6.3,6.3,0,0,1,2.75-.616,3.911,3.911,0,0,1,1.991.607,5.247,5.247,0,0,1,1.369,1.315,10.1,10.1,0,0,1,.9,1.536l-3.577,2.015a12.394,12.394,0,0,0-.684-1.3,1.873,1.873,0,0,0-.729-.729,1.132,1.132,0,0,0-.961.042,1.059,1.059,0,0,0-.7.833,1.846,1.846,0,0,0,.107,1.024,2.535,2.535,0,0,0,1.2,1.354,10.246,10.246,0,0,0,1.922.687l2.175.565a11.3,11.3,0,0,1,3.116,1.256,5.476,5.476,0,0,1,2.187,2.646A4.418,4.418,0,0,1,291.4,244.388Zm3.815.5-8.3-17,8.669-4.229,1.25,2.559-4.4,2.155,2.056,4.217,3.36-1.64,1.271,2.6-3.357,1.634,2.479,5.083,4.452-2.175,1.241,2.538Zm19.626-10.978a11.887,11.887,0,0,1-3.467,2.672l-4.782,2.684-9.264-16.489,4.735-2.66a12.241,12.241,0,0,1,4.113-1.6,3.914,3.914,0,0,1,2.866.613,7.993,7.993,0,0,1,2.232,2.669l3.363,5.99a8.124,8.124,0,0,1,1.146,3.33A3.956,3.956,0,0,1,314.841,233.91Zm-9.954-75.944-14.112,2.461-1.515-8.7-7.624,1.33,1.735,9.954,5.547-.964,1.253,7.178-5.547.967,1.955,11.216,7.624-1.33-1.738-9.951,14.115-2.461,3.535,20.283L267.59,195.37l-1.8-10.332,3.151-.551L264,156.136l-3.151.551-1.8-10.329,42.525-7.416Zm38.448,56.9-3.485.226a3.679,3.679,0,0,0-2.91,1.783l-1.788,3a.791.791,0,0,1-1.414-.11l-1.292-3.244a3.668,3.668,0,0,0-2.592-2.22l-3.4-.774a.79.79,0,0,1-.33-1.378l2.684-2.232a3.663,3.663,0,0,0,1.309-3.151l-.315-3.476a.79.79,0,0,1,1.208-.741l2.952,1.866a3.667,3.667,0,0,0,3.4.268l3.208-1.372a.791.791,0,0,1,1.08.92l-.863,3.384a3.666,3.666,0,0,0,.795,3.318l2.3,2.628A.79.79,0,0,1,343.335,214.865Zm13.626-41.013q-5.2,6.843-15.724,8.678l-25.578,4.461-1.8-10.332,3.151-.551-4.931-28.286-3.151.548-1.812-10.392,25.578-4.461q10.521-1.835,17.733,2.848t9.472,17.662Q362.161,167,356.961,173.852ZM181.62,106.314l-1.583-5.22,1.446-.44a2.077,2.077,0,0,1,1.949.149,3.393,3.393,0,0,1,1.045,1.744,4.423,4.423,0,0,1,.226,1.5,1.769,1.769,0,0,1-.461,1.134,3,3,0,0,1-1.375.762Zm156.837,41.647,3.318,19.025a5.081,5.081,0,0,1-.455,3.717A4.306,4.306,0,0,1,338.3,172.4l-3.654.637-4.943-28.351,3.654-.637Q337.645,143.3,338.457,147.962ZM284.4,109.933l-.717-.137,2.55-13.427.69.131a3.351,3.351,0,0,1,1.437.524,1.16,1.16,0,0,1,.458.878,5.648,5.648,0,0,1-.125,1.417l-1.6,8.445a7.5,7.5,0,0,1-.387,1.417,1.3,1.3,0,0,1-.738.753A3.048,3.048,0,0,1,284.4,109.933Z" transform="translate(-36.39 -55.365)" fill="#912c2c"/>
    </clipPath>
  </defs>
  <g id="그룹_1114" data-name="그룹 1114" transform="translate(-36.39 -55.365)">
    <path id="패스_1841" data-name="패스 1841" d="M327.685,75.4C287.948,56.93,239.212,50.856,193.973,58.742c-96.367,16.8-167.964,87.3-156.346,153.944,11.064,63.46,106.738,102.024,208.92,84.208C346.8,279.417,411.413,219.942,400.173,155.482,394.585,123.42,368.162,94.232,327.685,75.4ZM245.551,291.193c-99.09,17.278-191.7-19.132-202.219-79.5C32.25,148.137,101.692,80.707,194.967,64.444c44.1-7.69,91.585-1.78,130.274,16.212,38.737,18.013,63.972,45.65,69.23,75.819C405.134,217.635,342.5,274.29,245.551,291.193Zm-74.385-176.5-2.1.78-1.625-7.606ZM310.7,230.744a6.8,6.8,0,0,1,.583,1.274,1.242,1.242,0,0,1-.107,1.03,3.262,3.262,0,0,1-1.226,1.012l-.649.36L302.893,223l.619-.354a3.74,3.74,0,0,1,1.455-.545,1.138,1.138,0,0,1,.911.345,5.247,5.247,0,0,1,.789,1.11ZM192.53,260.58l1.414-7.332.863,7.419Zm-3.241-90.249a5.067,5.067,0,0,1,1.684,3.342l3.318,19.028a5.056,5.056,0,0,1-.455,3.714,4.3,4.3,0,0,1-3.018,1.693,4.35,4.35,0,0,1-3.4-.542,5.07,5.07,0,0,1-1.69-3.372l-3.315-19.028a5.069,5.069,0,0,1,.452-3.714,5.193,5.193,0,0,1,6.428-1.122Zm83.419,78.607a5.581,5.581,0,0,1,.259,1.021,1.6,1.6,0,0,1-.14.946,1.531,1.531,0,0,1-.911.67,1.492,1.492,0,0,1-1.119.065,1.526,1.526,0,0,1-.684-.649,5.835,5.835,0,0,1-.446-.955l-3.1-8.57a5.169,5.169,0,0,1-.259-1.03,1.546,1.546,0,0,1,.143-.934,1.435,1.435,0,0,1,.857-.661,1.541,1.541,0,0,1,1.134-.062,1.558,1.558,0,0,1,.705.628,5.064,5.064,0,0,1,.461.964ZM243.9,105.5a1.622,1.622,0,0,1-.393-.89,6.356,6.356,0,0,1-.06-1.1l.253-9.493a5.663,5.663,0,0,1,.134-1.107,1.625,1.625,0,0,1,.464-.851,1.364,1.364,0,0,1,1.024-.318,1.474,1.474,0,0,1,1.059.369,1.654,1.654,0,0,1,.42.878,5.864,5.864,0,0,1,.074,1.113l-.253,9.5a5.71,5.71,0,0,1-.134,1.092,1.649,1.649,0,0,1-.467.866,1.441,1.441,0,0,1-1.074.312A1.4,1.4,0,0,1,243.9,105.5Zm-33.211,146.18a3.124,3.124,0,0,1,.562,1.872,4.089,4.089,0,0,1-.179,1.443,1.739,1.739,0,0,1-.753.937,3.2,3.2,0,0,1-1.55.363l-1.327.045-.167-5.232,1.536-.048A2.183,2.183,0,0,1,210.692,251.679ZM195.961,70.146C104.605,86.073,38.839,152.217,49.034,210.7S153.2,301.421,244.557,285.491s154.408-69.54,144.213-128.022S287.32,54.219,195.961,70.146Zm108.7,42.635,1.44-3.181a3.658,3.658,0,0,0-.2-3.407l-1.8-2.988a.791.791,0,0,1,.765-1.193l3.47.387a3.662,3.662,0,0,0,3.178-1.244l2.288-2.637a.787.787,0,0,1,1.369.357l.705,3.419a3.668,3.668,0,0,0,2.163,2.64l3.217,1.36a.789.789,0,0,1,.08,1.414l-3.032,1.726a3.667,3.667,0,0,0-1.842,2.875l-.3,3.476a.791.791,0,0,1-1.321.518l-2.58-2.354a3.664,3.664,0,0,0-3.3-.863l-3.4.792A.79.79,0,0,1,304.663,112.781ZM287.469,93.5a11.33,11.33,0,0,1,4.1,1.437,3.941,3.941,0,0,1,1.747,2.39,8.675,8.675,0,0,1-.054,3.622l-1.336,7.035a8.872,8.872,0,0,1-1.289,3.437,3.974,3.974,0,0,1-2.494,1.625,11.01,11.01,0,0,1-4.306-.149l-5.3-1.006,3.684-19.388Zm-8.4-1.5-.4,2.946-4.773-.655-.664,4.851,3.637.5-.408,2.994-3.639-.5-.8,5.842,4.827.658-.4,2.922L267,110.272l2.675-19.551Zm-24.911,11.052,4.02-.208a8.4,8.4,0,0,0,.065,2.062,2.219,2.219,0,0,0,.524,1.17,1.464,1.464,0,0,0,.943.426.935.935,0,0,0,.988-.378,2.232,2.232,0,0,0,.307-.946,3.355,3.355,0,0,0-.44-2.107,9.54,9.54,0,0,0-1.539-1.839L257.341,99.6a9.674,9.674,0,0,1-1.821-2.327,5.157,5.157,0,0,1-.554-3.047,4.708,4.708,0,0,1,1.916-3.678,6.506,6.506,0,0,1,4.425-.943,5.885,5.885,0,0,1,2.663.771,3.916,3.916,0,0,1,1.434,1.536,5.6,5.6,0,0,1,.565,1.881,10.6,10.6,0,0,1,.057,1.851l-4.035.11a14.165,14.165,0,0,0,.018-1.53,2.007,2.007,0,0,0-.289-1.024,1.068,1.068,0,0,0-.851-.429,1.015,1.015,0,0,0-.991.426,2.011,2.011,0,0,0-.39.994,2.747,2.747,0,0,0,.4,1.827,10.435,10.435,0,0,0,1.339,1.58l1.613,1.586a11.249,11.249,0,0,1,2.1,2.675,5.919,5.919,0,0,1,.646,3.5,4.775,4.775,0,0,1-2.961,4.071,6.145,6.145,0,0,1-2.976.4,7.493,7.493,0,0,1-3.238-.946,4.336,4.336,0,0,1-1.818-2.2A8.909,8.909,0,0,1,254.157,103.059Zm-15.445-.768.2-7.33a9.011,9.011,0,0,1,.693-3.467,4.356,4.356,0,0,1,2.035-2.149,7.671,7.671,0,0,1,3.77-.67,7.841,7.841,0,0,1,3.767.869A4.376,4.376,0,0,1,251.11,91.8a9.068,9.068,0,0,1,.506,3.5l-.2,7.33a9.216,9.216,0,0,1-.69,3.467,4.435,4.435,0,0,1-2.05,2.184,7.8,7.8,0,0,1-3.812.678,7.64,7.64,0,0,1-3.729-.875,4.466,4.466,0,0,1-1.919-2.3A9.184,9.184,0,0,1,238.712,102.291Zm-11.781-13.13,4.66-.176.613,16.775,4.842-.176.11,2.946-9.5.345Zm-15.519,7.856a9.638,9.638,0,0,1,.182-3.562,4.412,4.412,0,0,1,1.7-2.482,7.6,7.6,0,0,1,3.678-1.217,7.685,7.685,0,0,1,3.714.307,4.06,4.06,0,0,1,2.074,1.788,7.588,7.588,0,0,1,.875,2.9l.19,1.693-4.532.506-.217-1.961a9.477,9.477,0,0,0-.19-1.1,1.6,1.6,0,0,0-.473-.842,1.377,1.377,0,0,0-1.1-.235,1.435,1.435,0,0,0-1.033.482,1.671,1.671,0,0,0-.339.961,6.96,6.96,0,0,0,.039,1.158l1.03,9.225a5.727,5.727,0,0,0,.25,1.187,1.648,1.648,0,0,0,.562.818,1.446,1.446,0,0,0,1.059.211,1.324,1.324,0,0,0,1-.467,1.685,1.685,0,0,0,.289-.949,8.326,8.326,0,0,0-.051-1.149l-.229-2.053,4.529-.509.188,1.7a7.974,7.974,0,0,1-.2,3.047,4.21,4.21,0,0,1-1.6,2.285,7.294,7.294,0,0,1-3.58,1.172,7.472,7.472,0,0,1-3.854-.39,4.435,4.435,0,0,1-2.208-2.053,9.505,9.505,0,0,1-.955-3.387Zm-31.127.949a13.711,13.711,0,0,1,3.666-.658,4.523,4.523,0,0,1,2.788.795,5.175,5.175,0,0,1,1.765,2.815,10.176,10.176,0,0,1,.429,2.134,3.907,3.907,0,0,1-.256,1.794,4.2,4.2,0,0,1-1.2,1.574l5.541,8.3-4.61,1.4-4.788-7.788-1.271.387,2.568,8.46-4.461,1.354-5.734-18.879Zm-17.192,5.9,4.985-1.848,10.549,17.132L174.6,120.64l-2.11-3.66-2.9,1.08.765,4.16-4.125,1.53Zm-12.552,5.121,1.25,2.7-4.369,2.03,2.062,4.44,3.33-1.547,1.271,2.741-3.33,1.547,2.485,5.348,4.416-2.053,1.241,2.672-8.645,4.017-8.309-17.9Zm-22.867,11.439,6.565,9.523-4.053-10.85,2.726-1.476,6.883,9.24-4.306-10.66,3.437-1.857,7.157,18.56-3.574,1.934-7.243-9.627,4.172,11.284-3.622,1.958-11.627-16.147ZM81.188,222.546q-7.508-4.928-9.826-18.215-4.428-25.39,20.269-29.7A41.4,41.4,0,0,1,103,174.143a26.579,26.579,0,0,1,8.216,1.878l2.744,15.751-15.117,2.637-.792-4.535a5.069,5.069,0,0,0-1.687-3.342,5.19,5.19,0,0,0-6.425,1.122,5.053,5.053,0,0,0-.455,3.714L92.8,210.4a5.06,5.06,0,0,0,1.687,3.339,5.195,5.195,0,0,0,6.425-1.119,5.072,5.072,0,0,0,.458-3.714l-.89-5.1,15.117-2.637,2.845,16.314a27.394,27.394,0,0,1-7.094,4.55,40.559,40.559,0,0,1-10.74,3.366Q88.7,227.466,81.188,222.546ZM125.3,245.689l-2.976,1.827a3.668,3.668,0,0,0-1.741,2.934l-.182,3.485a.791.791,0,0,1-1.3.562l-2.654-2.265a3.671,3.671,0,0,0-3.33-.753l-3.372.908a.792.792,0,0,1-.937-1.065l1.333-3.226a3.657,3.657,0,0,0-.315-3.4l-1.9-2.928a.791.791,0,0,1,.723-1.22l3.482.271a3.662,3.662,0,0,0,3.134-1.348l2.2-2.714a.79.79,0,0,1,1.384.312l.818,3.392a3.663,3.663,0,0,0,2.253,2.562l3.259,1.25A.791.791,0,0,1,125.3,245.689Zm-14.582-97.031-1.559,3.125a.789.789,0,0,1-1.417-.006l-1.533-3.137a3.664,3.664,0,0,0-2.753-2.018l-3.452-.515a.792.792,0,0,1-.434-1.351l2.512-2.428a3.666,3.666,0,0,0,1.065-3.241l-.574-3.443a.789.789,0,0,1,1.149-.827l3.083,1.637a3.672,3.672,0,0,0,3.413.015l3.1-1.613a.79.79,0,0,1,1.143.836l-.6,3.44a3.671,3.671,0,0,0,1.042,3.25l2.491,2.446a.792.792,0,0,1-.443,1.348l-3.458.488A3.661,3.661,0,0,0,110.721,148.658Zm12.124,61.3L126,209.41l-4.943-28.354-3.151.551-1.8-10.329,26.586-4.633,1.8,10.329-5.8,1.009,4.943,28.351,5.672-.988-1.012-5.8,12.537-2.184,2.812,16.129-39,6.8ZM158.2,263.413l.205-11.567-3.7,10.942-4.122-.738.765-19.078,3.964.708-.684,11.073,3.523-10.543,3.1.553-.25,11.055,3.2-10.555,3.91.7-5.848,18.171Zm21.132-13.305-4.868-.58-.557,4.663,3.711.44-.345,2.878-3.708-.443-.67,5.609,4.919.589-.333,2.8-9.627-1.146,2.238-18.784,9.576,1.14ZM200.1,267.356l-4.369-.158-.565-4.023-3.151-.119-.89,3.967-4.473-.167,4.755-18.751,5.4.2Zm-26.173-60.978q-7.325-4.959-9.639-18.248t2.9-20.435q5.214-7.142,16.742-9.151t18.852,2.943q7.325,4.955,9.639,18.251t-2.9,20.435q-5.214,7.138-16.745,9.148T173.925,206.378Zm41.713,46.656a9.494,9.494,0,0,1-.143,2.089,3.649,3.649,0,0,1-.732,1.6,4.217,4.217,0,0,1-1.592,1.164l3.235,9.053-4.9.158-2.631-8.395-1.351.045.274,8.472-4.741.152-.61-18.906,5.907-.19a14.865,14.865,0,0,1,3.77.3A4.6,4.6,0,0,1,214.649,250,4.725,4.725,0,0,1,215.637,253.033Zm12.082-3.455-4.871.542.512,4.663,3.714-.4.315,2.878-3.714.4.616,5.618,4.925-.539.307,2.809-9.636,1.056-2.065-18.8,9.588-1.05Zm-32.431-135.4-4.624-19.185,9.219-2.22.7,2.89L195.9,96.792l1.146,4.761,3.571-.86.708,2.937-3.571.86,1.381,5.732,4.738-1.143.69,2.869Zm55.675,144.293a4.091,4.091,0,0,1-1.357,2.393,7.858,7.858,0,0,1-3.47,1.6,8.051,8.051,0,0,1-3.931.146,4.4,4.4,0,0,1-2.461-1.669,8.7,8.7,0,0,1-1.345-3.095l-1.6-6.63a8.867,8.867,0,0,1-.223-3.416A4.324,4.324,0,0,1,238,245.2a10.186,10.186,0,0,1,7.344-1.857,4.01,4.01,0,0,1,2.294,1.428,6.9,6.9,0,0,1,1.208,2.64l.384,1.589-4.505,1.086-.443-1.839a8.46,8.46,0,0,0-.318-1.027,1.485,1.485,0,0,0-.574-.738,1.434,1.434,0,0,0-1.134-.074,1.524,1.524,0,0,0-.985.6,1.59,1.59,0,0,0-.235.958,6.514,6.514,0,0,0,.173,1.1l2.086,8.645a5.335,5.335,0,0,0,.39,1.1,1.383,1.383,0,0,0,1.753.765,1.385,1.385,0,0,0,.949-.577,1.562,1.562,0,0,0,.182-.943,7.323,7.323,0,0,0-.182-1.086l-.467-1.928,4.508-1.092.384,1.592A7.286,7.286,0,0,1,250.964,258.473ZM230.047,201.75a38.466,38.466,0,0,1-8.7-.917l-2.175-12.472,13.862-2.416a3.943,3.943,0,0,0,1.375,2.681,4.6,4.6,0,0,0,3.369.321,5.1,5.1,0,0,0,2.7-1.086,2.094,2.094,0,0,0,.536-1.946,2.281,2.281,0,0,0-1.122-1.592,9.7,9.7,0,0,0-3.092-.982l-5.746-.946q-7.459-1.428-11.136-4.485t-4.749-9.172q-1.295-7.432,2.913-12.159t15.608-6.714a46.968,46.968,0,0,1,10.493-.693,26.351,26.351,0,0,1,8.291,1.574l1.967,11.276-12.6,2.2q-.549-3.147-4.455-2.467a5.557,5.557,0,0,0-2.595.94,1.8,1.8,0,0,0-.5,1.8,2,2,0,0,0,1.208,1.544,12.936,12.936,0,0,0,3.223.8l5.812.934q7.075,1.1,10.761,4.193a14.434,14.434,0,0,1,4.708,8.948q1.393,8-3.276,13.034t-15.07,6.847A61.1,61.1,0,0,1,230.047,201.75Zm25.339,58.02-5.476-18.108,4.538-1.369,4.66,15.4,4.717-1.425.815,2.708Zm22.087-10.124a4.35,4.35,0,0,1-1.175,2.711,8.372,8.372,0,0,1-3.372,2.012,8.1,8.1,0,0,1-3.842.592,4.305,4.305,0,0,1-2.625-1.336,8.334,8.334,0,0,1-1.708-2.931l-2.39-6.609a8.17,8.17,0,0,1-.562-3.348,4.333,4.333,0,0,1,1.172-2.675,8.3,8.3,0,0,1,3.339-1.985,8.394,8.394,0,0,1,3.878-.619,4.275,4.275,0,0,1,2.622,1.3,8.3,8.3,0,0,1,1.711,2.931l2.39,6.609A8.428,8.428,0,0,1,277.473,249.647Zm13.927-5.258a4.77,4.77,0,0,1-1.113,2.345,6.5,6.5,0,0,1-2.491,1.747,7.928,7.928,0,0,1-3.342.75,4.293,4.293,0,0,1-2.643-.988,8.084,8.084,0,0,1-2.053-2.845l3.514-2.089a7.588,7.588,0,0,0,1.006,1.705,2.1,2.1,0,0,0,1.006.735,1.518,1.518,0,0,0,1.042-.089c.455-.193.693-.455.714-.789a2.072,2.072,0,0,0-.161-.949,3.082,3.082,0,0,0-1.36-1.559,9.268,9.268,0,0,0-2.223-.815l-2.265-.577a9.7,9.7,0,0,1-2.7-1.1,4.755,4.755,0,0,1-1.893-2.3,4.41,4.41,0,0,1,.036-4.017,6.959,6.959,0,0,1,3.541-2.9,6.3,6.3,0,0,1,2.75-.616,3.911,3.911,0,0,1,1.991.607,5.247,5.247,0,0,1,1.369,1.315,10.1,10.1,0,0,1,.9,1.536l-3.577,2.015a12.394,12.394,0,0,0-.684-1.3,1.873,1.873,0,0,0-.729-.729,1.132,1.132,0,0,0-.961.042,1.059,1.059,0,0,0-.7.833,1.846,1.846,0,0,0,.107,1.024,2.535,2.535,0,0,0,1.2,1.354,10.246,10.246,0,0,0,1.922.687l2.175.565a11.3,11.3,0,0,1,3.116,1.256,5.476,5.476,0,0,1,2.187,2.646A4.418,4.418,0,0,1,291.4,244.388Zm3.815.5-8.3-17,8.669-4.229,1.25,2.559-4.4,2.155,2.056,4.217,3.36-1.64,1.271,2.6-3.357,1.634,2.479,5.083,4.452-2.175,1.241,2.538Zm19.626-10.978a11.887,11.887,0,0,1-3.467,2.672l-4.782,2.684-9.264-16.489,4.735-2.66a12.241,12.241,0,0,1,4.113-1.6,3.914,3.914,0,0,1,2.866.613,7.993,7.993,0,0,1,2.232,2.669l3.363,5.99a8.124,8.124,0,0,1,1.146,3.33A3.956,3.956,0,0,1,314.841,233.91Zm-9.954-75.944-14.112,2.461-1.515-8.7-7.624,1.33,1.735,9.954,5.547-.964,1.253,7.178-5.547.967,1.955,11.216,7.624-1.33-1.738-9.951,14.115-2.461,3.535,20.283L267.59,195.37l-1.8-10.332,3.151-.551L264,156.136l-3.151.551-1.8-10.329,42.525-7.416Zm38.448,56.9-3.485.226a3.679,3.679,0,0,0-2.91,1.783l-1.788,3a.791.791,0,0,1-1.414-.11l-1.292-3.244a3.668,3.668,0,0,0-2.592-2.22l-3.4-.774a.79.79,0,0,1-.33-1.378l2.684-2.232a3.663,3.663,0,0,0,1.309-3.151l-.315-3.476a.79.79,0,0,1,1.208-.741l2.952,1.866a3.667,3.667,0,0,0,3.4.268l3.208-1.372a.791.791,0,0,1,1.08.92l-.863,3.384a3.666,3.666,0,0,0,.795,3.318l2.3,2.628A.79.79,0,0,1,343.335,214.865Zm13.626-41.013q-5.2,6.843-15.724,8.678l-25.578,4.461-1.8-10.332,3.151-.551-4.931-28.286-3.151.548-1.812-10.392,25.578-4.461q10.521-1.835,17.733,2.848t9.472,17.662Q362.161,167,356.961,173.852ZM181.62,106.314l-1.583-5.22,1.446-.44a2.077,2.077,0,0,1,1.949.149,3.393,3.393,0,0,1,1.045,1.744,4.423,4.423,0,0,1,.226,1.5,1.769,1.769,0,0,1-.461,1.134,3,3,0,0,1-1.375.762Zm156.837,41.647,3.318,19.025a5.081,5.081,0,0,1-.455,3.717A4.306,4.306,0,0,1,338.3,172.4l-3.654.637-4.943-28.351,3.654-.637Q337.645,143.3,338.457,147.962ZM284.4,109.933l-.717-.137,2.55-13.427.69.131a3.351,3.351,0,0,1,1.437.524,1.16,1.16,0,0,1,.458.878,5.648,5.648,0,0,1-.125,1.417l-1.6,8.445a7.5,7.5,0,0,1-.387,1.417,1.3,1.3,0,0,1-.738.753A3.048,3.048,0,0,1,284.4,109.933Z" transform="translate(0 0)" fill="#912c2c"/>
    <g id="그룹_1113" data-name="그룹 1113" transform="translate(36.39 55.365)">
      <g id="그룹_1112" data-name="그룹 1112" clip-path="url(#clip-path)">
        <path id="패스_1842" data-name="패스 1842" d="M293.405,327.826c-.2-.131-1.223.324-.836.574C292.775,328.534,293.8,328.079,293.405,327.826Zm65.65-76.411c1.726,0,2.562-.574,2.518-1.717C359.467,249.448,359.952,250.876,359.056,251.415Zm-238.6,103.8c-.205-.14-1.232.318-.839.571C119.82,355.918,120.838,355.466,120.454,355.213Zm223.582-37.537c.021-.295-.6-.565-.8.045C343.215,318.012,343.828,318.288,344.037,317.675ZM142.9,351.344c.214.137,1.235-.321.836-.571C143.529,350.639,142.514,351.1,142.9,351.344Zm150.418-22.456c-.205-.137-1.223.318-.833.571C292.685,329.6,293.709,329.141,293.316,328.888Zm-74.667-51.866c-.208-.134-1.226.321-.842.574C218.012,277.733,219.039,277.275,218.649,277.022Zm137.9-23.884c.205.134,1.223-.324.839-.571C357.175,252.433,356.154,252.885,356.547,253.138Zm-158.667,17.1c.211.137,1.223-.318.839-.571C198.508,269.532,197.493,269.987,197.88,270.237Zm207.144,26.693c-.161.637-1.512,1.283-.131,1.589C405.057,297.889,406.411,297.243,405.024,296.931Zm-32.806,4.961c.167-.637,1.518-1.283.131-1.6C372.185,300.93,370.84,301.579,372.218,301.891ZM261.4,323.246c-.208-.134-1.226.315-.839.568C260.766,323.951,261.784,323.49,261.4,323.246Zm-34.49-163.833c-.205-.137-1.223.321-.833.577C226.279,160.118,227.3,159.666,226.907,159.413Zm-2.393,113.595c-.205-.134-1.226.324-.839.574C223.88,273.713,224.9,273.261,224.514,273.008ZM338.743,314.8c3.991-.923,1.455-2.574,0,0ZM135.7,361.766c2.068-1.881-2.765,1.428,0,0Zm92.421-84.729c.208.131,1.232-.324.842-.574C228.761,276.323,227.74,276.781,228.124,277.037Zm44.626,4.949c.262-.339,2.146-2.152.179-2.122C272.667,280.206,270.78,282.013,272.75,281.986Zm-143.4,89.624c-.208-.131-1.22.324-.836.577C128.721,372.318,129.742,371.866,129.352,371.61ZM384.241,148.715c.033-.295-.589-.565-.792.045C383.425,149.051,384.041,149.325,384.241,148.715ZM159.161,279.745c.208.131,1.226-.321.842-.577C159.789,279.034,158.772,279.492,159.161,279.745ZM322.28,341.554c-.205-.134-1.226.327-.833.577C321.652,342.265,322.673,341.807,322.28,341.554Zm-30.69,8.008-1.589.089-.086,1.059,1.586-.086ZM118.458,379.067c.027-.295-.592-.568-.795.045C117.636,379.4,118.258,379.674,118.458,379.067Zm67.695-25.331c2.071-1.884-2.768,1.428,0,0Zm84.22-71.62c-.033.295.589.565.789-.045C271.191,281.777,270.566,281.507,270.372,282.117Zm-120.284,77.81c-.217-.131-1.229.321-.845.574C149.454,360.638,150.475,360.18,150.088,359.927Zm7.975-.961c.208.128,1.22-.321.842-.574C158.694,358.257,157.673,358.709,158.063,358.965Zm-26.458,4.61c-.208-.131-1.223.318-.836.574C130.968,364.283,131.992,363.825,131.6,363.575Zm2.074,3.577c-.217-.134-1.226.327-.839.574C133.045,367.86,134.063,367.4,133.679,367.152Zm25.842-6.684c.08-.565-.265-1.33-.753-.488C158.688,360.543,159.03,361.307,159.521,360.468Zm75.9-38.445c.03-.3-.592-.568-.789.042C234.6,322.362,235.224,322.633,235.424,322.023Zm-8-46.007a5.8,5.8,0,0,1-3.134-.357C222.9,277.207,227.6,276.936,227.425,276.016Zm-60.1,85.61c-.464.315-.113,1.08.744.485C168.538,361.8,168.19,361.031,167.324,361.626ZM282.365,289.9c.015-.292-.6-.565-.8.042C281.538,290.244,282.157,290.515,282.365,289.9Zm3.657,3.5c.074-.568-.262-1.33-.753-.491C285.186,293.479,285.528,294.24,286.022,293.4Zm-51.072,5.952c.033-.292-.592-.568-.795.042C234.129,299.692,234.751,299.966,234.951,299.353Zm53.536-7.142c-.842-2.625,7.809-1.976,5.821-3.485-.071.327-.173.634-.836.571-.6-.08-.881-.393-.708-1.012-1.872.262-3.044,1-5.595.83-.068,2.36-2.91,1.518-4.017.747C282.255,292.479,288.26,290.366,288.486,292.211Zm-48.149,8.96c2.294-1.732-2.541,1.577,0,0Zm87.089-11.615c-.027.295.6.568.789-.045C328.247,289.22,327.628,288.946,327.425,289.556Zm-96.614-82.333c.625-.155,1.562-.1,1.628-.613C231.814,206.762,230.877,206.708,230.811,207.223Zm-43.445,103.7a3.319,3.319,0,0,0,1.458,1.5C189,311.712,187.819,309.572,187.367,310.923Zm59.8-15.93c.208.131,1.226-.324.833-.574C247.8,294.282,246.786,294.74,247.169,294.993Zm23.727-9.74c.024-.295-.592-.568-.792.042C270.075,285.593,270.7,285.863,270.9,285.253Zm24.959-5.586c2.071-1.881-2.771,1.428,0,0Zm8.642.586c-.2-.137-1.226.321-.833.571C303.872,280.962,304.889,280.507,304.5,280.254Zm24.959,3.916c4.217-.991,4.232-4.7,8.38-5.737-3.726.051-2.976-2.964-4.363-4.508-1.28,2.381-.327,2.726.4,4.726C333.443,281.17,331.145,282.474,329.455,284.17ZM186.263,314.682c.08-.568-.262-1.33-.744-.491C185.432,314.753,185.774,315.518,186.263,314.682Zm105.89-28.476c.08-.565-.262-1.324-.75-.485C291.319,286.28,291.659,287.042,292.153,286.206ZM181.5,305.439c-.622.152-1.562.1-1.622.616C180.5,305.9,181.442,305.953,181.5,305.439Zm48.944,9.993.089-1.059c-.8.045-.9-.378-1.544-.443C229,314.756,228.734,315.771,230.445,315.431Zm122.064-23.548c-1.91.437-3.753.914-4.145,2.336,1.658.077,1.616,3.845,3.8,1.9C350.557,295.755,351.628,292.479,352.509,291.884ZM174.088,328.007c-.116-.634-.857-.28-1.586.089C172.463,328.629,173.829,328.683,174.088,328.007Zm158.051-28.678c.08-.568-.262-1.33-.756-.488C331.309,299.406,331.651,300.165,332.139,299.329ZM227.184,316.666c.628-.152,1.559-.1,1.628-.613C228.186,316.2,227.249,316.146,227.184,316.666ZM332.8,291.372c.024-.289-.592-.565-.789.048C331.981,291.711,332.6,291.985,332.8,291.372Zm-95.567,27.914c-.113-.634-.851-.28-1.583.083C235.611,319.9,236.986,319.961,237.233,319.285ZM378.3,295.225c.027-.295-.589-.571-.789.042C377.488,295.559,378.1,295.832,378.3,295.225ZM169.145,330.388c-.205-.134-1.223.321-.836.577C168.512,331.1,169.532,330.638,169.145,330.388ZM390.918,210.625c.89-.1,1.17.7,1.583-.086C392.537,210.006,391.168,209.946,390.918,210.625Zm-14.284,85.746c-.262.339-2.155,2.146-.179,2.122C375.777,297.544,378.976,296.591,376.634,296.371ZM155.656,321.624c.208.134,1.226-.318.836-.574C156.29,320.916,155.266,321.374,155.656,321.624Zm197.7-39.814c-.6,1.744.339,2.434.485,3.663-.792,1.024-4.38,3.068-2.687,3.845C354.8,287.661,356.639,283.872,353.354,281.81ZM221.107,313.833c.015-.295-.6-.568-.806.042C220.28,314.17,220.9,314.441,221.107,313.833Zm-40.576,3.27c-.256.762-1.381.961-1.717,1.675C180.4,319.157,182.489,317.208,180.531,317.1Zm-1.809,2.732c.027-.295-.589-.565-.792.048C177.9,320.175,178.519,320.449,178.722,319.836Zm-2.467,1.193c-.259.336-2.149,2.146-.184,2.119C176.329,322.812,178.219,321,176.255,321.029Zm47.623,72.87c1.378-.625,4.139-2.282,1.021-2.7C224.842,391.994,221.768,393.53,223.877,393.9Zm-18.43,3.116c2.071-1.887-2.768,1.425,0,0Zm16.8-2.5c-.205-.14-1.226.321-.839.571C221.616,395.22,222.633,394.765,222.25,394.515Zm-22.274,1.741c-.205-.137-1.22.324-.827.571C199.353,396.964,200.368,396.506,199.975,396.256ZM357.017,285.307l-.092,1.056,1.592-.089.083-1.056ZM301.363,289.4c-.208-.134-1.22.318-.836.571C300.735,290.1,301.756,289.649,301.363,289.4ZM210.7,390.917c-2.41-.122-6.255,3.693-2.687,3.845C209.046,393.575,209.111,391.753,210.7,390.917Zm6.654-79.524c-.208-.131-1.226.324-.836.577C216.723,312.107,217.741,311.649,217.351,311.393Zm85.556-21.554c.205.134,1.223-.324.845-.574C303.532,289.131,302.52,289.583,302.907,289.839Zm18.7-6.3c-.729,1.869.729,4.788,2.071,3.58C322.066,286.563,323.429,283.959,321.6,283.542Zm-152.575,114.4c.018-.3-.6-.568-.8.045C168.2,398.285,168.824,398.553,169.029,397.946Zm53.155-49.872c-.214-.134-1.226.324-.836.577C221.562,348.779,222.574,348.327,222.184,348.074ZM357.4,290.035c.205-.869,2.9-2.884,1.065-3.226C358.014,287.506,356.19,290.089,357.4,290.035Zm-109.684-39.4c2.071-1.881-2.773,1.428,0,0Zm-3.881-.842c-2.461.205-.768,2.271.753.485C244.89,249.921,244.274,249.751,243.839,249.79ZM358.505,399.741c-.033.295.586.568.789-.042C359.321,399.4,358.7,399.131,358.505,399.741Zm-32.142-21.992c.631-.155,1.571-.1,1.637-.619C327.372,377.282,326.432,377.231,326.363,377.749ZM286.3,337.185c-.074.568.262,1.327.753.488C287.138,337.108,286.8,336.343,286.3,337.185Zm76-49.006c.2.137,1.223-.318.839-.571C362.933,287.473,361.919,287.926,362.305,288.179ZM148.43,398.541c-.205-.134-1.226.321-.839.574C147.8,399.25,148.817,398.794,148.43,398.541Zm74.56-69.51c.628-.152,1.562-.1,1.628-.616C223.988,328.567,223.056,328.513,222.991,329.031Zm31.041-2.747c.208.134,1.22-.321.839-.571C254.666,325.573,253.639,326.032,254.032,326.284ZM138.911,389.563c.229-.33-.226-1.1-.705-1.018C137.485,388.664,137.554,391.5,138.911,389.563Zm202.147-111.83c-.625.152-1.568.1-1.634.613C340.046,278.2,340.992,278.248,341.058,277.733ZM139.571,391.114c-.211-.14-1.223.318-.833.565C138.946,391.813,139.961,391.364,139.571,391.114Zm90.365-201.784c.229,1.312,1.786-.976,1.72-1.675l-3.178.173c-.964.679-1.053,1.922-1.059,3.223C230.168,191.722,228.05,189.222,229.936,189.329Zm72.224,90.523c-.2-.134-1.22.324-.836.574C301.532,280.557,302.547,280.105,302.16,279.852Zm-137.881-4.61c.021-.3-.592-.571-.795.045C163.464,275.579,164.077,275.853,164.28,275.242Zm65.963-80.122c.229-.327-.238-1.1-.708-1.018C228.814,194.222,228.886,197.058,230.243,195.12ZM145.487,377.065c-.205-.134-1.226.321-.836.574C144.859,377.773,145.874,377.318,145.487,377.065Zm167.038-98.3c-.372-.744,1.158-2.791-.574-2.607C312.106,277.061,309.186,279.132,312.525,278.76Zm23.417-6.029c-.027.3.6.571.795-.042C336.764,272.395,336.148,272.121,335.942,272.731Zm-105.7-87.115c-.113-.628-.851-.277-1.589.089C228.621,186.24,230,186.294,230.246,185.616Zm71.177,169.216c.077-.062,3.375-2.479.923-1.634C302.684,353.085,299.533,356.335,301.422,354.832ZM296.6,289.661c.625-.158,1.565-.107,1.631-.622C297.607,289.19,296.664,289.143,296.6,289.661ZM162.459,391.441c2.3-1.729-2.535,1.583,0,0Zm15.65,1.789c.03-.3-.592-.568-.792.039C177.287,393.566,177.915,393.836,178.109,393.229ZM355.253,278.01c.205.137,1.232-.321.836-.574C355.881,277.3,354.869,277.76,355.253,278.01Zm-177.8,113.672c-.205-.137-1.223.321-.839.574C176.82,392.387,177.838,391.932,177.451,391.682Zm176.26-114.115c-.536,1.375-1.211,1.911.574,2.61C353.914,279.432,355.44,277.382,353.711,277.567ZM149.225,398.5c.208.134,1.226-.321.836-.571C149.862,397.788,148.841,398.247,149.225,398.5Zm43.751-12.945a1.757,1.757,0,0,1-1.5-.973c.8-.048,1.071-.979.092-1.059C190.3,384.585,191.238,387.04,192.976,385.555Zm-6.4-167.964c.6-.2.655.211.976-.158-.238-.378-.336-.928-.949-.869C186.414,216.8,186.483,217.186,186.578,217.591Zm-36.46,5.943c-.545-.7-1.378-1.646-2.253-1.506-1.919.309-1.4,2.431.271,2.845C148.817,224.439,149.951,224.278,150.118,223.534Zm56.756-6.7a17.266,17.266,0,0,1,.479-1.949c-.789.057-.024-.58-.723-.732l-.777.128a6.649,6.649,0,0,1-.509,1.78C206,216.157,205.948,217.061,206.873,216.835ZM93.213,231.783c.089.5-.955.321-.866.821.6-.179.619.327.89.536.375-.024.4-.256.753-.295C93.442,232.4,93.892,232,93.213,231.783Zm.229-9.553a2.289,2.289,0,0,0,2.169-.184C95,220.918,94.1,222.225,93.442,222.23Zm21.423,19.45c-.179-1.03.277.009.613.068-.089-.554-.182-1.1-.943-.866C114.681,241.109,114.449,241.779,114.866,241.681Zm-8.794-9.615c-.006.205-.2.14-.39.065l.11.664.39-.062C106.518,232.795,106.37,231.9,106.072,232.066Zm61.761-11.588c.687-.348,2.265-1.637.9-1.851C168.166,219.085,167.637,219.558,167.833,220.478Zm47.111-10.567c.574-.217.622.19,1.2-.027C216.081,209.4,214.887,209.39,214.944,209.91Zm5.726,11.645-.786.128c.06.452.381.277.107.658C220.666,222.35,220.663,221.948,220.669,221.555ZM98.644,247.722c-.125-.372.536-.277.5-.592-.655.256-.714-.146-.473-.432-.574.015-.705-.488-1.446-.274.3.485.164.423-.062.86C97.728,247.35,98.085,247.653,98.644,247.722ZM155.227,235.1c-.387-.009-.548-.277-1.03-.17l.217,1.321c.518-.083.574.381.89.536C155.8,235.976,155.081,236.131,155.227,235.1ZM87.235,246.522c0-.342.315-.5.473-.756-.283-.193-.937.048-1.223-.143.491.705-1.271.815-.616,1.122C86.071,246.207,86.663,246.838,87.235,246.522ZM197.684,218.16c.4.539-.649.208-.506.6.875-.068-.417.3.473.432-.47.259-1.009-.351-1.17.19.411.173.664.539,1.277.47.223-.705.735-1.178.509-1.783Zm7.972,4.648a1.958,1.958,0,0,0-1.143.357c.122.646.426,1.08,1.333.8C206.231,223.361,205.984,223.343,205.656,222.808ZM93.666,238.166c-.7.36-.449-.393-1.03-.173a.944.944,0,0,0,.333.795C93.457,238.738,93.535,238.437,93.666,238.166Zm57.381-17.507c-.11-.926-.753-1.223-1.949-.869a1.54,1.54,0,0,0,.69,1.753,2.063,2.063,0,0,0,1.086-.684C150.183,221.04,150.558,220.6,151.046,220.659Zm29.928-16.43c.577.17.726.851,1.693.574.354-.333.315-.9.146-1.553C181.861,202.8,181.215,203.468,180.974,204.23ZM98.594,221.9a.855.855,0,0,0-.9.655,1.351,1.351,0,0,0,1.17-.19C98.638,222.373,98.615,222.138,98.594,221.9Zm80.214-11.371c.039-.577-.426-.553-.89-.536a.714.714,0,0,1-.116.533A1.482,1.482,0,0,0,178.808,210.529Zm-20.3,1.949c-.937-.253-2.559.2-2.425,1.074C156.81,214.056,159.09,213.949,158.5,212.479Zm-27.726.61c-.241-.116-.2-.348-.11-.664l-.976.161a.934.934,0,0,0,.75.9C130.406,213.261,130.757,213.276,130.778,213.089Zm75.509,3.842c-.286.074-.726.057-.75.292.25.054-.027.643.357.961a1.055,1.055,0,0,0,.923-.491c-.31,0-.2-.342-.08-.494C206.025,217.4,206.29,217.555,206.287,216.931Zm-38.868-6.243-.083-.5c-.494.1-.631.411-.89.655C167.047,210.646,167.1,211.056,167.419,210.687Zm20.111-3.107c2.69.333,3.779-2.595,1.991-3.723a4.194,4.194,0,0,0-2.815,1.14C186.584,206.2,187.1,206.6,187.53,207.58ZM147.9,212.505c-.372.021.065-.289-.25-.3-.012.431-.461-.2-.47-.432-.429.039-.6.235-.5.592a1,1,0,0,0,.557-.262C147.192,212.443,147.895,212.865,147.9,212.505Zm-1.634-1.431c.872-.369.833-1.289,1.283-1.908a3.134,3.134,0,0,0-3.916-.723c.461.732.455.1.911.7-.182,1.318.565,1.863-.366,2.607.827,1.259.994.4,2.613.083C146.847,211.306,146.2,211.6,146.264,211.074Zm24.45,5.023c-.054-.667-.521-.836-1.3-.637a2.934,2.934,0,0,0,.744.9C170.16,216.16,170.434,216.127,170.714,216.1Zm-12.787,2.595a2.266,2.266,0,0,0,1.476.437c.012-.414-.417-.3-.33-.795C158.745,218.484,157.891,218.32,157.926,218.692Zm-22.007,3.756a.94.94,0,0,0,1.446.271C137.387,222.04,136.551,222.364,135.92,222.448Zm12.213-4.88a1.954,1.954,0,0,0-1.2.024c-.021.137.048.33-.143.363.092.417.39.6.89.536A.906.906,0,0,0,148.133,217.567Zm28.723-6.719c.083-.559-.562-.262-.693-.568.667-.646.774-1.619,1.2-2.4-.375.113-.423-.161-.637-.238-.229.818-1.324.045-2.366.217-2.092.851-.14,3.22-.545,4,.515-.125,1.241.53,1.559.934C176.892,212.55,176.317,211.348,176.856,210.848Zm-5.836,5.88a2,2,0,0,0,1.306-.553c-.458.077-.619-.193-1.2.027A.728.728,0,0,1,171.02,216.728Zm18.346-7.749c-.455.006-.122-.911-.726-.732C188.054,208.744,189.209,209.4,189.366,208.979Zm-27.988,2.693c.625.958-.646,1.5.214,2.512l1.167-.19C163.706,213.041,163.241,210.735,161.378,211.672Zm262.789,50.474a1.033,1.033,0,0,1-.616-.065l.054.33c-.113.03-.226.062-.167.2,1.232-.25,1.339-.937,2.675-.783.092-.116.33-.857-.134-.824-.678.64.146-.369-.25-.3-.152.533-.33-.5-.667-.4-.622.455-1.753-.173-2.449-.28C423.236,260.86,424.093,261.119,424.168,262.146ZM408.14,364.176c-.015-.089-.187-.164-.19.03.881.253.705-.5,1.586-.089,0-.333-.321-.283-.473-.431a2.344,2.344,0,0,0,1.119-1.711,7.606,7.606,0,0,1-3.035-.187C407.607,362.513,408.408,363.036,408.14,364.176Zm-17.632,3.553c-.009-.973-1.17-.6-1.75-.9C388.9,367.649,389.779,367.6,390.508,367.729Zm-61.925,10.6c.783-.429,1.729-.756,1.512-1.777-.554-.006-.768-.411-1.443-.274C328.577,376.987,327.664,377.895,328.583,378.329Zm71.95-10.535a4.232,4.232,0,0,0,1.53-.423c-.259-.8.434-1.027.313-1.747C400.325,364.364,398.459,366.542,400.533,367.795Zm22.953-5.27c-.58.292-.515-.182-.833-.2a.74.74,0,0,1-.113.527C422.826,363.036,423.54,362.947,423.486,362.524ZM184.828,232.491c.872-.4,1.387-2.7-.661-2.782A2.123,2.123,0,0,0,184.828,232.491Zm61.1,155.736c.494-.1.717-.366.67-.792a5.163,5.163,0,0,0-1.056-.333C245.479,387.953,246.244,387.528,245.929,388.227ZM185.138,344.94c0-.348.473-.411.476-.759-.6-.021-1-.042-1.17.19C184.855,344.354,184.611,345.1,185.138,344.94ZM417.856,316.2c-.068-.125-.06-.324-.247-.3a.837.837,0,0,0,.3.631c.72-.113.783-.622,1.033-1.018a1.423,1.423,0,0,1-.973.158C417.972,315.872,418.082,316.134,417.856,316.2Zm-1.021,21.748c-.533.164,0-.926-.53-.762-.235.256.012.8-.226,1.053C416.368,338.167,416.811,338.182,416.835,337.947Zm-11.984,28.125c.467-.024.244.765.887.536l-.107-.661C405.262,366.09,404.328,365.786,404.851,366.072ZM280.984,401.717c-.036-.42-.381-.467-.69-.562-.217.232.021.634.33.792C280.642,401.809,280.752,401.728,280.984,401.717Zm56.571,7.948c.452.42,1.723-.339.893-.661-.089.518-.357-.33-.806-.033C337.612,409.2,337.415,409.332,337.555,409.665Zm24.435-30.324a1.867,1.867,0,0,1,1.36.97c.36-.083.634-.214.726-.458C363.332,379.743,362.645,378.353,361.99,379.341Zm1.065,22.259c.009-.208.2-.137.387-.063-.539-.521-.143-.979-1.164-1C362.329,401.136,362.573,401.508,363.055,401.6ZM159.426,439.2c-.979.065.187-.119.14-.363-.476-.3-.539.3-1.143.357.11.464.018,1.164.58,1.092-.256-.5.607-.327.476-.756C158.667,439.638,159.423,439.427,159.426,439.2Zm39.888-7.008-.78.128c-.161.6.908.75,1.056.336C199.362,432.663,199.335,432.427,199.315,432.189Zm80.491-26.711c-.08.446-.164.809.357.964a3.044,3.044,0,0,1,1.5-.586c-.33-.333.4-.708-.107-.664C281.3,405.68,280.511,405.121,279.806,405.478ZM453.289,366c.676-.241.664-.9.759-1.485l-.583.1C453.807,365.316,452.56,365.512,453.289,366ZM127.968,423.25c.574.051.464-.315.946-.321.042.809,1.4,1.1,1.916.705-.292.015-.244-.369-.3-.631-.955.268-1.411-.054-1.7-.571C128.626,422.756,127.936,422.786,127.968,423.25Zm42.216-3.818c1.863-.074,1.205-1.658,1.345-2.771-.6.182-.586-.36-1.059-.336C169.461,417.018,169.791,418.631,170.184,419.432ZM450.471,286.923c-.033-.22.318-.205.336-.4-.408.021-.286-.583-.7-.565-.2.6-.919-.521-.946.324C449.754,286.319,449.692,287.119,450.471,286.923Zm-146.5,85.389a1.455,1.455,0,0,0,1.893-.649c-.384-.006-.256-.619-.86-.372C304.877,371.767,304.113,371.851,303.97,372.312ZM298.884,247.9c.53-.1.437.208.783-.128C299.714,247.106,298.625,247.281,298.884,247.9Zm59.234-30.556c.012.446.363.5.863.369-.018-.44-.19-.7-.7-.565C358.291,217.246,358.291,217.344,358.118,217.341ZM154.561,250.51c-.467.018-.521-.446-.89-.539.1.309-.158.4-.086.7C153.721,250.739,154.576,250.9,154.561,250.51ZM436,230.652c.771.238.738-.985.083-.693C436.175,230.265,435.919,230.358,436,230.652ZM170.526,272.04c-.018-.208-.009-.4.33-.393-.065-.58-.324-.937-1.11-.67C169.488,271.341,170.077,271.9,170.526,272.04Zm254.2-68.442c.646-.062.908-.348.866-.818a7.2,7.2,0,0,0-1.223-.146c.1-.015.2-.167-.027-.161C423.918,202.965,424.674,203.087,424.727,203.6Zm-54.122,9.329c-.083-.693-.527-.961-1.336-.8-.08.494.348.387.333.795-.44-.187-1.268-.583-1.806-.045a1.9,1.9,0,0,0,1.217,1.333C369.239,213.559,369.647,212.7,370.605,212.928Zm-99.858,8.794c1.131-.128,1.9.366,2.559-.247C273.7,219.549,269.4,220.338,270.747,221.722ZM273.4,258.5c.47-.5.506-.765-.164-.994C273.187,257.884,272.568,258.432,273.4,258.5Zm-49.953-22.45c.08.565.678.524,1.116.67C224.532,236.107,223.937,236.149,223.452,236.053Zm167.374-25.575c-.134-1.027-1.381-.747-2.169-1A2.674,2.674,0,0,0,390.826,210.479Zm40.231,54.628c.369.092.426.556.89.533a.775.775,0,0,0-.524-.765C431.646,265.2,430.39,264.8,431.057,265.107Zm-3.012,2.363c.461-.077.527-.384,1.14-.36a.733.733,0,0,1,.116-.53C428.6,266.241,428.206,267.026,428.045,267.47Zm-82.616,13.8c.012.443.357.5.86.369C346.275,281.191,345.932,281.135,345.429,281.269Zm54.08-5.928c.259-.039.226.265.446.271.342-.384.6-.583.223-1.056Q399.443,274.707,399.51,275.341Zm11.624-3.592c.827.67,2.351.53,2.863,1.574a7.145,7.145,0,0,0,2.086-.681c.06-.527-.295-.568-.357-.961-.622.381-.592.074-1.03-.17C414.1,272.475,412.172,270.88,411.133,271.749Zm18.2,2.3c-.964.521-.122-.1-.446-.268C426.992,272.778,428.289,276.028,429.331,274.052ZM417.142,247.49c.693.848,2.28,1.2,2.024,2.559a2.816,2.816,0,0,0,1.449.274c.205-.553-.768-.994.033-1.024C419.814,248.552,418.451,245.154,417.142,247.49ZM415.981,261.1c.327.259.908-.414,1.4-.057-.077-.244-.033-.622-.3-.631C417.466,261.1,415.9,260.607,415.981,261.1Zm-277.16,32.413c-.292.089.021.277.253.3-.226-.6.765-1.4-.417-1.295.223.4-.637.89-.033,1.027C138.61,293.458,138.753,293.336,138.821,293.517ZM89.11,250.635c-.012.277.342.4.423.1-.622-.512-1.306-.622-1.527-1.961-.619-.226-.994.006-1.419-.107-.214.369-.033.976-.173,1.387.887.051.64-.107,1.339-.39.268.92,1.083.179.827,1.4C88.973,251.049,88.934,250.775,89.11,250.635Zm339.025,14.948c.086.268-.857,1.089.327.795.384-.443-.765-.577.036-1.024-.679-.045-.149-.292-.333-.795-.161-.015-.384.054-.414-.1.506-.137.676.125.69.565.268-.134,1.042.03.952-.321-.792-.167.271-1.027-.809-1.232.036.369-.429.434-.917.491-.06-.393-.42-.434-.36-.961a.6.6,0,0,1,.78-.128c-.372-.458-.039-.652-.36-.958a1.476,1.476,0,0,0-.946.321C426.566,263.788,427.819,264.607,428.135,265.583ZM141.482,233.1a2.943,2.943,0,0,0-1.309.554c.649-.369.211.545.664.4C140.663,233.5,141.342,233.458,141.482,233.1Zm159.5,140.553c1.059-.1.678-1.44-.217-1.324.033.318-.625.22-.5.592C300.684,372.946,301.044,373.05,300.985,373.648ZM126.823,400.5c-.375-.229-.863.238-1.122.521C126.21,401.324,126.543,400.764,126.823,400.5Zm48.816-5.068c.146-.19.31-1.521-.417-1.289C174.969,394.652,175.189,395.387,175.639,395.429Zm106.28-22.072c-.7-.107-1.2-1.476-2.116-.676.821.089,1.021,1.934,2.056,1.536C280.883,374.059,282.169,373.91,281.919,373.357ZM90.249,251.468c-.6.247-.473-.363-.857-.369.042.274-.53.182-.533.429C89.181,251.561,90.008,251.992,90.249,251.468Zm60.6,140.523c0,.2-.28.232-.556.262a.785.785,0,0,0,.747.9C150.99,392.857,151.4,392.1,150.847,391.991Zm3.035,7.5c-.042-.568-.863-.738-1.253-.31.012.515.756.167.89.536C153.543,399.58,153.65,399.5,153.882,399.488Zm109.1-9.791c.524.571,1.4,1.765,2.556.94C265.471,390.111,263.912,388.641,262.986,389.7ZM154.662,407.856c-.756-.187.265-.515.057-.86-.286-.443-.681-.452-1.223-.14C153.739,407.237,154.3,408.263,154.662,407.856Zm-33.422,4.937c-.027.137.045.327-.14.357-.339.223-.735-.384-.786.128.726.009.783.806,1.7.577l-.19-1.158ZM92.815,397.03c-.214.613-.351,1.753.687,1.756C93.692,397.964,93.35,397.146,92.815,397.03Zm207.078-20.316c-.217.054-.345-.187-.393.065a.851.851,0,0,0,1.116-.524c-.122.015-.235.012-.223-.131l-.387.065C300.006,376.386,300.113,376.651,299.893,376.713ZM120.044,411.629c-.045-.67.708.071.5-.6-.381-.268-1.913.033-1.7.619C119.353,411.415,119.725,411.236,120.044,411.629Zm141.193-22.84c-.116-.652-.562-.917-1.336-.8-.357.482.3.961.78,1.065C260.683,388.858,260.957,388.819,261.236,388.789Zm-44.569-32.333c-.176.19-.036.884.527.768C217.155,356.8,217.1,356.412,216.667,356.457Zm231.8-36.749a1.511,1.511,0,0,1-1,0c-.485,1.476,1.351,2.4,1.384,2.318C448.576,321.407,449.343,320.449,448.466,319.708ZM413.9,322.621c-.473,1.039-.827-.292-1.306.554.619-.065.634.568,1.443.274ZM162.2,411.046c-.354-.062-.887-.914-1.25-.3.521.068-1.58.574-.286.723C160.384,410.733,162.134,411.57,162.2,411.046Zm274.077-92.409c-1.809-.027-2.6-2.146-4.616-1.289,1.089,1.622,3.083,3.223,5.449,2.681C436.586,319.741,435.973,319.342,436.273,318.637Zm-19.691-4.1c0-1.4-1.9-.857-2.089-.509.318-.048-.158.985.387,1.128C415.844,315.187,415.621,314.5,416.582,314.536ZM406.488,318.9c.512.434-.369,2.2,1.274,1.664C407.592,319.711,407.241,319.074,406.488,318.9Zm10.96,3.315c.009.092.185.164.19-.033-.375.039-.223-.521-.664-.4,0,.2.11.464-.116.527-.28-.312.012-.664-.553-.928.375-.42.327-.717-.164-.994.842-.423.693-.306-.083-.5.307-.062.083-.443.536-.426.015.092.187.161.193-.033-.417-.1-.881-.149-1.083-.5.4-.809-.61-1.589-.244-2.681-.134-.074-.988-.235-.973.161a27.029,27.029,0,0,1,1.089,6.621C416.645,323.222,416.555,322.493,417.448,322.214Zm-3.327,11.418c-.917.357-1.053-.211-1.643-.241C412.511,334.04,413.993,334.313,414.121,333.632ZM100.674,386.4c-.693-.3-.72-.089-1.369.223.179.381.309.821.923.7A.926.926,0,0,0,100.674,386.4Zm55.678-8.392c-.182.336-.994.292-1.315.551a1.31,1.31,0,0,0,2.035.184C156.98,378.326,156.62,378.225,156.352,378.011ZM398.114,341c-.539-.045.31-.848-.521-.762C397.09,340.6,397.974,341.449,398.114,341Zm26.092-9.347c-.036-.765.149-.61.423-1.089-.685.167-1.006.17-1.143.354C423.9,330.96,423.739,331.665,424.206,331.65Zm9-3.678.11.664C434.092,328.644,433.94,327.722,433.208,327.972ZM127.489,385.09c-.235.259-.077.753-.009,1.19.6.015,1.39.443,1.812.048C128.986,385.57,128.8,384.671,127.489,385.09Zm60.172-37c-.417-.235-.434-.937-1.309-.634-.057.53.42.432.36.958C186.98,348.288,187.753,348.452,187.661,348.095ZM98.3,444.908a4.552,4.552,0,0,0,2.4-1.238A2.043,2.043,0,0,0,98.3,444.908Zm3.157,3.4c-.455.074-.616-.193-1.193.024a.733.733,0,0,1-.113.53A1.975,1.975,0,0,0,101.459,448.3Zm224.368-36.9c.065.122.06.324.253.3a1.308,1.308,0,0,0,.42-1.086c-.714.027-1.309.887-1.036,1.018C325.485,411.5,325.6,411.415,325.827,411.406ZM98.433,446.926c-.568-.092-1.738-.054-1.925.485.113-.018.247.1.027.164-.128-.211-.309-.955-.69-.568.119-.009.232-.012.22.137.024.211-.208.271-.113.524,1.214-.036,1.643.717,2.592-.077C98.052,447.64,98.391,447.036,98.433,446.926Zm73.983-21.23.08.494c.348.015.461-.324.586-.1-.107.018-.2.17.03.167-.024-.211.211-.268.113-.527C172.859,425.83,172.761,425.616,172.416,425.7Zm138.5-16.108c-.06-.72-.985-1.14-1.28-.473C310.32,408.969,310.145,409.832,310.912,409.588Zm7.282-4.416c.042.521-.923.44-1.5.583.223.485-.256.545-.036,1.027C317.941,407.216,319.489,405.767,318.194,405.172Zm56.791,6.889a1.988,1.988,0,0,0-1.419-.11c.08.44.057,1,.557.934C374.093,412.415,375.215,412.641,374.986,412.061Zm-57.291,16.817c.524.458,1.646.03,2.369-.217-.036-.75-.649-.821-1.5-.607-.03.3.36.375.08.5-.042-.506-.824-1.616-.327-1.988C316.8,427.062,318.682,427.8,317.694,428.877ZM139.762,442.572c-.3-.185-1.417-.1-1.342.387.577-.018.58.637,1.116.667C139.7,443.143,140.217,443.093,139.762,442.572ZM266.9,434.091c-.5-.271-.714-.869-1.193-1.164l-.973.158a1.915,1.915,0,0,0,.857,1.559C266.039,434.094,266.748,434.826,266.9,434.091Zm-.426,2.279c-.173,1.744,2.634,1.634,4.476,1.652A9.957,9.957,0,0,0,266.474,436.37ZM99.585,451.5a1.087,1.087,0,0,0-1.533.42C98.4,452.568,99.674,452.285,99.585,451.5Zm36.707-20.26c-.6.092-.97.315-1.083.69.3-.006.187.342.08.5.53-.071.342-.339.774-.128A3.551,3.551,0,0,1,136.292,431.237Zm26.072-13.082c0,.318-.333-.039-.363.232.634.062-.533.247-.307.559.283,0,.28.324.47.428a1.49,1.49,0,0,1,1.006.012c.057-.265.217-.467.28-.729C162.792,418.837,162.786,418.259,162.363,418.155Zm7.428,1.339c-.914.122-.717-.321-1.583.089.012.583-.036,1.03.437,1.455C169.342,420.714,169.306,419.95,169.791,419.494Zm-42.442,4.874c-.22.437-.36.378-.06.863C128.1,425.2,127.8,424.446,127.349,424.369Zm109.684-24.5c-.271-.256-.795-.646-1.223-.143C235.751,400.214,236.9,400.273,237.034,399.872ZM95.576,428.362c-.408.012-.577-.25-.866-.372-.3.655-1.536,1.4-.842,2.178C94.919,429.853,95.16,429.053,95.576,428.362Zm-1.839,8.282c-.384-.006-.551-.277-1.03-.173.17.952.336.753.494,1.789A1.087,1.087,0,0,0,93.737,436.644ZM374.548,379c.917.226.845,1.312,1.44,1.464C376.542,379.665,375.045,378.549,374.548,379ZM105,422.4c.015.44.071.836.7.565C105.563,422.667,105.51,422.274,105,422.4Zm54.982-8.957c-.884-.113-.223-.884-1.5-.61a1.527,1.527,0,0,1,.22,1.327C159.227,413.715,159.429,413.935,159.986,413.447Zm11.412,9.7c.027.006.045.027.071.036l.1-.092C171.511,423.1,171.449,423.122,171.4,423.143Zm.36-.229a2.2,2.2,0,0,0-.193.173C171.678,423.056,171.776,423.021,171.758,422.914ZM319.84,395.726c-.354-.217-.164-.509-.137-.827a1.916,1.916,0,0,0-1.419,1.08,3.929,3.929,0,0,1,1.083.5C319.108,395.979,319.813,396.056,319.84,395.726ZM169.663,424.785c.857-.077.637.19.89.536a3.262,3.262,0,0,0,2.232-1.042c-.961-.039-.848-.875-1.315-1.1C170.788,423.812,170.559,424.47,169.663,424.785Zm-2.857-2.765c.161.446-1.086.045-.923.491.4.253.693.637,1.479.437C167.321,422.47,167.169,422.116,166.806,422.021Zm2.282.479c-.14.69.6.342.887.533C169.88,422.619,169.586,422.44,169.089,422.5Zm203.7-68.713c-.426-.036-.937-.295-1.2.03a.731.731,0,0,0,.28.464C372.364,354.228,372.67,354.061,372.792,353.787ZM156.941,271.023c.205.943.818,1.408,2,1.205A2.186,2.186,0,0,0,156.941,271.023Zm-58.687,9.561c.283-.491-.167-.485.027-1.027-.5.464-.961.182-1.033,1.021C97.963,280.275,97.787,280.04,98.254,280.584Zm171.174-31.627c-.205-.509.747-1.619.393-1.253-.455.47-1.393.649-1.812,1.146.313-.009.19.336.08.494A3.681,3.681,0,0,1,269.429,248.957ZM347.861,237.7c-.357.381-.446.926-.783,1.315C347.9,239.014,348.111,237.863,347.861,237.7ZM105.489,272.27c-.943-.2-2.256.208-1.783,1.309C104.334,273.9,105.783,273.615,105.489,272.27Zm47.569-5.374.973-.158C154.093,266.026,152.978,266.392,153.058,266.9Zm-24.479,2.122c-.128-.03-.818-.292-.777.125.357.024-.06.193-.143.363.372-.042.226.527.667.4C128.355,269.579,128.831,269.517,128.578,269.017Zm.268,84.244c.185.509-.253.64,0,1.19a8.372,8.372,0,0,0,2.2-.015C130.98,353.255,129.98,353.177,128.846,353.261Zm-40.8-65.406c-.411.5-.345,1.732.661,1.6.211-.372.027-.976.17-1.39C88.363,288.271,88.425,287.795,88.041,287.854Zm13.558-1.53c-.491.1-.717.369-.667.792.187.307.589.354,1.053.339C102.046,286.854,101.593,286.866,101.6,286.325ZM171.383,273.6c.045-.232-.821-1.259-.72-.732.2-.024.184.187-.173.2.488,1.536-1.348,2.467-.6,3.666a2.867,2.867,0,0,1,1.1-1.878C170.351,274.555,171.109,273.841,171.383,273.6ZM72.76,286.271c-.491.1-.714.363-.67.786a1.067,1.067,0,0,1,.613.071C72.466,286.685,72.906,286.655,72.76,286.271Zm71.141-20.26c.515-.2,1.295.9,1.4-.06a1.026,1.026,0,0,0-.559.262C144.871,265.761,143.958,265.589,143.9,266.011Zm-38.686,21.6c-.324.571-.176.762-.559,1.449C105.548,289.048,105.983,287.7,105.215,287.607Zm-15.052-2.643c-.488.051-.949.122-.92.485a1.833,1.833,0,0,1,1.556.937C91.568,285.9,90.41,285.444,90.163,284.965Zm109.955-45.956a1.863,1.863,0,0,0-1.363.22c-.018.613.357.765.58,1.1C199.963,240.107,200.32,239.726,200.118,239.008ZM97.945,256.843a1.754,1.754,0,0,0-1.786,1.309C97.24,258.408,98.864,258.229,97.945,256.843Zm10.633.134c-.958-.36-2.535-.14-2.872.809C104.8,260.369,109.9,259.682,108.578,256.977Zm25.518-12.82c.048.681.762.985,1.131,2.027l.78-.128C136.506,244.814,134.911,244.493,134.1,244.157ZM271,246.32c.616.024.524-.378,1.14-.354-.631-.619.536-.42.2-1.223C271.667,245.133,270.881,245.454,271,246.32ZM93.832,262.274c-.327-.277-.994-.149-1.446-.277-.375.429-.137.949.024,1.357C93.445,263.333,93.829,262.917,93.832,262.274Zm293.78-56.705c.021-1.785-4.675-1.28-4.235,1.03C384.6,207.057,387.6,206.958,387.612,205.569Zm-3.1,3.05c-.479-.015-.917-.5-.553-.928a1.652,1.652,0,0,0-1.842.982C383.267,208.64,383.88,209.5,384.511,208.619ZM129.62,266.806c.1-.018.2-.167-.027-.164.155.443-.705.274-.7.625.875.182,1.723.461,2.366-.22C130.62,266.788,130.034,267.484,129.62,266.806ZM318.8,236.324c.092.482.545.542.917.7C319.626,236.541,319.492,236.1,318.8,236.324Zm-59.505,3.4a.925.925,0,0,1-.5.6c-.119-.274.223-.47-.08-.5C257.945,240.827,260.353,240.351,259.3,239.729Zm50.212-3.931c.506-.042-.223.327.107.664.693-.226.806.235,1.417.107a.708.708,0,0,1,.116-.527C310.662,236.009,309.8,235.4,309.508,235.8Zm4.377-2.583c-.467-.048-.211-.937-.914-.7C312.418,233.009,313.51,233.845,313.885,233.214ZM102.921,266.4a1.043,1.043,0,0,0-1.783.122c.414-.024.176.714.53.762A1.253,1.253,0,0,0,102.921,266.4Zm-6.776,19.626.586-.1c-.158-.274-.211-.67-.527-.762C96.35,285.554,95.909,285.587,96.145,286.024Zm309.6-2.012c.3.042.533.164.833.205.485-.408-.3-1.619-.58-1.1C406.759,283.358,405.7,283.718,405.744,284.012ZM96.972,328.719c-.1-.476-.071-1.1-.414-1.294-.375.024-.4.256-.75.292-.146-.226-.36-.369-.5-.6,1.384-.11,1.5-.988,1.925-1.672.158.28.217.673.53.765-.381-.625.25-.643.443-.923-.851.1-.4-.232-.524-.768a1.93,1.93,0,0,0-1.646.949c-1.074-.309-.973.372-1.7.616-.14,1,.256.756.467,1.625-.533-.128-.869.048-1.533.42l.107.661c1.351-.321,1.649.375,3.229.152C96.633,328.811,96.74,328.728,96.972,328.719ZM350.935,290.4c0,.533.354.634.72.735C351.985,290.747,351.694,290.083,350.935,290.4ZM93.347,331.007a1.506,1.506,0,0,0-1-.009c-.283.658.176.592.387,1.128A.927.927,0,0,0,93.347,331.007ZM197.487,306.9a.858.858,0,0,0-.89-.533c-.214.235.024.637.333.795C196.931,306.965,197.208,306.929,197.487,306.9Zm151.138-19.513a10.417,10.417,0,0,0,1.205-1.167c-2.773-.631-3.931,4.324-2.607,2.785a3.589,3.589,0,0,1,.467-.687.137.137,0,0,0,.107.039C347.81,287.875,348.545,287.83,348.625,287.387ZM201.07,309.206a2.455,2.455,0,0,1-.577-1.1,1.769,1.769,0,0,0-.866.821,3.286,3.286,0,0,1,2.33,2c.61.208,1.366.238,1.723.741C204.311,310.557,202.972,308.635,201.07,309.206Zm10.148-2.842c-.678-.556-1.339.152-1.482.75.327.077.381.479.866.369A1.2,1.2,0,0,0,211.218,306.364Zm6.252,27.021a.718.718,0,0,1-.5-.6c-.286.077-.729.062-.75.295C216.548,333.444,217.084,334.162,217.47,333.385Zm-136.961,7.19c-.562-.065.187-.562-.164-.991-.289,0-.375-.22-.643-.235-.116.378-.512.583-.417,1.086C79.5,340.589,80.253,341.11,80.509,340.575Zm5.967,13.132c.009-1.2-1.294-.845-2.169-1.009.167.866.884,1.074,1.443,1.467C85.47,353.7,86.137,353.8,86.476,353.707Zm1.107,1.86c-.67.458-1-.128-1.812-.045-.009.19-.173.292-.333.393a2.776,2.776,0,0,0,1.274,1.664C87.143,357.46,88.369,356.418,87.583,355.567Zm56.089-14.406c.217.429-.333.4-.283.723a1.243,1.243,0,0,1,.806.042C144.056,341.628,144.3,340.884,143.672,341.161ZM81.9,349.017a2.587,2.587,0,0,0-2.616-.083,5.262,5.262,0,0,1-.562,1.449c.931.089,1.312.827,2.669.414C81.23,350.005,82.253,349.925,81.9,349.017ZM116.9,289.271c.14-.679-.277-.625-.387-1.125-.53.223-.545-.152-1-.009.6,1.217-.47.973-.036,2.217C116.681,290.065,115.7,288.6,116.9,289.271Zm33-5.038c.646.116.161.327.53.768.488-.057.946-.125.917-.491C151.079,284.289,150.284,283.673,149.906,284.233Zm-82.783,14c-.36.1-.461-.116-.809-.039a.723.723,0,0,1-.11.533c.786-.161.015.571.5.6a.955.955,0,0,0,.057-.857C66.907,298.4,67.145,298.395,67.124,298.231Zm32.833,13.347c-.062-.536.809-.509,1.062-.854-1.2-.033.753-.06.307-.562-.607.241-.384.208-.809-.033-.411.872-3.151,1.393-3.095,1.863C98.055,312.232,98.826,311.31,99.957,311.578Zm21.289-21.486a6.124,6.124,0,0,0,2.253-.872c.015-.414-.414-.307-.33-.8C121.365,287.676,120.145,288.994,121.246,290.092Zm231.5-39.758c.384-.06.321.411.833.2.149-.536.012-1.232-.22-1.321C353.31,249.683,352.616,249.76,352.747,250.335Zm3.392-.045c0-.2-.11-.461.11-.527-1.315-1.027-1.672-2.244-2.741-3.291a5.791,5.791,0,0,1-1.783.122c.417.479.345.3.384,1.125.366.3,1.137.113,1.476.437-.372.08.324.521.164,1C355.428,248.492,354.574,250.814,356.14,250.29Zm-203.588,34.2c.946-.559.818,1.616,2.309.643-.307-.759-1.518-.369-1.387-1.137C153.114,284.128,152.26,283.959,152.552,284.486Zm14.739,4.392a11.142,11.142,0,0,1-1.039,3.4c-.616-.369-.792.283-1.342.39A1.5,1.5,0,0,0,166.3,293.8c1.408-1.664,1.3-3.184,1.577-5.014Zm-.726,8.957c-.414-.045-.259-.75-.723-.732.1.4-.22.559-.253.89C165.723,298.067,166.577,298.228,166.565,297.835Zm-52.289-6.267c.015.092.193.164.2-.033-.244.006-.152-.161-.054-.33-.479.009-.375.372-.952.327.1.3-.158.4-.08.693a1.041,1.041,0,0,1,.61.068C114.247,292.148,113.919,291.654,114.276,291.568Zm75.432,3.345c-.134.559.045.378.164.991C190.711,295.954,190.488,294.6,189.709,294.913Zm-19.772-14.284c.033-.551-.738-.11-.307-.628.107-.018.2-.17-.027-.167-1.5,1.533-.985,4.279-2.22,5.97.125.512.068,1.235.44,1.458C170.443,285.691,168.3,282.545,169.937,280.629Zm-49.524,15.376c.289,1.1,1.791,1.2,2.7,1.774C125.957,294.913,119.46,292.354,120.413,296.005ZM249.776,139.871c-.226.158.321.783.75.488C250.758,140.2,250.211,139.573,249.776,139.871ZM143.571,106.089c.241-1.167-.512-1.652-2.244-1.464C140.657,106.083,142.877,105.559,143.571,106.089ZM267.188,252.912c-.238.158.307.786.747.485C268.164,253.242,267.623,252.617,267.188,252.912ZM241.462,107.074c-.443.027-.94.482-.045.536C241.855,107.583,242.355,107.13,241.462,107.074Zm22.994,131.212c.235-.164-.315-.789-.747-.488C263.477,237.955,264.025,238.58,264.456,238.285Zm-13.091-98.5c-.232.155.312.78.75.482C252.347,140.112,251.8,139.484,251.365,139.787Zm-88.571,57.6c-.232.161.315.783.75.488C163.777,197.721,163.226,197.093,162.795,197.391Zm-16.974-89.847c.232-.158-.321-.78-.747-.488C144.845,107.217,145.389,107.844,145.821,107.544Zm3.866,104.813c.235-.161-.312-.78-.747-.488C148.71,212.029,149.258,212.654,149.686,212.357ZM218.592,68.748c.94.018,1.726.842,2.381-.134C220.042,68.593,219.253,67.766,218.592,68.748Zm2.949,21.474c-.934-.027-1.723-.848-2.387.131C220.086,90.376,220.878,91.194,221.541,90.221Zm16.9,71.9c-.232.161.307.786.741.488C239.417,162.454,238.864,161.829,238.441,162.124Zm-80.893,31.86c-.232.158.318.783.75.485C158.522,194.314,157.983,193.686,157.548,193.984Zm78.837-82.934c-.836-2.568-3.678-.628,0,0Zm42.8,130.655c-2.556-1.137,1.771,1.669,0,0ZM164.125,190.99c.226-.161-.318-.789-.75-.491C163.137,190.657,163.688,191.282,164.125,190.99Zm13.635-30.83c-.476-.128-2.946-1.152-3.178.173C175.064,160.464,177.528,161.487,177.761,160.16Zm115.395,84.473c-.226.161.321.78.756.485C294.14,244.963,293.6,244.335,293.155,244.633ZM158.679,237.2c.226-.158-.318-.783-.756-.488C157.691,236.872,158.245,237.494,158.679,237.2Zm115.8-118.725c-.232.155.321.783.756.482C275.464,118.8,274.916,118.171,274.479,118.471Zm7.838,19.623-.083,1.059,1.586-.086.089-1.062ZM302.9,250.962c-.44.024-.937.479-.042.53C303.294,251.471,303.791,251.013,302.9,250.962Zm-28.86-42.224c-2.556-1.14,1.777,1.669,0,0ZM177.63,161.749c.44-.021.931-.476.045-.527C177.231,161.24,176.737,161.7,177.63,161.749Zm100.769,70.5c-.232.164.313.783.75.488C279.38,232.572,278.83,231.947,278.4,232.244Zm-.351-5.255c.223-.158-.315-.783-.75-.491C277.065,226.659,277.61,227.287,278.047,226.989Zm3.3,17.233c-.226.161.312.783.75.488C282.326,244.555,281.776,243.928,281.344,244.222Zm5.684-1.893c-.229.161.324.783.753.485C288.013,242.657,287.463,242.035,287.028,242.329ZM280.517,225.8c-.842.024-2.044.363-.842.574C280.514,226.346,281.716,226.01,280.517,225.8ZM233,179.839c-.44.021-.937.476-.045.527C233.4,180.348,233.9,179.89,233,179.839ZM162.488,191.6a2.606,2.606,0,0,1-.973,2.166C163.661,194.5,163.9,191.356,162.488,191.6Zm120.853,28.765c.414.271,1.613-.071.839-.571C283.77,219.522,282.564,219.862,283.341,220.365Zm-92.3-67.793c-.44.03-.937.482-.048.533C191.438,153.08,191.929,152.628,191.039,152.572Zm5.776-2.952c-.842.027-2.038.36-.842.574C196.818,150.173,198.014,149.837,196.815,149.62Zm1.925,33.672c-.437.021-.94.479-.051.533C199.136,183.8,199.633,183.342,198.74,183.291Zm-3.378-35.175c-4.077.931-1.9-5-4.452-3.449.485,0,.934.027.747.485-.208.42-.717.652-1.628.619.14,1.229,1.086,1.919.479,3.663,3.553-.28,1.89,1.759.574,2.613C194.9,152.289,192.548,148.524,195.363,148.117Zm6.862,31.288c-2.294-1.312,2.03,1.5,0,0Zm-5.484-57.223c.44-.024.94-.482.045-.527C196.348,121.673,195.851,122.129,196.741,122.182ZM59.169,198.822c-.146-.4.071-1.042-.7-1.012C58.613,198.209,58.4,198.852,59.169,198.822Zm150.448,15.013a7.321,7.321,0,0,0,2.47-1.193C211.034,212.621,207.641,213.717,209.617,213.836Zm-15.766-38.2c.226-.158-.321-.783-.756-.482C192.863,175.313,193.416,175.935,193.851,175.64Zm-11.418-14.68c-.44.024-.937.479-.042.53C182.831,161.469,183.328,161.011,182.433,160.961Zm-4.976-16.087c-2.55-1.14,1.774,1.675,0,0Zm2.077-5.916c-.232.152.318.783.75.482C180.516,139.278,179.972,138.656,179.534,138.957Zm9.359-17.4c-.911-2.711-6.514-2.208-7.5-4.868-.44,2.512-4.883,2.422-7.407,3.571,3.416.536,4.068-.155,7.19-.923C184.923,119.275,186.569,120.647,188.893,121.554Zm26.238,92.508c-.842.024-2.038.36-.842.571C215.131,214.612,216.331,214.276,215.131,214.062ZM186.81,146.471c-.845.024-2.035.36-.839.574C186.807,147.022,188,146.688,186.81,146.471Zm13.722,72.084c.14.4-.068,1.042.705,1.009C201.091,219.168,201.3,218.526,200.532,218.555Zm21.843-34.443-1.589.086c-.042.533-.69.664-.881,1.1C221.154,185.181,222.645,185.223,222.375,184.113Zm-18.659-79.2c.4,1.229.863,2.407,2.955,2.476.342-1.128,6.023-1.622,3.4-2.827C209.293,105.7,204.5,105.428,203.716,104.916Zm29.842,115.526c-.973.167-.542.616-.086,1.059C234.269,221.454,234.54,220.522,233.558,220.442Zm-21.423-102.8c-.842.024-2.044.36-.842.577C212.138,118.2,213.328,117.861,212.135,117.647Zm11.653,68.5c-.146-.4.063-1.039-.7-1.015C223.223,185.532,223.011,186.175,223.788,186.145ZM200.222,118.3c-.431.027-.934.482-.039.527C200.621,118.807,201.121,118.352,200.222,118.3Zm28.9,60.7c-.97.164-.539.616-.092,1.059C229.835,180,230.112,179.069,229.124,178.994Zm-16.8-91.963c-.44.021-.943.476-.045.527C212.718,87.534,213.215,87.082,212.325,87.031Zm24.137,136.422c-.226.155.318.78.756.485C237.447,223.781,236.9,223.156,236.462,223.454ZM86.431,90.2c-.033-.586,1.22-.887.086-1.056C85.72,89.2,85.443,90.129,86.431,90.2ZM213.822,88c.476.131,2.943,1.158,3.178-.173C215.474,88.415,214.48,86.388,213.822,88Zm7.556,145.775c.232-.161-.312-.786-.75-.488C220.4,233.447,220.946,234.074,221.378,233.777ZM188.64,105.737c2.544.167,3.717-.565,5.595-.833,1.431.393,4.023,2.535,5.428,1.283C197.663,103.955,192.205,103.235,188.64,105.737Zm30.029,84.9c-.44.03-.937.485-.048.539C219.062,191.154,219.559,190.7,218.67,190.642Zm-.676,26.958c1.119.065,1.262.8,2.291.926C221.074,217.4,218.426,216.261,217.994,217.6Zm3.875.842c-.44.021-.937.476-.039.53C222.267,218.948,222.764,218.5,221.869,218.442Zm1.458,1.5c.473.128,2.943,1.155,3.169-.17C226.026,219.647,223.559,218.621,223.327,219.945ZM339.85,177.7c-.753-.845-2.872-2.482-3.928-.315C337.109,177.316,339,179.179,339.85,177.7ZM342,189.719c-2.559-1.137,1.774,1.672,0,0Zm-1.449-11c-.235.158.318.783.75.488C341.531,179.048,340.986,178.423,340.552,178.717Zm-.446,14.8c-.238.158.315.78.744.482C341.085,193.844,340.534,193.222,340.106,193.522ZM194.416,102.78,196,102.7l.086-1.062-1.583.089ZM192.9,139.808c-.229.161.312.78.747.485C193.875,140.135,193.33,139.508,192.9,139.808Zm140.636,47.209c-.521,1.646,4.7,3.717,5.428,1.286C337.311,187.767,334.57,187.975,333.532,187.017Zm-119.061,6.5c-.226.158.318.783.756.485C215.462,193.841,214.911,193.219,214.471,193.516ZM193.78,138.7c.229-.158-.321-.78-.753-.491C192.8,138.38,193.339,139,193.78,138.7Zm-6.919-11.758c2.72.232,7.327-1.158,5.69-1.9C191.482,126.217,187.745,125.655,186.861,126.946Zm151.513,87.246c-.446.027-.937.482-.045.536C338.772,214.7,339.263,214.246,338.374,214.193Zm-67.9-29.012c-.229.164.321.783.756.485C271.458,185.505,270.914,184.883,270.476,185.181Zm-68.87-83.315c-1.28-.021-3.946-1.556-4.72-.274C197.877,101.8,201.52,102.678,201.606,101.866ZM127,181.4c-2.55-1.14,1.774,1.675,0,0Zm-1.806,2.738c-.03,1.634,3.321.205.839-.577A.658.658,0,0,0,125.189,184.14ZM367.275,85.957c.438-.018.937-.473.045-.527C366.876,85.454,366.379,85.909,367.275,85.957Zm-37.624,24.75c-.146-.4.063-1.045-.708-1.018C329.086,110.091,328.878,110.734,329.651,110.707Zm-66.737,32.669c.845-.03,2.036-.36.839-.574C262.915,142.823,261.713,143.159,262.915,143.376Zm-63.43-44.564c.235-.155-.312-.783-.747-.488C198.505,98.485,199.05,99.107,199.484,98.813Zm136.94,129.212c-.229.158.315.783.75.488C337.406,228.352,336.862,227.727,336.424,228.025ZM241.858,187.27c-.14-.4.068-1.045-.7-1.015C241.3,186.66,241.09,187.3,241.858,187.27Zm.149-20.59c.232-.158-.315-.78-.747-.488C241.024,166.353,241.572,166.981,242.006,166.68Zm79.56,69.013c-.467-.107-1.693.31-1.637.622C320.013,236.783,324.292,236.345,321.566,235.693ZM180.784,114.609c.146.4-.068,1.045.7,1.018C181.346,115.225,181.555,114.579,180.784,114.609ZM323.991,235.036c-.235.161.312.783.741.485C324.964,235.36,324.426,234.738,323.991,235.036ZM32.053,201.888c2.012-.336-1.229-1.071-2.291-.931l-.179,2.125c.887.556,2.753.446,4.717.268C35.693,201.4,31.628,203.176,32.053,201.888Zm146.555-61.3c-.229.158.318.78.753.485C179.588,140.915,179.043,140.293,178.609,140.588Zm-26.015,93.775c-.443.024-.94.476-.042.53C152.986,234.866,153.483,234.417,152.594,234.363ZM40.829,200.882c-.458-.11-1.687.309-1.634.616C39.279,201.968,43.564,201.53,40.829,200.882Zm262.786,32.1c-.232.155.318.783.753.485C304.6,233.307,304.05,232.685,303.616,232.982ZM178.391,133.737c-1.175.354-4.05-.393-4.011.75C175.773,134.258,178.493,135.943,178.391,133.737Zm-5.859-14.983c.446-.024.943-.482.051-.53C172.139,118.245,171.642,118.7,172.532,118.754ZM26.492,202.191c-.964.164-.536.613-.086,1.062C27.209,203.2,27.48,202.265,26.492,202.191Zm265.137-71.468c-.086-.042-3.273-1.937-2.339-.4C289.168,130.113,293.635,131.791,291.629,130.723Zm-98.992,12.263c-.152-.4.057-1.044-.714-1.015C192.065,142.373,191.863,143.019,192.637,142.986Zm135.015,76.542c-2.288-1.315,2.038,1.5,0,0Zm4.86-10.817c-.446.021-.937.479-.048.53C332.907,209.22,333.4,208.759,332.511,208.711ZM183.168,104.982c.235-.158-.312-.789-.75-.488C182.192,104.654,182.739,105.273,183.168,104.982Zm146.918,104.39c-.232.155.315.78.75.485C331.062,209.7,330.52,209.074,330.086,209.372Zm-147.8-103.289c2,.173,2.714.553,4.014-.747C185.126,105.69,182.248,104.94,182.287,106.083ZM336.472,227.495c.232-.161-.318-.786-.747-.488C335.49,227.162,336.038,227.789,336.472,227.495ZM322.988,199.73c-.214.607-.946.878-1.675,1.149.039-.533-1.33-.589-1.583.083C321.158,201.67,324.991,200.7,322.988,199.73ZM68.7,227.269c-.22-.381.408-.47-.107-.637-.6.211-1.443.354-1.437.759A4.085,4.085,0,0,0,68.7,227.269Zm3.922,23.807c-1.131.464-2.672,1.158-2.583,1.729.2,1.253,3.476.61,4.33-.574C73.808,251.828,73.721,251.084,72.62,251.076Zm-2.262-37.41c-.973-.012-1.979.006-2.872-.057-.024.527-.878.1-1.2.589l.083.509a18.719,18.719,0,0,1,2.613.1C69.216,214.353,70.576,214.258,70.359,213.666ZM77.2,288.372c.768-.128.354.6,1.122.473-.185-.381.577-.464.931-.676.015-.25-.333-.232-.339-.467C78.158,288.134,77.62,287.887,77.2,288.372Zm-14.376,1.167a.834.834,0,0,0,.021-1.44C61.056,288.667,62.9,289.1,62.824,289.539Zm32.3-17.159c-1.574.262.054-.187.188-.423-.845.137-1.687.274-1.434.756C94.237,272.582,95.216,272.648,95.127,272.38Zm-15.718,7.27c.309-.027.179.113.042.253l1.018-.167-.042-.253C80.569,279.245,79.191,279.468,79.408,279.65Zm-8.951-40.118c-.426-.417-2.155-1.3-2.663-.348A3.565,3.565,0,0,0,70.457,239.532Zm-9.428-30.36c-.25-.36.375-.449.125-.806C60.413,208.473,60.235,209.28,61.029,209.172Zm18.358-5.479.086.512c.69-.1.47-.3,1.006-.164C80.584,203.584,79.98,203.643,79.387,203.694ZM102,282.5c-.577.134-.342-.324-.821-.259.295.4-.321.5-.717.378-.057.387-.833.545-.613,1.015a1.636,1.636,0,0,1,1.289-.077C101.311,283.173,101.82,282.89,102,282.5ZM90.782,246.026c-.062.262-.491.408-.4.72l2.021-.33c-.051-.339.655-.44.934-.676C92.181,245.517,92.315,245.981,90.782,246.026Zm7.832,44.349a2.7,2.7,0,0,1-1.074-.217c-.333.22-.06.628-.387.848,1.131-.428,1.056.744,1.607.262C97.978,291.2,99.013,290.717,98.615,290.375ZM71.088,219.689c.869-.345.226.408.827.259.018-.583.4.238.717-.378.327.28-.67.729.125.762.321-.3.9-.524.89-.928a8.18,8.18,0,0,0-2.622-.1Zm8.118-6.029c.018.318.062.622.381.723.991-.173,1.687-.437,1.4-1.012C80.117,213.2,80.057,213.365,79.206,213.66Zm7.69,73.525c.446.423-.655.36-.4.72a2.975,2.975,0,0,0,1.244-.333C87.726,287.247,87.285,287.235,86.9,287.185Zm-18.48-36.338c-1.414.2-1.949.676-1.583,1.437a4.744,4.744,0,0,0,2.741-.711,1.292,1.292,0,0,0-.884-.637C68.871,251.376,68.255,251.183,68.415,250.846ZM47.763,232.9c.336-.414,1.384-.61,1.1-1.223a4.729,4.729,0,0,0-2.321.116C45.73,232.5,46.647,232.845,47.763,232.9Zm15.272,53.2c-.054.42.4.473.866.515.182-.324.22-.613-.125-.765C63.755,286.009,63.4,286.06,63.035,286.1Zm-6.068-52.61c-.863.054-.893.363-.931.676a2.088,2.088,0,0,1,.789,0A.544.544,0,0,0,56.967,233.494Zm.134,13.445c-.512.67-.051,1.7,1.286,1.491C59.25,247.865,59.4,246.341,57.1,246.939Zm-2.913,18.644a1.5,1.5,0,0,1-1.012.167l.1.637c.774-.119,1.271-.327,1.458-.631C54.4,265.809,54.471,265.571,54.188,265.583Zm16.236-51.536c.071.182-.015.485.336.467.116-.179.967-.071,1.5-.375-.018-.321-.217-.506-.616-.556-.036.211-.542.182-.756.125C71.094,214.16,71.368,213.958,70.424,214.047ZM55.631,241.166l-.759.122c.077.321.53.372.863.512C55.518,241.422,56.143,241.33,55.631,241.166ZM53.724,228.01c.878-1.866-3.392-2.2-5.342-.83-.116.988.616,1.357,1.33,1.744A14.432,14.432,0,0,0,53.724,228.01ZM55.676,254.1c-.018.25-.426,0-.485.211.649-.054-.375.339-.72.378,0,.283.277.372.824.259-.015-.179-.161-.262-.315-.342C55.488,254.584,56.22,254.051,55.676,254.1Zm-2.384,1.3c-.434-.542-1.827-.387-2.7-.6-1.58.586-2.538,1.75-1.631,2.747,1.17-.414.214-.321,1.181-.714,1.967-.06,2.893-.637,3.886-.113,2.012-.732.741-.726.488-1.777C53.724,254.974,54.084,255.37,53.292,255.4ZM64.249,238.19c-1.015.128-1.33.47-1.143.97a7.324,7.324,0,0,0,1.461-.628C64.267,238.556,64.258,238.375,64.249,238.19Zm2.146,8.282c.446-.3.833-.625.866-1.059-.622.048-.512.324-1.244.333C66.2,245.948,65.829,246.546,66.395,246.472Zm2.625,14.344c.732-.176,1.22-.789.61-1.015C68.612,259.881,68.984,260.4,69.02,260.816Zm-5.675-7.574c-.265.2-.208.5-.128.8.2,0,.506-.077.53.048.64-.122.949-.345.928-.676C64.461,253.2,63.946,253.188,63.345,253.242Zm-6.169-18.474c-.827.021-.47.417-.949.548a19.382,19.382,0,0,0-3.464-.479c.119.235-.3.307-.443.464,1.2.039-.119.887,0,1.565.994,1.3,4.842-.351,5.958-.185-.116-.33.973-.911,1.628-1.181C59.753,234.509,57.857,235.065,57.176,234.768Zm8.068,3.131a.86.86,0,0,0-.655-.809c.054.3-.375.446-.125.806A2.1,2.1,0,0,1,65.243,237.9Zm-9.157-11.32c-.054.306-1.387.205-1.2.589C55.551,227.495,56.711,226.623,56.086,226.578Zm.193,18.531c1.533-.553,2.175.229,3.821-.491l-.128-.762C58.673,243.347,55.125,243.981,56.28,245.109ZM168.759,60.623c.045.176-.065.3-.185.426l.506-.083c.03.074.062.146.277.086-.205-.8-1.229-.777-.806-1.7-.164-.048-1.25-.1-1.268.205.875.369-.536-.051-.482.211.783.027-.8.292-.7.5.6.357-.5,1.208-.762,1.693C166.69,61.43,167.2,60.814,168.759,60.623Zm151.718-3.276c-.137.021-.274.149.021.125.5-.631-.655-.408.083-1.059-.5.042-.473.256-.717.378a4.019,4.019,0,0,0-2.425-.521c.179.818-.271,1.232-.7,2.077A9.07,9.07,0,0,1,320.477,57.347ZM323.4,68.765c-1.467.14-1.074.875-1.607,1.306C323.057,69.864,323.11,69.274,323.4,68.765Zm7.434,40.362a2.277,2.277,0,0,0-2.473-.774c-.086.375-.726.574-.613,1.012C328.809,109.317,330.053,109.808,330.833,109.127Zm-5.949-47.144a1.322,1.322,0,0,0-.426-.976c-1.238.286-1.485-.152-2.589.033C319.679,62.6,322.712,63.558,324.884,61.983Zm-4.776-14.775c.357.351-.348.372-.423.592a2.038,2.038,0,0,1,.78,0C320.786,47.586,320.754,47.113,320.108,47.208ZM90.934,226.391c-.479-.533-3.883-.562-4.291.83A6.787,6.787,0,0,0,90.934,226.391Zm243.407-62.8c-.083-.318-.455-.435-1.1-.342-.19.262-.554.47-.652.759C333.865,163.933,333.333,163.475,334.341,163.591ZM260.629,210.64c-.524.045-.554-.265-1.077-.217-.113.411-.2.678.125.762C259.7,210.91,260.8,210.973,260.629,210.64ZM249.44,57.415c-.2.063-.5.086-.491.208a2.57,2.57,0,0,0,.994-.292c-.071-.47-.833-.443-1.393-.556.241.366.217.217.1.637C248.961,57.383,249.372,57.273,249.44,57.415ZM282.106,55.1c.176.336-1.4.125-1.22.461.354.122,1.208-.119,1.559.006C282.374,55.383,282.46,55.079,282.106,55.1Zm40.778,4.2c.027-.312,1.187-.271.928-.673L322.8,58.8C322.965,59.025,322.381,59.7,322.884,59.305Zm36.657,78.741a1.174,1.174,0,0,0-.949.548,1.679,1.679,0,0,0,1.244-.333C359.63,138.267,359.526,138.2,359.541,138.046Zm19.81-39.311c.693-.36-.277-1.116-.872-.509.768-.015-.551.286-.164.548A2.856,2.856,0,0,0,379.351,98.735ZM336.978,86.421a2.9,2.9,0,0,1,1.652-1.05.6.6,0,0,0-.592-.426C337.772,85.46,335.579,86.118,336.978,86.421Zm33.731-3.794c-.312.021-.179-.116-.042-.253-.86.434-1.5.232-1.672.925C369.906,83.18,370.5,82.963,370.709,82.627Zm28.577,132.351c-.039.652-.155-.113-.53-.045-.515.36.381.321.381.72.714-.137,1.756-.173,1.726-.542-.789.241-.411-.363-1.074-.217C399.846,215.428,399.629,214.949,399.286,214.978ZM394.225,189l.083.509c.881.024,1.259-.717.658-.759C394.945,188.9,394.585,188.954,394.225,189Zm-29.172-50.679c.664-.006,1.2,0,1.5-.375a1.177,1.177,0,0,1-.676-.934c-.548.271-1.012-.173-1.015.167C365.561,137.291,364.612,137.9,365.052,138.323ZM329.464,26.6c-.268-.426-1.259-.324-2.131-.309l.063.381C328.509,26.342,328.634,27.157,329.464,26.6Zm41.409,211.834c.158-.4-.411-.271-.351-.6,1.226-.14,1.857-1.1,1.327-1.393-.018.2-.589.217-.994.292.274.607-.274.958-1.1,1.226C370.221,238.053,370.171,238.514,370.873,238.431Zm.074-27.988c.149-1.25-2.333-.586-3.991-.527.19.381-.628.446-.655.762C367.207,211.264,369.689,210.818,370.947,210.443ZM209.778,39.429c-.339.054-.268-.185-.551-.17-.027.271-.923.274-.949.545.875.054-.917.7.357.6C208.763,40,209.962,39.929,209.778,39.429Zm108.577,87.157c.592-.565.223-1.036-.72-1.19-.062.262-.967.259-.679.634C317.656,126.048,317.68,126.554,318.355,126.586ZM129.941,147.221c-.08-.345.378-.327-.083-.512C128.864,146.769,128.98,147.48,129.941,147.221ZM92.032,111.433c.673-.071.8-.315.676-.637-.667.074-1.083.226-.949.551C91.913,111.329,92.059,111.314,92.032,111.433Zm21.9,132.911c-.036.312-.741.414-.931.676.476-.1.58.054,1.036-.039C114.166,244.88,114.529,244.282,113.934,244.344Zm8.942-187.357c.47-.554-1.384-.363-1.033.039C122.317,56.921,122.424,57.079,122.877,56.987Zm25.747,173.6c-.315.042-.6.062-.548-.167-.884.125-1.455.348-1.161.842A2.319,2.319,0,0,0,148.624,230.584ZM80.5,68.337c0-.426-.4-.562-1.116-.47a3.119,3.119,0,0,0-.387.845c-.009-.068-.226-.113-.247.042C79.438,68.971,79.724,68.444,80.5,68.337Zm6.595,35.27c-1.056.152-1.524.488-1.393,1.012.729-.012.628-.289,1.244-.333-.345.324-1.059.937-.318,1.226a4.2,4.2,0,0,0,2.178-1.006C87.863,104.443,86.619,104.285,87.1,103.607Zm-.539,66.237c-.033-.747.815-1.336-.018-1.7C83.691,168.15,84.289,170.942,86.559,169.843Zm55.863-6.88c-.69-.247-1.083-.235-1.521.25C141.458,163.2,142.2,163.538,142.422,162.963ZM101.65,199.807c.863-.131.881-.53,1.161-.842C101.879,199.072,101.858,199.468,101.65,199.807ZM86.2,90.287c-1.568.232-1.318,1.036-1.815,1.6A2.744,2.744,0,0,0,86.2,90.287Zm87.972-34.728c.2-.262.9-.363.928-.673a1.93,1.93,0,0,0-1.223.458C174.4,55.148,173.618,56.053,174.175,55.559Zm3.151,1.711c-.051-.3-.506-.3-.384-.723a2.117,2.117,0,0,1-.783,0C175.549,57.061,176.677,57.222,177.326,57.27Zm9.4,53.9c.67-.068.8-.309.673-.631C186.727,110.606,186.593,110.844,186.727,111.165Zm-1.467-35.71c-.024-.17.429-.187.467-.339a1.709,1.709,0,0,0-1.562-.006C184.248,75.431,184.614,75.544,185.26,75.455ZM181.448,68.1c1.122-.655,1.122-1.664,2.771-2.155-.274-.533-.131-.842-.741-1.315-.789.036-.9.28-1.5.375.488.369.03.39-.4.72C182.95,65.995,180.278,67.519,181.448,68.1Zm5.987-12.612c.655.58-.164.1-.464.339C185.191,57.246,190.274,55.919,187.435,55.49Zm-41.76,11.9c1.375-.583,2.119-1.705,4.139-1.72a1.446,1.446,0,0,0,.613-1.015c-.8-.065-1.6.655-1.539.119C147.651,65.444,142.33,66.834,145.675,67.394Zm20.379-1.1c.437-.256-.5-.554.107-.934-.378.086-.94.11-.994.295C166.259,65.293,165.295,66.417,166.053,66.3Zm10.591,182.736c.1.184.423-.051.491-.211-.94.235-2-.324-2.012.461.634-.205,1.253.306,1.541-.122C176.529,249.183,176.362,249.1,176.645,249.031Zm-71.566,39.508c.417-.03.652-.286.211-.3a6.341,6.341,0,0,1-3.169,1.3c-.429.449-.131.673-.36.976.53.092,1.47-.116,2.068-.077.2-.6-.071-.417-.4-.851,1.425-.306.417-.756,2.22-.753C105.679,288.574,105.263,288.64,105.078,288.539ZM174.49,57.469c.42-.1,1.527.429,1.244-.333-.61-.2-.973.6-1.539.119-.161.464-.458.14-1.244.336-.045.11.03.25-.211.292-.14-.321.28-.473.949-.545-.17-.161.185-.708-.357-.6-.36.556-1.512-.042-1.97.714.562-.074.6.229.613.551-.6.1-.711.342-1.5.378-.33-.143-.351-.274-.086-.512-.744.315-.991.119-1.5.378a.548.548,0,0,0,.357.6C171.571,58.775,172.978,57.814,174.49,57.469ZM85.854,255.587c.155.318.241.678.655.809-.467-.387.851-.22.7-.506C86.348,256.084,86.384,255.632,85.854,255.587Zm234.1-127.17c-.006-.7-2.08-.259-2.027.33.482-.065.244.393.824.259C318.855,128.717,319.063,128.461,319.956,128.417ZM336.389,242.35c-.4.286.238.551.631.684C337.552,242.651,336.755,242.5,336.389,242.35Zm-.9-32.276c-.265-.068-2.25,0-2,.461C334.225,210.634,335.362,210.387,335.49,210.074Zm-18.608-68.736c-.259.485-2.393,1.015-1.312,1.521.25-.565,3.059-.955,2.6-1.6C317.8,141.939,317.751,141.091,316.882,141.338ZM106.495,287.655c.286.372-.616.369-.678.631.42-.065.2.33.571.3C106.483,288.363,107.25,287.744,106.495,287.655ZM326.878,227.3c.3-.03.31.155.315.339.908-.077,1.289-.318,1.458-.631C328.2,227.081,327.122,226.906,326.878,227.3Zm11.728-3.086c-.863.1-1.235.684-.64.887.777-.077.357-.533.931-.673C338.7,224.427,338.588,224.364,338.606,224.212Zm.309-72.346c.934-.431,2.857-1.193,1.771-1.857C339.882,150.131,337.451,151.387,338.915,151.866Zm12.424,70.662c-.384.536-.738-.11-1.292.08-.705.253-.774.521-.378.845C350.277,223.236,351.9,222.713,351.339,222.528Zm2.827,21.893c.205,0,.5-.077.524.045.289.2-.685.551.083.512.11-.491,1.321-.64,1.1-1.226l-1.774.289ZM326.458,265.8c.893.06,2.595-.006,2.741-.705A4.2,4.2,0,0,0,326.458,265.8Zm-2.027-137.068c.051.14-.333.259.042.256.44-.318-.083-.667-.637-.681.006.08-.012.158-.226.167l.042.253C323.953,128.7,324.366,128.592,324.432,128.732Zm27.815,116.657c-1.015.125.205-.488-.827-.256-.458.295-.217,1.292.7,1.062C351.831,245.886,351.613,245.659,352.247,245.389Zm-14.939-92.216c-1,.17-1.464.506-1.4,1.015a1.859,1.859,0,0,0,1.714-.676C337.329,153.539,337.311,153.357,337.308,153.173Zm-54.943,34.577c.262.092,1.324-.1,1.229-.461C282.96,187.371,282.356,187.467,282.365,187.749ZM258.96,36.254a.544.544,0,0,1-.143.676,5.139,5.139,0,0,0,3.693-1.253C261.54,35.945,260.2,35.558,258.96,36.254ZM258.582,59.2c1.5.179-.554.6.652.806-.015-.408.946-.506.613-1.012ZM357.193,217c-.143.247-1.5.723-.628.884.173-.36.649.988,1.051.1C356.473,218.264,357.976,216.966,357.193,217ZM255.66,44.637c-.289,1.226-3.595,2.053-2.58,3.294,2.595-.958,5.285-2.527,4.8-4.05A2.963,2.963,0,0,1,255.66,44.637Zm-8.91,13.87c-2.116.187-1.553,1.4-1.053,1.479-.03-.208,1.464-.03,1.756-.417C247.631,58.915,246.568,59.159,246.75,58.508Zm5.19,6.214c.723-.4,3.267-.057,2.681-1.089A4.363,4.363,0,0,0,251.94,64.721Zm6.514-7.862c.14-.018.274-.149-.021-.125.009.247-.818.223-.7.5.3-.027.717-.137.78.006-.509.232-1,.083-1.479.5a1.489,1.489,0,0,0-1.521.247c-.521-.509-.366-.426-.759.125-.057-.2-.661.006-.571-.3.14-.024.271-.152-.021-.128a1.6,1.6,0,0,1-.908.8c-1.164-.164-2.485.631-4.08.536-.131.1-.491.7.107.634a96.477,96.477,0,0,1,10.139-1.652C259.865,57.264,258.752,57.424,258.454,56.859Zm16.769.67c.411.568-.464.738-.592,1.143C275.613,58.558,276.235,57.52,275.223,57.529Zm36.288,204.433c-.545.509-.235.5.146.893.6-.173,1.283-.321,1.187-.72A1.9,1.9,0,0,0,311.511,261.961Zm-4.964-36.451c.479.077.3.634.649.812,1.193-.342,1.265-1.05.556-1.4A2.9,2.9,0,0,0,306.547,225.51ZM284.118,67.322c-.14.369-1.235-.092-1.22.458C283.374,68.069,284.784,67.355,284.118,67.322ZM273.625,50.991a2.916,2.916,0,0,1-1.586-.134c.161.437.119.655.378.72C272.539,51.291,273.586,51.3,273.625,50.991Zm-4.3-5.574,1.012-.167C270.456,44.729,269.042,44.959,269.322,45.417Zm43.915,198.612a5.337,5.337,0,0,0,1.8-.158c.1-.4.86-1,.321-1.232C314.168,242.951,312.784,243.2,313.237,244.029ZM265.742,208.5c-.417.315-1.476.426-1.14.973.789-.036.708-.342,1.494-.375C265.935,208.931,266.289,208.387,265.742,208.5Zm133.708,46.98a2.23,2.23,0,0,0-1.536-1.449C397.272,254.528,398.162,255.533,399.45,255.477Zm5.559-2.6c.051.3-.378.443-.128.8a2.119,2.119,0,0,1,.783,0A.85.85,0,0,0,405.009,252.873ZM380.357,106.419c.193-.062.5-.086.485-.211a3.116,3.116,0,0,0-1.583-.137c-.06.482,1.158.762,1.393.562C380.449,106.636,380.336,106.571,380.357,106.419Zm22.152,148.689c-.217.4-.318,1.181.47,1.235-.012-.074.176-.182.247-.042-.336.116-1.482.342-.952.545.006-.077.018-.155.238-.167.324-.048.381.1.777,0,.113-.815,1.306-1.208.241-1.741C403.539,255.266,402.673,255.123,402.509,255.108Zm-21.8-47.039.756-.122c.068-.238-.429-.268-.063-.384.012.071.226.11.253-.042-.324.045-.375-.1-.777,0C380.973,207.75,380.64,207.845,380.711,208.068Zm-5.16-91.323c-1.092.14-1.857.821-.89.928C374.533,117.23,375.813,117.227,375.551,116.745Zm-5.654-4.312c.789-.1.533.565.672.937.759-.217.783.1,1.542-.119C372.944,112.323,370.968,111.478,369.9,112.433Zm18.242-39.311a.843.843,0,0,0-.36.973c.673-.113,1.509-.176,1.482-.506C388.553,73.676,389.047,72.887,388.139,73.122Zm17.45,36.374c.768-.417.274-1.116,0-1.568-1.134.128-1.327.551-1.122,1.1.443-.021.613-.295.762-.125-.765.1-2.55.783-3.041.5C402.73,110.356,404.1,108.978,405.589,109.5Zm-3.931,118.3c-.321.229-.339.967.4.851.054-.387,1.042-.479,1.158-.845C402.509,227.754,402.506,227.414,401.658,227.8Zm4.779-84.708c-.482.372-1.411.6-1.922.967l.1.634a5.611,5.611,0,0,0,2.47-.792C406.318,143.668,407.521,143.088,406.438,143.088Zm3.378-.03c2.607-.122,2.83-2,3.11-3.25A8.39,8.39,0,0,0,409.815,143.058ZM409.568,253.7c-.583.473-.348.833.423.979C411.02,254.349,410.767,253.531,409.568,253.7ZM384.077,231.7c.057.39.342.613.893.64.033-.205.542-.176.759-.125-.036-.348-.464-.184-.083-.506A10.506,10.506,0,0,1,384.077,231.7Zm-16.135-15.8c.482-.045-.1.232.3.214.185-.437.3.324.8.131.036-.193.53-.235.714-.378a.555.555,0,0,1,.155-.681c-.39,0-.673-.083-1.059-.089C369.031,215.517,368.159,215.6,367.942,215.9Zm3.047-5.2c.057.6-.58.53-.083,1.059a5.681,5.681,0,0,0,2.259-.5C372.769,210.833,371.611,210.964,370.989,210.7Zm1.491,27.994a1.643,1.643,0,0,0,1.292-.077C373.834,238.074,372.659,238.381,372.48,238.693Zm-21.8-70.7c-.426.22-1.083.625-.384.848C351.018,168.808,351.268,168.028,350.682,167.99ZM374.111,259.6c-.042.274-.455.423-.682.637.949.11,1.9.845,3.169.268C376.268,259.842,375.1,259.789,374.111,259.6Zm12.243.1c-.065.259-.5.408-.4.72,1.461-.247,1.181-.333,2.765-.58A2.443,2.443,0,0,0,386.353,259.7ZM338.192,77.988c.47-.649,2.1-.75,2.41-1.175C339.478,76.547,337.588,77.714,338.192,77.988ZM366.424,254.06c.667-.071,1.274-.164.952-.548C366.9,253.647,366.3,253.736,366.424,254.06Zm-5.916-35.9c-.292.616-1.363.277-1.122,1.1a5.205,5.205,0,0,1,2.03-.33C360.809,218.633,361.172,218.469,360.508,218.157Zm16.207-9.047c.018-.021.048-.033.068-.054l-.128-.051C376.676,209.039,376.691,209.077,376.715,209.11Zm-.295-.211c.071.045.158.068.235.107C376.622,208.934,376.584,208.872,376.42,208.9ZM355.872,112.63c-.378.271-.792.182-1.268.208a1.538,1.538,0,0,0,1.434.809,4.174,4.174,0,0,1,.908-.8C356.154,113.088,356.369,112.6,355.872,112.63Zm23.087,97.424c0-.568.372-.455.928-.676.265-.548-.6-1.065-1.265-1.363-.19.655-1.434.693-1.839,1.042C377.643,209.428,378.6,209.491,378.958,210.053Zm-4.568,2.312c.7-.17-.086.729.613.554.437-.3,1.056-.554.866-1.059A2.423,2.423,0,0,0,374.391,212.366Zm1.036-1.607c1.024,0,.6-.455.931-.673C375.715,210.208,375.408,210.431,375.426,210.759ZM299.92,82.657c-.116.295-.577.676-.122.8a2.04,2.04,0,0,0,.738-.25Q300.513,82.724,299.92,82.657ZM145.214,239.9c1.449-.271,2.238-.75,2.1-1.521C145.883,238.892,145.472,239.238,145.214,239.9Zm6.315,38.317c-.7-.122-.756.182-1.544.125.631.274.14.625,1.4.556C151.019,278.462,150.641,278.614,151.528,278.221Zm-24.06-111.253c-.795.208-2.336-.28-1.833-.092.646.244.786.851,1.476,1.068.033-.211.536-.179.759-.125C127.736,167.534,127.385,167.409,127.468,166.969Zm-6.133-51.423c.524.187,1.336.173,1.878.345C123.317,115.338,121.609,115.355,121.335,115.546Zm18.647,158.941c-.432.664,0,1.494,1.729,1.021C142.285,275.04,142.05,274.1,139.982,274.487Zm-1.533-31.392-.1-.634C137.28,242.517,137.679,243.219,138.449,243.094Zm-.185,16.242c-.06.092-.551.6.083.509.083-.244.283.012.53.048-.015-.247.821-.226.7-.509C139.08,259.411,139.056,259.1,138.265,259.337ZM265.4,247.51c.792-.193.931.083,1.794-.161.063-.506.488-.9.283-1.482C265.688,246.07,265.435,246.758,265.4,247.51ZM161.084,284.117c.7.208,2.562-.006,2.5-.667-.533-.092-1.47.116-2.074.077C161.753,283.843,161.048,283.867,161.084,284.117Zm-.434-8.948c.086.318.455.434,1.1.342a.841.841,0,0,0,.658-.759C161.509,274.793,161.468,275.1,160.649,275.168Zm-9.558-45.376c-.342,0-2.012.729-1.2.586-.006-.131.307-.149.277.089,2.387-.542,3.535.568,5.446-.1a5.417,5.417,0,0,1-2.678-.479C152.4,230.355,151.424,229.941,151.091,229.792Zm5.49,64.865c.08.318.449.434,1.092.345-.039-.176.077-.3.193-.426C157.165,294.8,157.179,294.505,156.581,294.657ZM135.848,249.4c-.229-.321,1.536-1,.107-.934.015.182.164.262.318.342C135.6,248.784,135.218,249.424,135.848,249.4Zm27.235,23.146c.815.14,1.128.012,2.11.179C165.3,272.127,163.322,272.02,163.084,272.549Zm-6.068,10.532c.009.324.054.625.6.553.092-.536.851-.86,1.631-1.178C158.617,282,157.775,282.849,157.016,283.081Zm-54.137-67.918a.605.605,0,0,0,.146.89,4.67,4.67,0,0,0,1.732-.542C104.519,215.115,103.989,214.928,102.879,215.163Zm12.787,66.549c-.113.845.845.914,1.729,1.027C117.931,281.971,117.883,280.9,115.666,281.712Zm1.669-7.2c-.676.7-.562,1.732.827,1.827C121.933,276.594,121.6,273.249,117.336,274.513Zm-15.817-15.466c1.039-.128,1.6-.652,3.214-1.045l-.083-.509C102.849,257.328,102.141,258.45,101.519,259.048Zm22.191-92.772c.122-.42-.5-.3-.378-.723-1.021.515-.556-.3-1.815.036A2.238,2.238,0,0,0,123.71,166.275Zm-.42,117.466c-.464.259-.366.69-.619,1.012a4.055,4.055,0,0,0,2.05-.2C124.832,283.855,124.258,283.652,123.29,283.742ZM78.346,93.138c-2.687.232-2.574,3.333.967,2.717C80.176,94.965,80.441,92.953,78.346,93.138Zm4.175,1.672a1.353,1.353,0,0,1-1.476.5c-.491.658.429.973,1.223,1.11C82.381,95.646,83.756,95.114,82.521,94.81Zm52.554,164.131c-.012-.068-.226-.11-.253.042.69-.167.318.437.848.384.393-.616.931-1.226,0-1.568C135.185,258.265,136.152,258.566,135.075,258.941ZM115.238,135.365a1.818,1.818,0,0,0,1.181-.714C115.681,134.779,114.994,134.931,115.238,135.365Zm-3.092,39.725a1.217,1.217,0,0,1,.827.256c-.429.119-.678-.083-.762.125C113.616,175.852,113.232,174.289,112.146,175.09Zm1.012-33.374c.006-.336.464.1,1.015-.164-.244-.437.464-.577.357-.973a2.1,2.1,0,0,1-.78,0C113.634,140.906,112.592,141.573,113.158,141.716Zm-3.294-2.6c-.134.321-1.44.274-1.181.714C109.351,140.135,110.765,139.281,109.863,139.115Zm20.905,137.916c-1.033.387-1.062.982-.062,1.187.021-.277,1.1-.217,1.223-.464C132.013,277.174,131.358,277.126,130.769,277.031Zm28.675,1.863-.062-.381c-.44.146-1.042.235-1.226.461C158.76,278.822,158.748,279.117,159.444,278.894ZM199.2,70.045c.1-.208.318-.384.423-.589-.551-.271-2.485.423-1.732.542C198.353,69.45,198.752,70.119,199.2,70.045ZM223.97,272.433a6.76,6.76,0,0,0-2.009.458c-.018.25.33.238.336.467-.363.131-.61.295-.97.42.021-.917-1.286-.872-2.259-1.068.44-.143,1.045-.238,1.226-.464-1,.345-.937-.077-1.33-.17.039.559-.4.3-1.229.458.036.6.5.875,1.2.982-.616.768.426.6.7,1.059,1.485-.042,1.172-.274,2.515-.539-.268.378-.048.58.42.979l1.012-.167c-.3-.866.795-1.164.678-2.2C224.062,272.651,223.952,272.591,223.97,272.433ZM201.255,106.187a1.379,1.379,0,0,0,1.208-.589C201.933,105.428,200.889,105.717,201.255,106.187Zm25.667,168.38a.559.559,0,0,0-.152.678c.955.1.92-.2,1.753-.417C228.311,274.507,227.746,274.442,226.922,274.567Zm-21.974-67.013c-.559.146-.866.372-.931.676a1.7,1.7,0,0,0,1.247-.333C204.966,207.923,204.954,207.738,204.948,207.554ZM196.4,108.16a11.418,11.418,0,0,0-1.589-.652c-1.336,1.961,5.979,2.056,3.839,1.375a6.057,6.057,0,0,1-.97-.22.12.12,0,0,0,.074-.077C197.02,108.645,197.053,108.157,196.4,108.16Zm12.525,96.656a7.6,7.6,0,0,1-1.732.542c.19.289.667.369,1.116.473a5.723,5.723,0,0,1,3.339-1.851c.4-.443.548-.955,1.354-1.268C211.406,202.441,208.323,203.611,208.921,204.816Zm-2.887-6.461c-.931.536.045.884.928.9.161-.232.777-.324.678-.637A2.305,2.305,0,0,0,206.034,198.355Zm41.632-7.957a1.652,1.652,0,0,1-.976.42c.077.182-.009.482.342.464C247.631,191.011,248.785,190.55,247.666,190.4Zm-8.085,91.52c-.176.387-.821-.051-1.518.247-.036.193-.384.283-.443.467a4.775,4.775,0,0,0,1.58.131C239.462,282.593,240.355,282.016,239.581,281.917Zm20.638-5.848c-1.806.161-1.452.991-1.818,1.6a5.1,5.1,0,0,0,2.41-1.175C260.073,276.751,260.317,276.287,260.219,276.07Zm2.958-1.006c.6.39-.33.7-.315,1.232a.726.726,0,0,1,.548.17,7.052,7.052,0,0,0,2.684-1.089A2.72,2.72,0,0,0,263.177,275.064ZM249.2,239.169c.676-.205.548.17,1.05.092a.5.5,0,0,1,.173-.551C249.955,238.848,248.869,238.785,249.2,239.169Zm3.312,40.641c-.83.539-1,1.1-.488,1.78a13.262,13.262,0,0,1,2.11.179c.262-.643,1.428-1,.994-1.86C253.91,280.126,253.931,279.444,252.511,279.81Zm-85.3-15.385c-1.009,0-.982.271-1.753.417.265.324-.3.39-.155.678,1.922-.574,1.4.182,3.342-.283C168.375,264.464,166.024,265.333,167.211,264.425Zm-3.038-21.6c.259-.449.512-.152,1.229-.461-.018-.321-.057-.625-.616-.551C164.417,242.029,163.381,242.648,164.173,242.826Zm9.675,53.985c.1.229-.241.327-.17.551a2.135,2.135,0,0,1,.786,0c-.131-.509.866-.089.967-.42a3.013,3.013,0,0,0-1.283.077C174.07,296.934,174.094,296.773,173.847,296.812Zm24.673-24.024c-.815.116-.655-.476-1.14-.6-.214.812.015-.5-.806-.128.28.375.262.229-.164.548,1.259.158,1.669,1.937,2.384,1.836C199.246,273.984,197.961,273.591,198.52,272.787Zm-29.47-11.409c-.024-.693-.622-.97-1.009-1.4-.619.048-.518.321-1.25.333C165.417,261.631,167.238,262.274,169.05,261.378ZM141.065,110.5c-.036-.25.664-.274.423-.589a4.566,4.566,0,0,0-2.024.33C140.163,110.207,140.181,110.669,141.065,110.5Zm.4-2.285c-.3.03-.714.137-.78,0-1.732,1.033-3.616,1.44-5.345,2.309a1.749,1.749,0,0,1-.065,1.184,3.488,3.488,0,0,1,1.753-.414c.5-.289.327-.783.863-1.056.071.241.83-.292,1.527-.25C138.658,108.942,142.044,109.2,141.47,108.213Zm23.447,132.795c-.714-.562,2.553-.777,1.289-1.652-1.184.312-.765,1.077-1.9,1.1C164.455,240.675,164.08,241.276,164.917,241.008Zm8.666-10.567a30.591,30.591,0,0,1,4.985.235c-.646.467.315.494.4.851a2.513,2.513,0,0,0,1.9-1.092c-2.315-.72-4.622-.44-7.344-.375Zm13.412-.747c-.122.286-1.17.28-1.2.592.622-.125.812.071,1.306.048C187.227,230.23,187.59,229.634,186.995,229.694ZM170.312,265.88c.14-.021.271-.152-.024-.128-.024.164-.262.125-.5.083-.054.321.509.2.36.6.467-.107.583.051,1.033-.042-.039-.17.074-.3.193-.423C171.184,265.821,170.392,266.11,170.312,265.88Zm15.472-51.414c.827.015.58-.083,1.521-.247C187.5,213.645,185.417,213.984,185.783,214.467ZM161.5,229.8c-.824.054-.271.515-.991.295-.012-.071-.229-.113-.253.042,2.1.8,6.318.071,8.7.673a8.41,8.41,0,0,0,2.265-.5C169.211,228.754,164.167,230.64,161.5,229.8Zm16.352,31.327c1.7-.345,2.059-1.375,3.047-2.065C176.975,257.527,172.216,262.271,177.856,261.122Z" transform="translate(-57.096 -112.859)" fill="#912c2c"/>
      </g>
    </g>
  </g>
</svg>
