<svg xmlns="http://www.w3.org/2000/svg" width="35" height="35" viewBox="0 0 35 35">
  <g id="페이스북아이콘" transform="translate(-635.325 -573.693)">
    <path id="패스_215" data-name="패스 215" d="M661.467,608.693h-5.934l-2.707-.894-2.685.894h-5.956a8.859,8.859,0,0,1-8.859-8.858V582.551a8.859,8.859,0,0,1,8.859-8.858h17.282a8.859,8.859,0,0,1,8.858,8.858v17.283A8.859,8.859,0,0,1,661.467,608.693Z" transform="translate(0)" fill="#fbf7f1"/>
    <path id="패스_216" data-name="패스 216" d="M650.574,587.8v3.925h-4.522v5.149h4.522v12.883h5.567V596.875h4.151l.789-5.149h-4.94v-3.342a2.575,2.575,0,0,1,2.9-2.782h2.246v-4.383a27.373,27.373,0,0,0-3.987-.348C653.234,580.871,650.574,583.337,650.574,587.8Z" transform="translate(-0.549 -1.065)" fill="#a2875c"/>
  </g>
</svg>
