<svg xmlns="http://www.w3.org/2000/svg" width="56.546" height="88.293" viewBox="0 0 56.546 88.293">
  <g id="메인로고" transform="translate(257.089 -815.596)">
    <g id="그룹_482" data-name="그룹 482" transform="translate(-250.338 815.596)">
      <g id="그룹_480" data-name="그룹 480" transform="translate(2.044)">
        <path id="패스_236" data-name="패스 236" d="M-225.706,827.7l-6.313,1.589-2.616-7.951,5.652-4.262Z" transform="translate(235.258 -816.458)" fill="#e3e0c9"/>
        <path id="패스_237" data-name="패스 237" d="M-232.881,829.054a.624.624,0,0,1-.591-.428l-2.616-7.951a.622.622,0,0,1,.216-.692l5.652-4.262a.62.62,0,0,1,.566-.1.623.623,0,0,1,.4.409l3.277,10.623a.622.622,0,0,1-.052.489.623.623,0,0,1-.39.3l-6.313,1.589A.634.634,0,0,1-232.881,829.054Zm-1.885-8.345,2.3,6.977,5.114-1.288-2.822-9.149Z" transform="translate(236.12 -815.596)" fill="#623f21"/>
      </g>
      <g id="그룹_481" data-name="그룹 481" transform="translate(0 4.262)">
        <path id="패스_238" data-name="패스 238" d="M-237.464,827.242l-2.044,11.274,4.66-3.323Z" transform="translate(240.131 -826.619)" fill="#e3e0c9"/>
        <path id="패스_239" data-name="패스 239" d="M-240.37,838.277a.622.622,0,0,1-.333-.1.622.622,0,0,1-.279-.637l2.044-11.274a.623.623,0,0,1,.57-.51.622.622,0,0,1,.635.426l2.616,7.951a.622.622,0,0,1-.23.7l-4.66,3.323A.622.622,0,0,1-240.37,838.277Zm2.219-9.373-1.333,7.354,3.039-2.168Z" transform="translate(240.993 -825.758)" fill="#623f21"/>
      </g>
    </g>
    <g id="그룹_485" data-name="그룹 485" transform="translate(-219.502 815.596)">
      <g id="그룹_483" data-name="그룹 483">
        <path id="패스_240" data-name="패스 240" d="M-165.986,827.7l6.313,1.589,2.616-7.951-5.652-4.262Z" transform="translate(166.608 -816.458)" fill="#e3e0c9"/>
        <path id="패스_241" data-name="패스 241" d="M-160.534,829.054a.634.634,0,0,1-.152-.019L-167,827.446a.624.624,0,0,1-.39-.3.622.622,0,0,1-.052-.489l3.277-10.623a.623.623,0,0,1,.4-.409.62.62,0,0,1,.566.1l5.652,4.262a.623.623,0,0,1,.217.692l-2.616,7.951A.624.624,0,0,1-160.534,829.054Zm-5.525-2.655,5.114,1.288,2.3-6.977-4.588-3.46Z" transform="translate(167.47 -815.596)" fill="#623f21"/>
      </g>
      <g id="그룹_484" data-name="그룹 484" transform="translate(6.313 4.262)">
        <path id="패스_242" data-name="패스 242" d="M-148.317,827.242l2.044,11.274-4.66-3.323Z" transform="translate(151.556 -826.619)" fill="#e3e0c9"/>
        <path id="패스_243" data-name="패스 243" d="M-147.135,838.277a.62.62,0,0,1-.362-.116l-4.66-3.323a.622.622,0,0,1-.23-.7l2.617-7.951a.618.618,0,0,1,.634-.426.622.622,0,0,1,.57.51l2.044,11.274a.622.622,0,0,1-.279.637A.623.623,0,0,1-147.135,838.277Zm-3.926-4.187,3.04,2.168-1.333-7.354Z" transform="translate(152.418 -825.758)" fill="#623f21"/>
      </g>
    </g>
    <g id="그룹_486" data-name="그룹 486" transform="translate(-257.089 826.109)">
      <path id="패스_244" data-name="패스 244" d="M-227.61,918.681h-2.176A25.817,25.817,0,0,1-255.6,892.863V861.982a20.011,20.011,0,0,1,19.836-19.837h15.627A19.837,19.837,0,0,1-200.3,861.982v29.392A27.387,27.387,0,0,1-227.61,918.681Z" transform="translate(256.227 -841.523)" fill="#e3e0c9"/>
      <path id="패스_245" data-name="패스 245" d="M-228.473,918.442h-2.176A26.47,26.47,0,0,1-257.089,892V861.12a20.661,20.661,0,0,1,20.455-20.459H-221a20.482,20.482,0,0,1,20.459,20.459v29.392A27.961,27.961,0,0,1-228.473,918.442Zm-8.157-76.536a19.409,19.409,0,0,0-19.214,19.217V892a25.224,25.224,0,0,0,25.195,25.2h2.176a26.715,26.715,0,0,0,26.685-26.685V861.12A19.236,19.236,0,0,0-221,841.906Z" transform="translate(257.089 -840.661)" fill="#623f21"/>
    </g>
    <g id="그룹_487" data-name="그룹 487" transform="translate(-250.346 833.905)">
      <path id="패스_246" data-name="패스 246" d="M-198.19,867.175c-22.563-17.76-42.42-.151-42.619.028a.622.622,0,0,0-.042.879.621.621,0,0,0,.879.042c.128-.116.748-.662,1.775-1.41v2.73h1.245V865.87h-.026c6.179-4.075,21.124-11.013,38.019,2.282a.62.62,0,0,0,.384.134.622.622,0,0,0,.49-.237A.622.622,0,0,0-198.19,867.175Z" transform="translate(241.013 -859.249)" fill="#623f21"/>
    </g>
    <g id="그룹_488" data-name="그룹 488" transform="translate(-248.556 871.496)">
      <path id="패스_247" data-name="패스 247" d="M-200.77,973.152h-32.467a3.51,3.51,0,0,1-3.506-3.506V952.384a3.51,3.51,0,0,1,3.506-3.506h32.467a3.51,3.51,0,0,1,3.506,3.506v17.262A3.51,3.51,0,0,1-200.77,973.152Zm-32.467-23.029a2.263,2.263,0,0,0-2.261,2.261v17.262a2.263,2.263,0,0,0,2.261,2.261h32.467a2.263,2.263,0,0,0,2.261-2.261V952.384a2.263,2.263,0,0,0-2.261-2.261Z" transform="translate(236.743 -948.878)" fill="#623f21"/>
    </g>
    <g id="그룹_489" data-name="그룹 489" transform="translate(-247.309 880.056)">
      <path id="패스_248" data-name="패스 248" d="M-196.779,970.532v-1.245l-36.991.045v1.245l33.615-.041v2.328h1.245v-2.329Z" transform="translate(233.771 -969.287)" fill="#623f21"/>
    </g>
    <g id="그룹_490" data-name="그룹 490" transform="translate(-248.296 847.15)">
      <ellipse id="타원_16" data-name="타원 16" cx="18.857" cy="8.214" rx="18.857" ry="8.214" transform="translate(0.623 0.623)" fill="#937348"/>
      <path id="패스_249" data-name="패스 249" d="M-216.644,908.5c-10.923,0-19.48-3.882-19.48-8.837s8.557-8.837,19.48-8.837,19.48,3.882,19.48,8.837S-205.721,908.5-216.644,908.5Zm0-16.428c-9.884,0-18.235,3.477-18.235,7.591s8.35,7.592,18.235,7.592,18.235-3.477,18.235-7.592S-206.759,892.076-216.644,892.076Z" transform="translate(236.124 -890.831)" fill="#623f21"/>
    </g>
    <g id="그룹_502" data-name="그룹 502" transform="translate(-242.299 852.421)">
      <g id="그룹_499" data-name="그룹 499" transform="translate(0 0)">
        <g id="그룹_492" data-name="그룹 492" transform="translate(0 0.273)">
          <g id="그룹_491" data-name="그룹 491">
            <path id="패스_250" data-name="패스 250" d="M-218.457,910.4a3.587,3.587,0,0,1-1.29-.232,3.355,3.355,0,0,1-1.071-.654,3.127,3.127,0,0,1-.736-1.015,3.1,3.1,0,0,1-.272-1.3,3.3,3.3,0,0,1,.273-1.388,2.781,2.781,0,0,1,.752-.988,3.131,3.131,0,0,1,1.109-.58,3.387,3.387,0,0,1,2.327.03,3.2,3.2,0,0,1,.85.558,3.749,3.749,0,0,1,.65.784,3.19,3.19,0,0,1,.39.912,4.291,4.291,0,0,1,.121,1.022,3.057,3.057,0,0,1-.233,1.228,2.522,2.522,0,0,1-.654.9,2.79,2.79,0,0,1-.988.545A4.048,4.048,0,0,1-218.457,910.4Zm.1-5.867a4.209,4.209,0,0,0-1.2.165,2.653,2.653,0,0,0-.942.491,2.31,2.31,0,0,0-.623.821,2.833,2.833,0,0,0-.229,1.189,2.633,2.633,0,0,0,.229,1.1,2.656,2.656,0,0,0,.625.861,2.884,2.884,0,0,0,.921.562,3.509,3.509,0,0,0,2.2.045,2.3,2.3,0,0,0,.82-.451,2.042,2.042,0,0,0,.531-.733,2.58,2.58,0,0,0,.193-1.037,3.819,3.819,0,0,0-.107-.908,2.72,2.72,0,0,0-.332-.776,3.26,3.26,0,0,0-.567-.683,2.729,2.729,0,0,0-.723-.475A1.947,1.947,0,0,0-218.359,904.532Zm-.236,3.465a1.278,1.278,0,0,1-.332-.046,1.159,1.159,0,0,1-.32-.139.868.868,0,0,1-.26-.255.7.7,0,0,1-.116-.4,1.1,1.1,0,0,1,.063-.372,1,1,0,0,1,.185-.323,1.006,1.006,0,0,1,.283-.229,1.022,1.022,0,0,1,.775-.04.99.99,0,0,1,.333.18.963.963,0,0,1,.237.292.861.861,0,0,1,.1.408.89.89,0,0,1-.263.688A.973.973,0,0,1-218.594,908Zm-.1-1.383a.35.35,0,0,0-.171.039.537.537,0,0,0-.15.121.538.538,0,0,0-.1.171.635.635,0,0,0-.036.214.231.231,0,0,0,.036.134.4.4,0,0,0,.12.117.683.683,0,0,0,.19.081.6.6,0,0,0,.568-.079.439.439,0,0,0,.109-.338.387.387,0,0,0-.041-.185.483.483,0,0,0-.121-.148.513.513,0,0,0-.174-.093A.767.767,0,0,0-218.693,906.614Z" transform="translate(221.826 -904.05)" fill="#fff"/>
          </g>
        </g>
        <g id="그룹_494" data-name="그룹 494" transform="translate(6.254 0.205)">
          <g id="그룹_493" data-name="그룹 493">
            <path id="패스_251" data-name="패스 251" d="M-203.925,910.714a3.419,3.419,0,0,1-.919-.126,3.181,3.181,0,0,1-.846-.374,2.945,2.945,0,0,1-.694-.611,2.6,2.6,0,0,1-.464-.844,1.1,1.1,0,0,1-.065-.349,1.142,1.142,0,0,1,.09-.427,1.621,1.621,0,0,1,.222-.387,1.3,1.3,0,0,1,.334-.306.867.867,0,0,1,.295-.121,2.145,2.145,0,0,1-.4-.422,1.207,1.207,0,0,1-.223-.716,1.586,1.586,0,0,1,.234-.812,2.439,2.439,0,0,1,.6-.677,3.164,3.164,0,0,1,.849-.473,2.978,2.978,0,0,1,1.656-.117,4.528,4.528,0,0,1,.658.181,4.493,4.493,0,0,1,.622.277,2.929,2.929,0,0,1,.537.369,1.845,1.845,0,0,1,.388.463,1.114,1.114,0,0,1,.157.563,1.2,1.2,0,0,1-.117.5,1.712,1.712,0,0,1-.282.428,1.529,1.529,0,0,1-.4.315,1.055,1.055,0,0,1-.432.129c.083.057.164.118.242.182a2.148,2.148,0,0,1,.465.526,1.355,1.355,0,0,1,.2.73,1.617,1.617,0,0,1-.226.818,2.263,2.263,0,0,1-.593.662,3.033,3.033,0,0,1-.853.45A3.138,3.138,0,0,1-203.925,910.714Zm-1.892-3.085a.359.359,0,0,0-.2.062.842.842,0,0,0-.213.2,1.156,1.156,0,0,0-.157.274.678.678,0,0,0-.055.25.648.648,0,0,0,.041.2,2.141,2.141,0,0,0,.379.691,2.483,2.483,0,0,0,.583.513,2.72,2.72,0,0,0,.72.318,2.848,2.848,0,0,0,1.671-.034,2.585,2.585,0,0,0,.721-.378,1.812,1.812,0,0,0,.471-.523,1.133,1.133,0,0,0,.161-.58.878.878,0,0,0-.128-.479,1.665,1.665,0,0,0-.363-.409,3.274,3.274,0,0,0-.5-.336q-.282-.155-.531-.283a3.442,3.442,0,0,1-.444-.266.539.539,0,0,1-.262-.439.452.452,0,0,1,.251-.4.663.663,0,0,1,.838.1,3.57,3.57,0,0,1,.233.3,1.544,1.544,0,0,0,.207.241.262.262,0,0,0,.2.06.565.565,0,0,0,.275-.074,1.036,1.036,0,0,0,.276-.217,1.238,1.238,0,0,0,.2-.309.723.723,0,0,0,.073-.3.637.637,0,0,0-.094-.326,1.375,1.375,0,0,0-.289-.343,2.487,2.487,0,0,0-.451-.308,4.032,4.032,0,0,0-.556-.247,4.037,4.037,0,0,0-.588-.161,2.5,2.5,0,0,0-1.4.1,2.693,2.693,0,0,0-.723.4,1.971,1.971,0,0,0-.486.546,1.117,1.117,0,0,0-.169.571.733.733,0,0,0,.135.44,1.72,1.72,0,0,0,.391.391,3.209,3.209,0,0,0,.537.314c.207.1.4.182.574.26s.341.16.466.232a.492.492,0,0,1,.3.415c0,.107-.043.458-.595.458a.747.747,0,0,1-.465-.2q-.181-.146-.382-.32a4.012,4.012,0,0,0-.384-.294A.5.5,0,0,0-205.818,907.629Zm1.3.314.039.032c.11.089.161.091.166.091h.035C-204.348,908.026-204.429,907.986-204.518,907.943Zm1.086-1.528a.472.472,0,0,0,.052.043,3.154,3.154,0,0,0,.384.229l.024.012-.016-.022a2.98,2.98,0,0,0-.2-.257A.194.194,0,0,0-203.432,906.415Z" transform="translate(206.914 -903.887)" fill="#fff"/>
          </g>
        </g>
        <g id="그룹_496" data-name="그룹 496" transform="translate(12.03 0.243)">
          <g id="그룹_495" data-name="그룹 495">
            <path id="패스_252" data-name="패스 252" d="M-191.591,910.463a2.638,2.638,0,0,1-.431-.042,2.164,2.164,0,0,1-.482-.141,1.327,1.327,0,0,1-.425-.283.726.726,0,0,1-.213-.525,2.578,2.578,0,0,1,.042-.456c.025-.142.047-.278.067-.409l.114-.727q.062-.389.143-.792c.055-.275.123-.549.2-.812a5.825,5.825,0,0,1,.293-.776,3.893,3.893,0,0,1,.409-.692,2.45,2.45,0,0,1,.572-.555,1.342,1.342,0,0,1,.446-.216,1.793,1.793,0,0,1,1.211.1,1.412,1.412,0,0,1,.465.394,1.672,1.672,0,0,1,.256.491c.051.157.092.3.123.442l.016.068.036-.092q.074-.193.17-.424a2,2,0,0,1,.281-.476,1.566,1.566,0,0,1,.443-.376,1.409,1.409,0,0,1,1.516.14,2.388,2.388,0,0,1,.571.708,4.634,4.634,0,0,1,.373.934,9.526,9.526,0,0,1,.229,1.009c.057.332.1.653.121.952s.035.551.035.748a6.181,6.181,0,0,1-.044.827.99.99,0,0,1-.258.576.992.992,0,0,1-.579.257,6.381,6.381,0,0,1-.846.044.8.8,0,0,1-.649-.3,1.6,1.6,0,0,1-.291-.605,3.834,3.834,0,0,1-.11-.718q-.023-.366-.038-.676c-.005-.1-.012-.2-.021-.288l-.033.083q-.072.189-.151.41a3.007,3.007,0,0,1-.2.45,1.583,1.583,0,0,1-.288.376.827.827,0,0,1-1.067,0,1.41,1.41,0,0,1-.329-.424,2.472,2.472,0,0,1-.193-.5c-.039-.147-.075-.287-.109-.418,0,.01,0,.021,0,.031-.022.168-.041.356-.055.563s-.035.427-.058.633-.05.4-.082.571a1.4,1.4,0,0,1-.15.458.9.9,0,0,1-.222.245.991.991,0,0,1-.26.14,1.326,1.326,0,0,1-.278.065A2.156,2.156,0,0,1-191.591,910.463Zm1.216-6.011a1.371,1.371,0,0,0-.356.045.87.87,0,0,0-.293.144,1.988,1.988,0,0,0-.467.453,3.414,3.414,0,0,0-.359.608,5.374,5.374,0,0,0-.269.713q-.115.381-.192.769t-.139.773l-.115.725q-.03.2-.069.419a2.217,2.217,0,0,0-.034.373.249.249,0,0,0,.075.189.849.849,0,0,0,.275.181,1.67,1.67,0,0,0,.376.11,1.764,1.764,0,0,0,.557.021.872.872,0,0,0,.178-.042.518.518,0,0,0,.135-.073.433.433,0,0,0,.1-.113.972.972,0,0,0,.087-.294c.03-.163.056-.342.078-.539s.041-.4.057-.614.035-.415.058-.592a3.12,3.12,0,0,1,.091-.461c.087-.294.263-.338.361-.338a.383.383,0,0,1,.359.294,3.648,3.648,0,0,1,.115.38q.052.212.117.453a1.989,1.989,0,0,0,.156.408.92.92,0,0,0,.217.282.341.341,0,0,0,.43.019,1.1,1.1,0,0,0,.2-.263,2.457,2.457,0,0,0,.17-.378c.053-.151.1-.291.154-.419a2.123,2.123,0,0,1,.172-.359.442.442,0,0,1,.381-.242c.09,0,.307.04.367.408a5.073,5.073,0,0,1,.052.544q.016.307.038.669a3.333,3.333,0,0,0,.1.628,1.13,1.13,0,0,0,.2.428.324.324,0,0,0,.279.12,5.913,5.913,0,0,0,.78-.04.539.539,0,0,0,.31-.122.542.542,0,0,0,.123-.307,5.757,5.757,0,0,0,.039-.76q0-.281-.034-.711c-.022-.286-.061-.592-.115-.91a9.171,9.171,0,0,0-.219-.959,4.1,4.1,0,0,0-.334-.837,1.893,1.893,0,0,0-.455-.568.924.924,0,0,0-.977-.1,1.089,1.089,0,0,0-.309.262,1.5,1.5,0,0,0-.213.361q-.094.224-.164.411c-.051.133-.1.245-.14.336a.4.4,0,0,1-.367.266.376.376,0,0,1-.359-.294c-.029-.09-.06-.206-.092-.346s-.067-.259-.112-.4a1.2,1.2,0,0,0-.185-.352.945.945,0,0,0-.31-.26A1.079,1.079,0,0,0-190.375,904.452Z" transform="translate(193.143 -903.977)" fill="#fff"/>
          </g>
        </g>
        <g id="그룹_498" data-name="그룹 498" transform="translate(20.025)">
          <g id="그룹_497" data-name="그룹 497">
            <path id="패스_253" data-name="패스 253" d="M-170.553,910.53a2.771,2.771,0,0,1-.6-.066,1.834,1.834,0,0,1-.568-.228,1.334,1.334,0,0,1-.433-.434,1.241,1.241,0,0,1-.173-.665,2.284,2.284,0,0,1,.114-.713c.07-.212.146-.423.229-.635s.153-.409.22-.615a1.843,1.843,0,0,0,.091-.569,1.572,1.572,0,0,0-.013-.2.461.461,0,0,0-.039-.14.165.165,0,0,0-.055-.067,1.092,1.092,0,0,0-.34.013c-.1.022-.19.047-.282.076s-.211.06-.318.084a.96.96,0,0,1-.887-.168,1.34,1.34,0,0,1-.287-.419,2.042,2.042,0,0,1-.146-.492,2.643,2.643,0,0,1-.041-.434,2.082,2.082,0,0,1,.017-.262,1.146,1.146,0,0,1,.077-.288.905.905,0,0,1,.166-.263.726.726,0,0,1,.291-.192,6.838,6.838,0,0,1,1.41-.351,9.29,9.29,0,0,1,2.93.023,5.965,5.965,0,0,1,1.456.432.838.838,0,0,1,.311.234,1.169,1.169,0,0,1,.177.3,1.335,1.335,0,0,1,.088.333,2.373,2.373,0,0,1,.021.313,2.756,2.756,0,0,1-.041.413,2.663,2.663,0,0,1-.138.518,1.747,1.747,0,0,1-.255.464.621.621,0,0,1-.5.263,1.083,1.083,0,0,1-.449-.109q-.2-.091-.4-.2c-.125-.069-.247-.132-.362-.189a.534.534,0,0,0-.219-.062.139.139,0,0,0-.033.057.639.639,0,0,0-.031.145,1.39,1.39,0,0,0-.01.153,1.7,1.7,0,0,0,.1.583q.115.316.252.623.144.323.265.649a2.147,2.147,0,0,1,.132.744,1.2,1.2,0,0,1-.169.642,1.31,1.31,0,0,1-.427.422,1.765,1.765,0,0,1-.553.22A2.72,2.72,0,0,1-170.553,910.53Zm-1.315-4.822a.611.611,0,0,1,.367.106.641.641,0,0,1,.2.246.934.934,0,0,1,.082.285,2.073,2.073,0,0,1,.017.262,2.306,2.306,0,0,1-.114.716q-.1.321-.229.64t-.22.611a1.8,1.8,0,0,0-.09.564.782.782,0,0,0,.1.414.851.851,0,0,0,.281.281,1.347,1.347,0,0,0,.42.167,2.242,2.242,0,0,0,.973,0,1.308,1.308,0,0,0,.4-.16.829.829,0,0,0,.273-.27.729.729,0,0,0,.1-.39,1.666,1.666,0,0,0-.1-.579c-.077-.208-.161-.415-.253-.621s-.184-.433-.264-.653a2.172,2.172,0,0,1-.132-.746,1.876,1.876,0,0,1,.013-.206,1.144,1.144,0,0,1,.052-.242.622.622,0,0,1,.152-.248.643.643,0,0,1,.759-.023q.184.09.382.2c.125.068.247.131.369.186a.619.619,0,0,0,.251.066c.021,0,.066,0,.128-.079a1.315,1.315,0,0,0,.185-.341,2.151,2.151,0,0,0,.113-.425,2.33,2.33,0,0,0,.035-.338,1.988,1.988,0,0,0-.017-.25.862.862,0,0,0-.057-.214.683.683,0,0,0-.1-.175.364.364,0,0,0-.137-.1,5.508,5.508,0,0,0-1.341-.4,8.809,8.809,0,0,0-2.785-.022,6.424,6.424,0,0,0-1.312.326.265.265,0,0,0-.1.066.435.435,0,0,0-.079.126.666.666,0,0,0-.044.166,1.6,1.6,0,0,0-.013.2,2.18,2.18,0,0,0,.035.355,1.532,1.532,0,0,0,.112.377.872.872,0,0,0,.184.272.5.5,0,0,0,.451.044q.143-.032.283-.075.156-.048.317-.084A1.64,1.64,0,0,1-171.868,905.708Z" transform="translate(174.081 -903.398)" fill="#fff"/>
          </g>
        </g>
      </g>
      <g id="그룹_500" data-name="그룹 500" transform="translate(14.302 2.049)">
        <circle id="타원_17" data-name="타원 17" cx="0.264" cy="0.264" r="0.264" fill="#fff"/>
      </g>
      <g id="그룹_501" data-name="그룹 501" transform="translate(17.825 2.049)">
        <circle id="타원_18" data-name="타원 18" cx="0.264" cy="0.264" r="0.264" fill="#fff"/>
      </g>
    </g>
  </g>
</svg>
