<svg xmlns="http://www.w3.org/2000/svg" width="35" height="35" viewBox="0 0 35 35">
  <g id="인스타아이콘" transform="translate(-576.399 -573.912)">
    <g id="그룹_68" data-name="그룹 68" transform="translate(576.399 573.912)">
      <path id="패스_104" data-name="패스 104" d="M603.644,580.274a2.089,2.089,0,1,0,2.088,2.088A2.088,2.088,0,0,0,603.644,580.274Z" transform="translate(-576.9 -574.039)" fill="#fbf7f1"/>
      <path id="패스_105" data-name="패스 105" d="M594.358,582.952a8.773,8.773,0,1,0,8.774,8.773A8.784,8.784,0,0,0,594.358,582.952Zm0,14.394a5.621,5.621,0,1,1,5.62-5.621A5.626,5.626,0,0,1,594.358,597.346Z" transform="translate(-576.717 -574.226)" fill="#fbf7f1"/>
      <path id="패스_106" data-name="패스 106" d="M600.885,608.912H586.912A10.525,10.525,0,0,1,576.4,598.4V584.425a10.525,10.525,0,0,1,10.513-10.513h13.973A10.526,10.526,0,0,1,611.4,584.425V598.4A10.526,10.526,0,0,1,600.885,608.912Zm-13.973-31.707a7.228,7.228,0,0,0-7.221,7.22V598.4a7.228,7.228,0,0,0,7.221,7.22h13.973a7.228,7.228,0,0,0,7.221-7.22V584.425a7.228,7.228,0,0,0-7.221-7.22Z" transform="translate(-576.399 -573.912)" fill="#fbf7f1"/>
    </g>
  </g>
</svg>
