<svg xmlns="http://www.w3.org/2000/svg" width="128.106" height="129.898" viewBox="0 0 128.106 129.898">
  <g id="그룹_1007" data-name="그룹 1007" transform="translate(-1554.758 -4816)">
    <g id="그룹_991" data-name="그룹 991" transform="translate(1897.057 4785.471)">
      <g id="그룹_990" data-name="그룹 990">
        <path id="패스_1559" data-name="패스 1559" d="M-332.082,108.377a4.867,4.867,0,0,1-3.853,5.981,4.866,4.866,0,0,1-6.209-3.474,4.867,4.867,0,0,1,3.853-5.982A4.867,4.867,0,0,1-332.082,108.377Zm-1.412.351c-.425-1.7-2.2-2.706-4.383-2.163s-3.279,2.265-2.854,3.967,2.2,2.705,4.381,2.162S-333.07,110.43-333.494,108.728Z" fill="#623f21"/>
        <path id="패스_1560" data-name="패스 1560" d="M-329.689,116.539l-4.948,5.052-.614.584.84-.115,7.037-.69.775,1.618-10.575.8-.54-1.126,7.249-7.741Z" fill="#623f21"/>
        <path id="패스_1561" data-name="패스 1561" d="M-330.818,131.7l3.1,4.222-1.173.862-4.12-5.6,7.961-5.853,4,5.437-1.174.862-2.98-4.054-2.126,1.565,2.457,3.34-1.163.855-2.457-3.341Z" fill="#623f21"/>
        <path id="패스_1562" data-name="패스 1562" d="M-322.05,139.043l-2.351,2.495-1.248-1.175,6.771-7.186,2.534,2.388c1.636,1.541,1.665,3.48.409,4.813a3.074,3.074,0,0,1-2.3,1.024,2.951,2.951,0,0,1-.739-.106l-.943,4.467-1.446-1.364.9-3.878a3.783,3.783,0,0,1-.3-.267Zm2.284.152a1.719,1.719,0,0,0,2.583.007,1.711,1.711,0,0,0-.159-2.578l-1.286-1.212-2.424,2.571Z" fill="#623f21"/>
        <path id="패스_1563" data-name="패스 1563" d="M-308.315,144.517a2.81,2.81,0,0,0-1.159-2.022,1.217,1.217,0,0,0-1.822.217c-.321.488-.337.961.158,1.721l.757,1.168c.8,1.224,1.4,2.4.5,3.781-.879,1.335-2.765,1.7-4.48.567a4.335,4.335,0,0,1-1.808-3.894l1.49-.281a2.944,2.944,0,0,0,1.117,2.959,1.511,1.511,0,0,0,2.248-.294c.243-.369.46-.865-.268-1.934l-.786-1.17c-1.015-1.508-.988-2.611-.36-3.565.821-1.249,2.47-1.534,4.055-.491a3.908,3.908,0,0,1,1.806,2.977Z" fill="#623f21"/>
        <path id="패스_1564" data-name="패스 1564" d="M-301.751,147.025l-2.909-1.261.579-1.335,7.392,3.2-.58,1.336-2.909-1.262-3.348,7.726-1.574-.682Z" fill="#623f21"/>
        <path id="패스_1565" data-name="패스 1565" d="M-291.124,156.7l-3.792-.906-1.563,2.179-1.719-.411,6.328-8.643,1.137.272L-289,159.761l-1.719-.41ZM-294,154.519l2.629.627-.548-3.525Z" fill="#623f21"/>
        <path id="패스_1566" data-name="패스 1566" d="M-284.227,150.33l2.093,4.6.253.588.318-.554,2.632-4.33,1.791.1-3.952,6.221-.2,3.438-1.714-.1.2-3.427-3.212-6.644Z" fill="#623f21"/>
        <path id="패스_1567" data-name="패스 1567" d="M-271.966,154.362l-.411-.607.129.652.9,5.754-1.7.266-1.53-9.762,1.606-.251,3.942,5.173.345.523.168-.6,2.172-6.13,1.606-.251,1.529,9.76-1.695.265-.9-5.753-.077-.659-.206.7-1.709,4.794-1.079.169Z" fill="#623f21"/>
        <path id="패스_1568" data-name="패스 1568" d="M-260.569,147.752l3.813,3.314.474.429.059-.636.595-5.03,1.672-.65-1.01,7.3,1.249,3.21-1.6.622-1.244-3.2-5.681-4.708Z" fill="#623f21"/>
        <path id="패스_1569" data-name="패스 1569" d="M-248.9,143.9l-2.694,1.676-.769-1.237,6.845-4.26.768,1.238-2.693,1.675,4.451,7.155-1.457.906Z" fill="#623f21"/>
        <path id="패스_1570" data-name="패스 1570" d="M-235.67,144.69l-1.315,1.1-6.337-7.576,1.316-1.1Z" fill="#623f21"/>
        <path id="패스_1571" data-name="패스 1571" d="M-234.8,135.918l-.707-.192.522.41,4.432,3.778-1.113,1.307-7.519-6.411,1.053-1.238,6.362,1.357.6.175-.267-.571-2.345-6.064,1.053-1.238,7.52,6.41-1.113,1.306-4.433-3.779-.487-.449.3.667,1.826,4.752-.709.831Z" fill="#623f21"/>
        <path id="패스_1572" data-name="패스 1572" d="M-222.576,126.575l2.491-4.606,1.28.692-3.307,6.116-8.687-4.7,3.208-5.932,1.28.693-2.392,4.422,2.32,1.256,1.973-3.647,1.268.687-1.971,3.646Z" fill="#623f21"/>
      </g>
    </g>
    <g id="그룹_993" data-name="그룹 993" transform="translate(1897.057 4785.471)">
      <g id="그룹_992" data-name="그룹 992">
        <path id="패스_1573" data-name="패스 1573" d="M-337.283,67.626a4.868,4.868,0,0,1,6.773-2.188,4.87,4.87,0,0,1,2.605,6.624,4.871,4.871,0,0,1-6.775,2.188A4.868,4.868,0,0,1-337.283,67.626Zm1.315.622c-.749,1.587-.011,3.489,2.023,4.451s3.972.326,4.722-1.26.012-3.489-2.021-4.451S-335.217,66.662-335.968,68.248Z" fill="#623f21"/>
        <path id="패스_1574" data-name="패스 1574" d="M-331.71,58.39l6.749,2.09.8.28-.484-.695-3.827-5.939,1.084-1.429,5.539,9.036-.754.994L-332.8,59.818Z" fill="#623f21"/>
        <path id="패스_1575" data-name="패스 1575" d="M-317.135,54.343l3.962-3.429.953,1.1-5.259,4.552-6.467-7.472,5.1-4.416.952,1.1-3.8,3.293,1.726,1.995,3.137-2.714.944,1.091-3.136,2.715Z" fill="#623f21"/>
        <path id="패스_1576" data-name="패스 1576" d="M-309.948,46.242l1.783,2.935-1.468.891-5.132-8.448,2.98-1.81c1.923-1.167,3.8-.681,4.754.886a3.08,3.08,0,0,1,.375,2.5,2.915,2.915,0,0,1-.3.684l4.06,2.1-1.7,1.032-3.5-1.9a3.519,3.519,0,0,1-.338.219Zm.757-2.163a1.72,1.72,0,0,0,.692-2.49,1.712,1.712,0,0,0-2.53-.534l-1.512.919L-310.7,45Z" fill="#623f21"/>
        <path id="패스_1577" data-name="패스 1577" d="M-298.677,36.141A2.8,2.8,0,0,0-301,35.9a1.217,1.217,0,0,0-.889,1.606c.208.548.583.836,1.49.879l1.39.066c1.46.069,2.773.263,3.362,1.805.572,1.494-.237,3.237-2.157,3.971a4.34,4.34,0,0,1-4.22-.809l.644-1.374a2.948,2.948,0,0,0,3.057.822,1.512,1.512,0,0,0,1.073-2c-.156-.412-.433-.878-1.727-.912l-1.409-.047c-1.817-.056-2.7-.721-3.106-1.791-.534-1.4.2-2.9,1.971-3.579a3.912,3.912,0,0,1,3.474.273Z" fill="#623f21"/>
        <path id="패스_1578" data-name="패스 1578" d="M-290.945,33.245l-3.118.586-.268-1.431,7.921-1.49.269,1.431-3.117.587,1.557,8.279-1.687.317Z" fill="#623f21"/>
        <path id="패스_1579" data-name="패스 1579" d="M-276.893,37.911l-3.9.037-.991,2.491-1.768.016,4.054-9.915,1.17-.011,4.237,9.838-1.767.017Zm-3.314-1.424,2.7-.026-1.383-3.288Z" fill="#623f21"/>
        <path id="패스_1580" data-name="패스 1580" d="M-269.816,31.027l1.557,4.808.185.613.379-.515,3.105-4,1.77.306-4.633,5.731-.586,3.4-1.691-.292.584-3.382-2.439-6.966Z" fill="#623f21"/>
        <path id="패스_1581" data-name="패스 1581" d="M-257.74,38.062l-.035-.732-.229.623-2.221,5.381-1.585-.654,3.767-9.129,1.5.619.678,6.465.021.628.458-.43,5.04-4.1,1.5.619-3.767,9.129-1.585-.654,2.22-5.382.277-.6-.541.493-3.951,3.2-1.009-.417Z" fill="#623f21"/>
        <path id="패스_1582" data-name="패스 1582" d="M-243.025,40.83l-.651,5.01-.1.632.563-.3,4.52-2.287,1.466,1.033-6.638,3.195-1.984,2.817-1.4-.989,1.975-2.805.779-7.337Z" fill="#623f21"/>
        <path id="패스_1583" data-name="패스 1583" d="M-233.179,50.75l-2.2-2.281,1.047-1.011,5.595,5.8-1.048,1.01-2.2-2.281-6.06,5.847-1.191-1.236Z" fill="#623f21"/>
        <path id="패스_1584" data-name="패스 1584" d="M-233.1,63.913l-1.008-1.39,8-5.805,1.007,1.389Z" fill="#623f21"/>
        <path id="패스_1585" data-name="패스 1585" d="M-224.732,66.223l.46-.57-.585.313-5.234,2.546-.751-1.542,8.881-4.32.709,1.46-3.787,5.282-.4.484.626-.017,6.5.281.71,1.46-8.88,4.319-.75-1.542L-222,71.831l.608-.267-.733.009-5.082-.228-.477-.982Z" fill="#623f21"/>
        <path id="패스_1586" data-name="패스 1586" d="M-223.558,80.965l1.224,5.094-1.415.34-1.625-6.761,9.6-2.309,1.577,6.56-1.415.34-1.176-4.892-2.567.617.97,4.032-1.4.337-.969-4.032Z" fill="#623f21"/>
      </g>
    </g>
  </g>
</svg>
