<svg xmlns="http://www.w3.org/2000/svg" width="35" height="35" viewBox="0 0 35 35">
  <g id="트위터아이콘" transform="translate(-701.688 -573.693)">
    <rect id="사각형_203" data-name="사각형 203" width="35" height="35" rx="9.128" transform="translate(701.688 573.693)" fill="#fbf7f1"/>
    <g id="그룹_475" data-name="그룹 475" transform="translate(709.669 583.291)">
      <path id="패스_217" data-name="패스 217" d="M729.563,585.745a7.987,7.987,0,0,1-1.965.56c.316-.053.78-.625.966-.856a3.594,3.594,0,0,0,.653-1.189c.017-.034.029-.077-.005-.1a.114.114,0,0,0-.1.009,10.066,10.066,0,0,1-2.329.892.157.157,0,0,1-.161-.043,1.829,1.829,0,0,0-.2-.208,4.122,4.122,0,0,0-1.128-.692,3.925,3.925,0,0,0-1.731-.278,4.142,4.142,0,0,0-1.642.463,4.225,4.225,0,0,0-1.324,1.082,4.068,4.068,0,0,0-.791,1.585,4.279,4.279,0,0,0-.042,1.672c.012.094,0,.107-.081.094a12.441,12.441,0,0,1-8-4.074c-.094-.107-.144-.107-.221.008a4.059,4.059,0,0,0,.692,4.8c.157.148.318.3.492.432a4.057,4.057,0,0,1-1.545-.432c-.093-.059-.14-.026-.148.08a2.415,2.415,0,0,0,.025.459,4.106,4.106,0,0,0,2.53,3.272,2.4,2.4,0,0,0,.513.157,4.582,4.582,0,0,1-1.515.047c-.11-.021-.152.034-.11.14a4.259,4.259,0,0,0,3.183,2.665c.144.025.288.025.433.059-.009.013-.017.013-.026.026a5.041,5.041,0,0,1-2.173,1.152,7.776,7.776,0,0,1-3.3.422c-.177-.026-.215-.024-.263,0s-.006.073.051.119c.225.149.454.28.688.407a10.851,10.851,0,0,0,2.207.883,11.751,11.751,0,0,0,11.411-2.668,11.974,11.974,0,0,0,3.158-8.736c0-.125.148-.194.236-.261a7.7,7.7,0,0,0,1.553-1.615.489.489,0,0,0,.1-.309v-.017C729.643,585.694,729.642,585.709,729.563,585.745Z" transform="translate(-710.215 -583.828)" fill="#a2875c"/>
    </g>
  </g>
</svg>
